<?xml version="1.0" encoding="UTF-8"?>
<svg width="207px" height="207px" viewBox="0 0 207 207" version="1.1" xmlns="http://www.w3.org/2000/svg" xmlns:xlink="http://www.w3.org/1999/xlink">
    <title>Arrival Illustration</title>
    <defs>
        <polygon id="path-1" points="0 0.894617665 150 0.894617665 150 150.705641 0 150.705641"></polygon>
        <polygon id="path-3" points="0 0.195748954 38 0.195748954 38 33.195749 0 33.195749"></polygon>
        <polygon id="path-5" points="0 -0.113874477 15 -0.113874477 15 7.88612552 0 7.88612552"></polygon>
        <polygon id="path-7" points="0 0.622527197 16 0.195748954 16 4.19574895 0 4.6225272"></polygon>
    </defs>
    <g id="Visual-Designs" stroke="none" stroke-width="1" fill="none" fill-rule="evenodd">
        <g id="Facility_Arrival-time" transform="translate(-151.000000, -10.000000)">
            <g id="Group" transform="translate(151.000000, 10.000000)">
                <g id="Arrival-Illustration">
                    <path d="M80.4598421,32.1283665 C117.030151,-8.76656731 164.230892,-17.2780012 181.929342,46.2306497 C199.626104,109.740426 183.357571,163.519795 133.969204,170.334117 C97.7144666,175.336012 85.0083488,150.20841 63.9623646,159.684559 C24.7741052,177.329007 -0.350684599,153.976706 0.00370065915,116.868069 C0.357523401,79.7577452 15.2383292,66.5661758 31.7397443,58.8715156 C44.1477285,53.0849106 60.9101512,53.9905618 80.4598421,32.1283665 Z" id="Fill-1" fill="#D6EEF3"></path>
                    <g id="Group-87" transform="translate(56.117351, 55.000000)">
                        <g id="Group-3" transform="translate(0.812500, 0.000000)">
                            <mask id="mask-2" fill="white">
                                <use xlink:href="#path-1"></use>
                            </mask>
                            <g id="Clip-2"></g>
                            <path d="M150,75.7998158 C150,117.168725 116.420779,150.705641 74.9978015,150.705641 C33.5760799,150.705641 0,117.168725 0,75.7998158 C0,34.4321612 33.5760799,0.894617665 74.9978015,0.894617665 C116.420779,0.894617665 150,34.4321612 150,75.7998158" id="Fill-1" fill="#68C2D4" mask="url(#mask-2)"></path>
                        </g>
                        <path d="M142.8125,76.497807 C142.8125,113.225424 113.038195,143 76.3087405,143 C39.5836721,143 9.8125,113.225424 9.8125,76.497807 C9.8125,39.7714435 39.5836721,10 76.3087405,10 C113.038195,10 142.8125,39.7714435 142.8125,76.497807" id="Fill-4" fill="#FFFFFF"></path>
                        <polygon id="Fill-6" fill="#9AC7F7" points="74.8125 17 76.8125 17 76.8125 15 74.8125 15"></polygon>
                        <polygon id="Fill-8" fill="#007991" points="74.8125 29 76.8125 29 76.8125 15 74.8125 15"></polygon>
                        <polygon id="Fill-9" fill="#007991" points="53.8125 34.8777945 51.5861999 36 43.8125 24.1319745 46.0270281 23"></polygon>
                        <polygon id="Fill-10" fill="#007991" points="35.8125 52.0072007 34.6870249 54 22.8125 47.000277 23.9574955 45"></polygon>
                        <polygon id="Fill-11" fill="#007991" points="27.8056425 76 27.8125 78 13.8125 78 13.8125 76"></polygon>
                        <polygon id="Fill-12" fill="#007991" points="34.676098 99 35.8125 100.997021 23.9452421 108 22.8125 106.003602"></polygon>
                        <polygon id="Fill-13" fill="#007991" points="51.6056992 117 53.8125 118.135656 46.0276284 130 43.8125 128.865563"></polygon>
                        <polygon id="Fill-14" fill="#007991" points="74.8125 124 76.8125 124 76.8125 138 74.8125 137.997506"></polygon>
                        <polygon id="Fill-15" fill="#007991" points="97.8125 118.13431 100.039257 117 107.8125 128.879121 105.583668 130"></polygon>
                        <polygon id="Fill-16" fill="#007991" points="115.8125 100.998199 116.942352 99 128.8125 106.00367 127.681429 108"></polygon>
                        <polygon id="Fill-17" fill="#007991" points="123.8125 78 123.8125 76 137.8125 76 137.800028 77.9962295"></polygon>
                        <polygon id="Fill-18" fill="#007991" points="116.948902 54 115.8125 51.9923173 127.686468 45 128.8125 47.0008306"></polygon>
                        <polygon id="Fill-19" fill="#007991" points="100.038722 36 97.8125 34.8676553 105.582817 23 107.8125 24.1347851"></polygon>
                        <polygon id="Fill-20" fill="#D6EEF3" points="70.8125 17.7153392 68.9980215 18 68.8125 15.2876106 70.6191258 15"></polygon>
                        <polygon id="Fill-21" fill="#D6EEF3" points="65.8125 18.4674111 62.5264275 19 61.8125 16.523701 65.1113375 16"></polygon>
                        <polygon id="Fill-22" fill="#D6EEF3" points="59.8125 20.2626955 56.7940846 21 55.8125 18.7328048 58.8292024 18"></polygon>
                        <polygon id="Fill-23" fill="#D6EEF3" points="53.8125 22.0709757 51.0387174 23 49.8125 20.9136838 52.5813514 20"></polygon>
                        <polygon id="Fill-24" fill="#D6EEF3" points="47.8125 24.9044045 45.2844302 26 43.8125 24.0932254 46.3588202 23"></polygon>
                        <polygon id="Fill-25" fill="#D6EEF3" points="40.8125 27.7431494 39.6588174 29 38.8125 27.2666924 39.9773946 26"></polygon>
                        <polygon id="Fill-26" fill="#D6EEF3" points="36.8125 31.5782534 35.7607528 33 34.8125 31.4240397 35.8673024 30"></polygon>
                        <polygon id="Fill-27" fill="#D6EEF3" points="32.8125 36.4237385 30.9214658 38 28.8125 36.5779817 30.7111809 35"></polygon>
                        <polygon id="Fill-28" fill="#D6EEF3" points="28.8125 41.2699884 27.1167722 43 24.8125 41.7340672 26.5035883 40"></polygon>
                        <polygon id="Fill-29" fill="#D6EEF3" points="24.8125 46.1030542 24.0823098 48 22.8125 46.8969458 23.5486331 45"></polygon>
                        <polygon id="Fill-30" fill="#D6EEF3" points="22.8125 50.9281633 21.5680737 53 18.8125 52.0767347 20.0536536 50"></polygon>
                        <polygon id="Fill-31" fill="#D6EEF3" points="19.8125 56.7388877 18.832663 59 15.8125 58.2624007 16.794911 56"></polygon>
                        <polygon id="Fill-32" fill="#D6EEF3" points="17.8125 62.5315418 17.4638262 65 15.8125 64.467775 16.1720557 62"></polygon>
                        <polygon id="Fill-33" fill="#D6EEF3" points="15.8125 69.2797546 15.6166514 72 13.8125 71.7018405 14.006395 69"></polygon>
                        <polygon id="Fill-34" fill="#D6EEF3" points="15.8125 76 15.8125 78 13.8178981 78 13.8125 76"></polygon>
                        <polygon id="Fill-35" fill="#D6EEF3" points="15.6293911 81 15.8125 83.7233728 14.0151928 84 13.8125 81.2862426"></polygon>
                        <polygon id="Fill-36" fill="#D6EEF3" points="17.4682191 88 17.8125 90.4835841 16.1649349 91 15.8125 88.5287278"></polygon>
                        <polygon id="Fill-37" fill="#D6EEF3" points="18.8357158 94 19.8125 96.262516 16.7944433 97 15.8125 94.7400513"></polygon>
                        <polygon id="Fill-38" fill="#D6EEF3" points="21.5895284 100 22.8125 102.083641 20.046099 103 18.8125 100.932349"></polygon>
                        <polygon id="Fill-39" fill="#D6EEF3" points="24.079325 105 24.8125 106.906015 23.5429038 108 22.8125 106.101108"></polygon>
                        <polygon id="Fill-40" fill="#D6EEF3" points="27.1405464 110 28.8125 111.74156 26.4813588 113 24.8125 111.263679"></polygon>
                        <polygon id="Fill-41" fill="#D6EEF3" points="30.9315886 115 32.8125 116.578947 30.7079624 118 28.8125 116.418192"></polygon>
                        <polygon id="Fill-42" fill="#D6EEF3" points="35.772042 120 36.8125 121.421234 35.8621183 123 34.8125 121.578766"></polygon>
                        <polygon id="Fill-43" fill="#D6EEF3" points="39.6520443 124 40.8125 125.263647 39.9729557 127 38.8125 125.74216"></polygon>
                        <polygon id="Fill-44" fill="#D6EEF3" points="45.2961421 127 47.8125 128.102924 46.3438362 130 43.8125 128.908929"></polygon>
                        <polygon id="Fill-45" fill="#D6EEF3" points="51.0615828 130 53.8125 130.930294 52.5764625 133 49.8125 132.08933"></polygon>
                        <polygon id="Fill-46" fill="#D6EEF3" points="56.3049064 132 57.8125 132.74101 57.3136765 135 55.8125 134.27119"></polygon>
                        <polygon id="Fill-47" fill="#D6EEF3" points="62.4937585 134 65.8125 134.536248 65.0892898 137 61.8125 136.473947"></polygon>
                        <polygon id="Fill-48" fill="#D6EEF3" points="68.9997696 135 70.8125 135.296251 70.6144169 138 68.8125 137.730213"></polygon>
                        <polygon id="Fill-49" fill="#D6EEF3" points="74.8125 136 76.8125 136.008049 76.8125 137.993561 74.8125 138"></polygon>
                        <polygon id="Fill-50" fill="#D6EEF3" points="80.8125 135.276287 82.6198417 135 82.8125 137.722975 81.0017092 138"></polygon>
                        <polygon id="Fill-51" fill="#D6EEF3" points="85.8125 134.514869 89.1062429 134 89.8125 136.468104 86.5142065 137"></polygon>
                        <polygon id="Fill-52" fill="#D6EEF3" points="91.8125 132.734904 94.841861 132 95.8125 134.261242 92.8004102 135"></polygon>
                        <polygon id="Fill-53" fill="#D6EEF3" points="97.8125 130.913283 100.581604 130 101.8125 132.072638 99.0507909 133"></polygon>
                        <polygon id="Fill-54" fill="#D6EEF3" points="103.8125 128.084337 106.352698 127 107.8125 128.896702 105.281015 130"></polygon>
                        <polygon id="Fill-55" fill="#D6EEF3" points="108.8125 125.256138 111.14635 124 112.8125 125.739223 110.51738 127"></polygon>
                        <polygon id="Fill-56" fill="#D6EEF3" points="114.8125 121.419607 115.873592 120 116.8125 121.582682 115.76859 123"></polygon>
                        <polygon id="Fill-57" fill="#D6EEF3" points="118.8125 116.575201 120.714164 115 122.8125 116.420781 120.931498 118"></polygon>
                        <polygon id="Fill-58" fill="#D6EEF3" points="123.8125 112.732329 124.653975 111 125.8125 112.261298 124.976045 114"></polygon>
                        <polygon id="Fill-59" fill="#D6EEF3" points="126.8125 106.904828 127.548159 105 128.8125 106.102295 128.09261 108"></polygon>
                        <polygon id="Fill-60" fill="#D6EEF3" points="128.8125 102.077302 130.06296 100 132.8125 100.93008 131.602114 103"></polygon>
                        <polygon id="Fill-61" fill="#D6EEF3" points="131.8125 96.2607763 132.801563 94 135.8125 94.7424405 134.870617 97"></polygon>
                        <polygon id="Fill-67" fill="#D6EEF3" points="132.792717 59 131.8125 56.7355088 134.816116 56 135.8125 58.2528982"></polygon>
                        <polygon id="Fill-68" fill="#D6EEF3" points="130.03908 54 128.8125 51.9235969 131.576166 51 132.8125 53.0678001"></polygon>
                        <polygon id="Fill-69" fill="#D6EEF3" points="127.539951 48 126.8125 46.1051069 128.078761 45 128.8125 46.8942993"></polygon>
                        <polygon id="Fill-70" fill="#D6EEF3" points="124.6497 43 123.8125 41.2621209 124.973766 40 125.8125 41.7228124"></polygon>
                        <polygon id="Fill-71" fill="#D6EEF3" points="120.704443 38 118.8125 36.4279702 120.935723 35 122.8125 36.5680122"></polygon>
                        <polygon id="Fill-72" fill="#D6EEF3" points="115.862471 33 114.8125 31.584147 115.763289 30 116.8125 31.4106835"></polygon>
                        <polygon id="Fill-73" fill="#D6EEF3" points="111.121612 29 108.8125 27.7348631 110.51646 26 112.8125 27.2419977"></polygon>
                        <polygon id="Fill-74" fill="#D6EEF3" points="106.341354 26 103.8125 24.9024679 105.282065 23 107.8125 24.0862784"></polygon>
                        <polygon id="Fill-75" fill="#D6EEF3" points="100.569599 23 97.8125 22.0777732 99.0603039 20 101.8125 20.9087188"></polygon>
                        <polygon id="Fill-76" fill="#D6EEF3" points="94.8257535 21 91.8125 20.2734676 92.8129275 18 95.8125 18.7258894"></polygon>
                        <polygon id="Fill-77" fill="#D6EEF3" points="89.0987995 19 85.8125 18.4847589 86.5371245 16 89.8125 16.5131938"></polygon>
                        <polygon id="Fill-78" fill="#D6EEF3" points="82.615698 18 80.8125 17.7303453 81.0038899 15 82.8125 15.2784717"></polygon>
                        <polygon id="Fill-79" fill="#FE635B" points="69.8125 72.0238495 68.6027572 74 46.8125 61.9922268 48.0215955 60"></polygon>
                        <polygon id="Fill-80" fill="#69AEEB" points="74.4612769 76 68.8125 73.4846545 69.167374 73 74.8125 75.5345509"></polygon>
                        <polygon id="Fill-81" fill="#FE635B" points="86.1875599 69 84.8125 67.116394 119.458516 43 120.8125 44.887972"></polygon>
                        <polygon id="Fill-82" fill="#69AEEB" points="77.1916938 75 76.8125 74.4829455 87.444121 67 87.8125 67.5210575"></polygon>
                        <path d="M76.318714,74.5468457 C75.6227505,74.5468457 75.0625,75.2068717 75.0625,76.0002887 C75.0625,76.796593 75.6227505,77.4502671 76.318714,77.4502671 C77.0042379,77.4502671 77.5625,76.796593 77.5625,76.0002887 C77.5625,75.2068717 77.0042379,74.5468457 76.318714,74.5468457 M76.3143009,78 C74.9247317,78 73.8125,77.0974448 73.8125,76.0002887 C73.8125,74.904865 74.9247317,74 76.3143009,74 C77.6858612,74 78.8125,74.904865 78.8125,76.0002887 C78.8125,77.0974448 77.6858612,78 76.3143009,78" id="Fill-83" fill="#69AEEB"></path>
                        <path d="M75.8200567,74.6056039 C75.2551053,74.6056039 74.8125,75.0144343 74.8125,75.4945871 C74.8125,75.9893865 75.2551053,76.3816599 75.8200567,76.3816599 C76.3677357,76.3816599 76.8125,75.9893865 76.8125,75.4945871 C76.8125,75.0144343 76.3677357,74.6056039 75.8200567,74.6056039 M75.8167463,77 C75.2664278,77 74.8125,76.3237105 74.8125,75.4945871 C74.8125,74.6705583 75.2664278,74 75.8167463,74 C76.3632431,74 76.8125,74.6705583 76.8125,75.4945871 C76.8125,76.3237105 76.3632431,77 75.8167463,77" id="Fill-84" fill="#FD2227"></path>
                        <polygon id="Fill-85" fill="#FD2227" points="75.9645 127 76.6605 127 76.6605 77 75.9645 77"></polygon>
                        <polygon id="Fill-86" fill="#FD2227" points="75.9645 75 76.6605 75 76.6605 68 75.9645 68"></polygon>
                    </g>
                    <g id="Group-62" transform="translate(39.429851, 142.000000) scale(-1, 1) translate(-39.429851, -142.000000) translate(8.929851, 76.000000)">
                        <g id="Group-3" transform="translate(0.000000, 0.377473)">
                            <mask id="mask-4" fill="white">
                                <use xlink:href="#path-3"></use>
                            </mask>
                            <g id="Clip-2"></g>
                            <path d="M25.8024371,26.8017529 C25.8024371,26.8017529 30.337897,21.3011479 33.3693758,18.3178767 C36.4003201,15.3351356 41.4584857,6.97264695 34.4997668,5.32781921 C27.545858,3.68352156 31.0481994,1.47098177 27.1316486,0.518964171 C23.2161666,-0.432523351 20.5048317,0.755378341 19.392078,3.57326562 C18.2787899,6.3911529 15.1291946,10.9121763 12.7337278,10.307889 C10.3393299,9.70148136 -1.57600643,7.53028754 0.174897034,18.6475844 C1.92954175,29.7659413 22.7779063,40.3849662 25.8024371,26.8017529" id="Fill-1" fill="#212957" mask="url(#mask-4)"></path>
                        </g>
                        <path d="M33.3492852,33.6408929 C33.3492852,33.6408929 36.342912,38.3350519 37.6481207,39.5054285 C38.9533295,40.6768594 36.3878112,41.2040561 33.8844208,40.7274703 C31.385207,40.2514117 28.7826208,40.1554619 29.0144258,37.7693699 C29.246753,35.3822234 32.6622233,32.4341397 33.3492852,33.6408929" id="Fill-4" fill="#CE895B"></path>
                        <path d="M33.6902917,36.3724042 C33.6902917,36.3724042 47.8737509,42.1346636 50.8380867,42.9555088 C53.8003703,43.7752996 50.6667319,44.588764 46.2915405,44.6035802 C41.9173753,44.6177598 29.871747,41.8473414 30.0010327,39.8413582 C30.1298053,37.8359021 30.514071,31.8184795 33.6902917,36.3724042" id="Fill-6" fill="#CE895B"></path>
                        <path d="M27.8068082,21.9722912 C28.7231848,20.6168686 32.3085149,30.3230862 33.8431632,33.3634293 C34.7966684,35.2507933 31.1661382,38.7550695 29.3269279,39.9786929 C28.324456,40.646651 21.1328101,31.8466845 27.8068082,21.9722912" id="Fill-8" fill="#E8A707"></path>
                        <path d="M11.1160329,43.2733029 C11.1160329,43.2733029 9.55633369,18.4992778 17.8736359,18.2778552 C18.6083838,18.2588762 24.4836333,17.1306753 28.5914425,21.8854619 C30.0314171,23.5529849 27.4412122,32.0666837 24.3158003,33.9081816 C24.1457805,34.008349 20.6972764,42.5636962 20.0592922,44.8485665 C19.1080561,48.2521481 11.1160329,43.2733029 11.1160329,43.2733029" id="Fill-10" fill="#FDBE22"></path>
                        <path d="M9.39507993,24.5706854 C9.39507993,24.5706854 0.340561928,33.6110536 0.0176312972,34.7134218 C-0.305818515,35.8147356 3.80869153,41.5922837 13.3818714,29.2295222 C18.6416949,22.4355389 9.39507993,24.5706854 9.39507993,24.5706854" id="Fill-12" fill="#CE895B"></path>
                        <path d="M25.757631,13.4807874 C26.6474371,10.5854234 23.453446,13.1681598 23.453446,13.1681598 C23.453446,13.1681598 22.9226339,17.1954151 21,19.4265113 C21.2452486,19.8029297 21.5264926,20.160369 21.8432521,20.4967205 C23.0507775,21.7699004 24.539067,22.4768711 26,22.6049799 C25.1749856,19.0326954 25.1749856,15.3813314 25.757631,13.4807874" id="Fill-14" fill="#CE895B"></path>
                        <path d="M23,15.939369 C23.2422129,16.7934276 23.6462093,17.5742059 24.2318654,18.2158042 C24.6275415,18.6502142 25.0736016,18.9902561 25.5580275,19.2396201 C25.3449356,16.8925406 25.4646553,14.778482 25.8492377,13.4805238 C26.7062277,10.5851598 23.630031,13.1684234 23.630031,13.1684234 C23.630031,13.1684234 23.4682475,14.4347498 23,15.939369" id="Fill-16" fill="#A4653C"></path>
                        <path d="M30,7.40721841 C30,7.40721841 29.7109112,11.4850845 28.4946856,13.2417038 C27.2801706,14.9967414 25.8204718,17.3111347 23.921723,16.1855699 C22.4021538,15.2872268 22.309212,12.2168335 22.0189829,10.7680971 C21.7395874,9.35784603 24.632756,9.3151431 24.8864927,5.12340251 C24.9788643,3.60823933 28.320206,7.89962008 30,7.40721841" id="Fill-18" fill="#CE895B"></path>
                        <path d="M5.97640189,35.7316494 L11.1368829,47.9937163 L14.8454661,52.7980594 L16,54.7107289 L15.693112,59.2593816 C15.693112,59.2593816 15.5010424,59.3342435 15.2724637,58.9109046 C15.2232558,58.820754 15.1941544,59.354277 15.1941544,59.354277 C15.1941544,59.354277 14.3412173,59.2688711 13.9507287,56.7973732 C13.9078702,56.5269213 13.7787656,57.869164 13.7787656,57.869164 C13.7787656,57.869164 13.577701,57.9767121 13.1385336,57.0483188 C12.9930264,56.7372728 13.0919713,56.2828293 12.8480482,55.8341849 C12.5967175,55.3665615 12.0236835,54.2610301 11.5924529,53.6858586 C11.1670426,53.1101598 10.6347506,52.7885699 9.99875159,51.8649213 C9.17385772,50.6660762 9.1394651,49.5900678 9.1394651,49.5900678 C9.1394651,49.5900678 3.27261249,41.5086703 1.68155677,38.7914987 C0.0894428156,36.0743272 -0.678306385,34.8749548 0.761950903,34.3282519 C2.20114996,33.7826033 5.97640189,35.7316494 5.97640189,35.7316494" id="Fill-20" fill="#CE895B"></path>
                        <line x1="10" y1="44.8662276" x2="6" y2="46.0919598" id="Stroke-22" stroke="#007991" stroke-width="0.962"></line>
                        <line x1="10" y1="45.6284485" x2="7" y2="47.0181389" id="Stroke-24" stroke="#FDBE22" stroke-width="0.962"></line>
                        <path d="M14.8330592,55.4881331 C14.8330592,55.4881331 14.8762336,57.4872628 14.9391447,58.5416561 L15,59.2596979 C15,59.2596979 14.8507401,59.3340326 14.6731086,58.9112209 L14.7236842,56.2177732 L14,54.2913967 L14.8330592,55.4881331 Z" id="Fill-26" fill="#EC9568"></path>
                        <path d="M13.409,57.8564059 C13.409,57.8564059 13.43,57.8574603 13.421,57.8458619 C13.413,57.8416444 13.421,57.8363724 13.421,57.8332092 L13.591,57.2785983 C13.507,57.5601213 13.409,57.8564059 13.409,57.8564059" id="Fill-28" fill="#EC9568"></path>
                        <path d="M13,54.6129339 L13.8239645,56.237754 C13.8239645,56.237754 13.775641,57.7998377 14,58.8726828 C13.775641,58.5126075 13.5320513,57.8878795 13.3732742,56.7976368 C13.3703156,56.7776033 13.3663708,56.768641 13.3629191,56.7654778 L13.474359,56.1186075 L13,54.6129339 Z" id="Fill-30" fill="#EC9568"></path>
                        <path d="M52.279266,43.1923989 C52.5126487,43.1428424 52.9771426,42.8302148 53.0980928,43.1249177 C53.2235856,43.4201478 52.8737956,43.6015035 52.6619909,43.734357 C52.4484826,43.8687922 52.2162357,43.9172943 51.5138163,44.0654365 C50.8125327,44.214106 51.3218861,44.283696 52.0118129,44.4782315 C52.2033583,44.531876 52.3938005,44.5955178 52.5794239,44.6591053 C52.8908988,44.4698072 53.2228016,44.2509637 53.2675875,44.1517913 C53.6415034,43.2914064 54,43.4079169 54,43.4079169 L54,43.4079169 L53.9820109,44.515557 L53.3336819,44.901741 C53.5243492,44.9516076 53.7013903,44.9820915 53.8589997,44.9774867 C53.924853,44.9755695 54.0060255,44.9600609 54.099492,44.9346918 C54.1787543,44.7597275 54.2933943,44.506242 54.3946518,44.281429 C54.6021158,43.8243495 55,43.8201319 55,43.8201319 L55,43.8201319 L54.564987,44.7770472 C55.1767295,44.5476056 55.9880891,44.20452 56.6209784,44.214106 C57.565298,44.2293947 56.5318273,44.6432441 55.8339507,45.004901 C55.1389133,45.3660307 55.1502702,46.0039386 52.5682971,45.9106248 C49.9846205,45.817311 47.8194427,45.026516 47.8194427,45.026516 C47.1295159,44.8330349 46.6951175,45.0939972 47.2589837,44.6674951 C47.8086537,44.2520642 48.4463392,43.8788089 48.7325311,43.7654616 C49.3145681,43.5350767 50.1856362,43.0832692 50.4809135,43.0743068 C50.7710803,43.0658717 52.0458834,43.2414282 52.279266,43.1923989 Z" id="Combined-Shape" fill="#CE895B" transform="translate(52.000000, 44.459918) scale(1, -1) rotate(-18.000000) translate(-52.000000, -44.459918) "></path>
                        <path d="M19.7098006,18.9015289 C19.7098006,18.9015289 21.8007634,24.3849013 14.7573051,29.9368092 C10.8099229,33.0483238 8,24.1998552 8,24.1998552 C8,24.1998552 18.3291111,15.4684243 19.7098006,18.9015289" id="Fill-38" fill="#E8A707"></path>
                        <path d="M48.0579504,95.6230343 L42,87.9707749 L43.5066189,85.0928084 L45.8616656,86.6322226 C45.8616656,86.6322226 51.0809083,97.4966912 48.0579504,95.6230343" id="Fill-40" fill="#F7B68B"></path>
                        <path d="M48.9574796,92.4789389 C48.8218145,92.4009138 48.4263652,95.8187297 42.1349684,86.3281356 L41,88.0357255 C41,88.0357255 45.3141501,94.8455247 50.3152852,96.8472904 C52.108951,97.5658594 49.9209905,94.6836753 48.9574796,92.4789389" id="Fill-42" fill="#212957"></path>
                        <g id="Group-46" transform="translate(45.000000, 122.687096)">
                            <mask id="mask-6" fill="white">
                                <use xlink:href="#path-5"></use>
                            </mask>
                            <g id="Clip-45"></g>
                            <path d="M0,2.03272194 L0.714115309,5.96087514 C0.714115309,5.96087514 10.0483713,9.45364322 14.5878531,7.03023264 C15.741192,6.41348191 14.3928659,5.67725591 11.5549988,4.60197846 C8.81613291,3.56275887 4.42037879,1.30403042 2.7127336,0.148564614 C1.00559095,-1.00797754 0,2.03272194 0,2.03272194" id="Fill-44" fill="#F7B68B" mask="url(#mask-6)"></path>
                        </g>
                        <path d="M46.8637357,86.3307188 L47.5729547,83.7980661 L46.4186835,82.9566603 L53.4541152,54.6614887 C53.4541152,54.6614887 56.658597,46.576928 47.539536,44.9268025 C35.7528142,42.7927105 20.3335329,42.4468695 20.3335329,42.4468695 C20.3335329,42.4468695 13.7102651,50.2852293 15.2252461,52.7598904 C19.0296732,58.9602502 44.2501813,56.2235724 44.2501813,56.2235724 C44.2501813,56.2235724 39.7089515,65.4331707 41.8716187,82.5559908 C42.3553941,86.3876561 42.4667898,86.9248695 42.4667898,86.9248695 L46.8637357,86.3307188 Z" id="Fill-47" fill="#FE635B"></path>
                        <path d="M20.3887106,42.1506904 C20.3887106,42.1506904 29.4866532,92.4215272 46.9822898,119.893218 C48.6985335,122.596682 49,123.338975 49,123.338975 L44.7223486,126.107285 L43.4339758,123.878824 C43.4339758,123.878824 25.7511126,103.357167 24.761562,98.973 C23.7704246,94.5877782 23.7471535,86.2997197 12.4976919,72.3806736 C1.24664363,58.4611004 10.6481683,43.095954 11.2659103,42.5318536 C11.8862966,41.9677531 20.3887106,42.1506904 20.3887106,42.1506904" id="Fill-49" fill="#FE635B"></path>
                        <path d="M15,43.1368644 C15,43.1368644 21.4645341,84.4648644 31.2522021,100.489007 C41.0398702,116.512622 47,125.06586 47,125.06586" id="Stroke-51" stroke="#FFFFFF" stroke-width="0.353"></path>
                        <path d="M19,43.3134753 C19,43.3134753 18.3697289,47.6275255 16,48.5153247" id="Stroke-53" stroke="#FFFFFF" stroke-width="0.353"></path>
                        <path d="M22,48.1982686 L49,50.5811975 C49,50.5811975 42.357722,78.5004778 44.004044,86.0704946" id="Stroke-55" stroke="#FFFFFF" stroke-width="0.353"></path>
                        <path d="M47,83.7982243 C47,83.7982243 45.5415309,83.7797724 43,84.2373791" id="Stroke-57" stroke="#FFFFFF" stroke-width="0.353"></path>
                        <g id="Group-61" transform="translate(45.000000, 126.377473)">
                            <mask id="mask-8" fill="white">
                                <use xlink:href="#path-7"></use>
                            </mask>
                            <g id="Clip-60"></g>
                            <path d="M-1,0.195748954 L-0.52300182,2.35799274 C-0.52300182,2.35799274 10.2947811,5.69202985 15.555739,3.37875264 C16.7001852,2.87479418 15.7025077,1.91105711 11.7566436,0.921120356 C12.937782,3.40392488 3.70882818,2.52135542 -1,0.195748954 Z" id="Fill-59" fill="#212957" mask="url(#mask-8)"></path>
                        </g>
                    </g>
                </g>
                <g id="Group-2" transform="translate(74.929851, 38.000000)" fill="#FFFFFF">
                    <rect id="Rectangle" x="11" y="8" width="22" height="2.5" rx="1.25"></rect>
                    <rect id="Rectangle-Copy-4" x="26" y="0" width="22" height="2.5" rx="1.25"></rect>
                    <rect id="Rectangle-Copy" x="0" y="16" width="9" height="2.5" rx="1.25"></rect>
                    <rect id="Rectangle-Copy-2" x="35" y="8" width="15" height="2.5" rx="1.25"></rect>
                    <rect id="Rectangle-Copy-5" x="50" y="0" width="15" height="2.5" rx="1.25"></rect>
                    <rect id="Rectangle-Copy-3" x="11" y="16" width="20" height="2.5" rx="1.25"></rect>
                </g>
                <path d="M108.929851,28.5 C105.699622,29.2012167 105.131068,29.7697707 104.429851,33 C103.728634,29.7697707 103.16008,29.2012167 99.9298511,28.5 C103.16008,27.7987833 103.728634,27.2302293 104.429851,24 C105.131068,27.2302293 105.699622,27.7987833 108.929851,28.5" id="Fill-21" fill="#FFC000"></path>
                <path d="M159.929851,48 C157.776365,48.4674778 157.397329,48.8465138 156.929851,51 C156.462373,48.8465138 156.083337,48.4674778 153.929851,48 C156.083337,47.5325222 156.462373,47.1534862 156.929851,45 C157.397329,47.1534862 157.776365,47.5325222 159.929851,48" id="Fill-21-Copy" fill="#FFC000"></path>
                <polygon id="Fill-62" fill="#9AC7F7" points="179.929851 119.799136 180.283462 117.886466 181.929851 118.301897 181.588543 120.199278"></polygon>
                <polygon id="Fill-63" fill="#9AC7F7" points="179.929851 114.661762 180.220102 112.721679 182.929851 112.928867 182.668404 114.859461"></polygon>
                <polygon id="Fill-64" fill="#9AC7F7" points="180.929851 109.460598 180.929851 107.510498 182.919655 107.510498 182.929851 109.460598"></polygon>
                <polygon id="Fill-65" fill="#9AC7F7" points="180.223537 104.237819 179.929851 102.301953 182.638368 102.105309 182.929851 104.031158"></polygon>
                <polygon id="Fill-66" fill="#9AC7F7" points="180.272242 99.0742444 179.929851 97.1557757 181.564815 96.7593238 181.929851 98.6598678"></polygon>
            </g>
        </g>
    </g>
</svg>