<?xml version="1.0" encoding="UTF-8"?>
<svg width="29px" height="24px" viewBox="0 0 29 24" version="1.1" xmlns="http://www.w3.org/2000/svg" xmlns:xlink="http://www.w3.org/1999/xlink">
    <!-- Generator: Sketch 63.1 (92452) - https://sketch.com -->
    <title>Group 39</title>
    <desc>Created with Sketch.</desc>
    <defs>
        <polygon id="path-1" points="0.69391371 0.530687903 1.71387097 0.530687903 1.71387097 12.8440347 0.69391371 12.8440347"></polygon>
    </defs>
    <g id="New" stroke="none" stroke-width="1" fill="none" fill-rule="evenodd">
        <g id="Facility_Look-up-Facility" transform="translate(-35.000000, -237.000000)">
            <g id="Group-3" transform="translate(35.000000, 237.000000)">
                <g id="Facility_icon" transform="translate(0.500000, 1.000000)">
                    <g id="Group-39" transform="translate(0.000000, 0.046751)">
                        <polyline id="Stroke-22" stroke="#FE635B" stroke-width="0.75" stroke-linecap="round" stroke-linejoin="round" points="11.5635282 21.6412194 11.5635282 18.9398323 8.9049879 18.5266669 8.9049879 21.1188968"></polyline>
                        <polyline id="Stroke-24" stroke="#FE635B" stroke-width="0.75" stroke-linecap="round" stroke-linejoin="round" points="18.9044048 21.1192028 18.9044048 18.526973 16.2468847 18.9391181 16.2468847 21.6415254"></polyline>
                        <line x1="6.73316653" y1="5.33853185" x2="0.510182661" y2="6.12405605" id="Stroke-28" stroke="#FFB1AD" stroke-width="0.75" stroke-linecap="round" stroke-linejoin="round"></line>
                        <line x1="6.73316653" y1="20.6300355" x2="0.510182661" y2="19.3252492" id="Stroke-30" stroke="#FFB1AD" stroke-width="0.75" stroke-linecap="round" stroke-linejoin="round"></line>
                        <line x1="0.511610887" y1="6.1275246" x2="0.511610887" y2="19.3273915" id="Stroke-32" stroke="#FFB1AD" stroke-width="0.75" stroke-linecap="round" stroke-linejoin="round"></line>
                        <polyline id="Stroke-34" stroke="#FFB1AD" stroke-width="0.75" stroke-linecap="round" stroke-linejoin="round" points="21.0767363 20.6300355 22.6681879 20.2944024 26.2591556 19.5394831 27.7281879 19.2334347"></polyline>
                        <polygon id="Stroke-26" stroke="#FE5D55" stroke-width="0.75" stroke-linecap="round" stroke-linejoin="round" points="21.0767363 1.57372863 21.0767363 20.6303415 13.9050024 22.2115915 6.73326855 20.6303415 6.73326855 1.57372863 13.9050024 0.00268024194"></polygon>
                        <g id="Group-38" transform="translate(26.524194, 6.399194)">
                            <mask id="mask-2" fill="white">
                                <use xlink:href="#path-1"></use>
                            </mask>
                            <g id="Clip-37"></g>
                            <polyline id="Stroke-36" stroke="#FFB1AD" stroke-linecap="round" stroke-linejoin="round" mask="url(#mask-2)" points="1.20399435 12.8440347 1.20399435 12.8338331 1.20399435 11.9973008 1.20399435 10.752704 1.20399435 9.91617177 1.20399435 8.69197823 1.20399435 7.85442581 1.20399435 6.64145403 1.20399435 5.825325 1.20399435 4.61133306 1.20399435 3.79520403 1.20399435 2.57101048 1.20399435 1.75488145 1.20399435 0.530687903"></polyline>
                        </g>
                    </g>
                </g>
            </g>
        </g>
    </g>
</svg>