<svg width="15" height="12" viewBox="0 0 15 12" fill="none" xmlns="http://www.w3.org/2000/svg">
<path d="M12.7988 0.84082C13.0449 0.84082 13.2734 0.887695 13.4844 0.981445C13.7012 1.06934 13.8887 1.19238 14.0469 1.35059C14.2051 1.50879 14.3281 1.69629 14.416 1.91309C14.5098 2.12402 14.5566 2.35254 14.5566 2.59863C14.5566 2.83301 14.5127 3.05859 14.4248 3.27539C14.3369 3.49219 14.2109 3.68262 14.0469 3.84668L7.06836 10.834C6.9043 10.998 6.71387 11.127 6.49707 11.2207C6.28027 11.3086 6.05469 11.3525 5.82031 11.3525C5.58594 11.3525 5.36035 11.3086 5.14355 11.2207C4.92676 11.127 4.73633 10.998 4.57227 10.834L1.39062 7.65234C1.22656 7.48828 1.09766 7.29785 1.00391 7.08105C0.916016 6.86426 0.87207 6.63867 0.87207 6.4043C0.87207 6.1582 0.918945 5.92969 1.0127 5.71875C1.10645 5.50195 1.23242 5.31445 1.39062 5.15625C1.54883 4.99805 1.7334 4.875 1.94434 4.78711C2.16113 4.69336 2.39258 4.64648 2.63867 4.64648C2.87305 4.64648 3.09863 4.69043 3.31543 4.77832C3.53223 4.86621 3.72266 4.99219 3.88672 5.15625L5.82031 7.08984L11.5508 1.35059C11.7148 1.18652 11.9053 1.06055 12.1221 0.972656C12.3389 0.884766 12.5645 0.84082 12.7988 0.84082Z" fill="#2A8293"/>
</svg>
