<?xml version="1.0" encoding="UTF-8"?>
<svg width="32px" height="27px" viewBox="0 0 32 27" version="1.1" xmlns="http://www.w3.org/2000/svg" xmlns:xlink="http://www.w3.org/1999/xlink">
    <!-- Generator: Sketch 63.1 (92452) - https://sketch.com -->
    <title>Group 8</title>
    <desc>Created with Sketch.</desc>
    <defs>
        <polygon id="path-1" points="0.0155874495 0.00242027702 19.9894433 0.00242027702 19.9894433 26.4807692 0.0155874495 26.4807692"></polygon>
    </defs>
    <g id="New" stroke="none" stroke-width="1" fill="none" fill-rule="evenodd">
        <g id="Pass" transform="translate(-104.000000, -368.000000)">
            <g id="Group-6" transform="translate(37.000000, 290.000000)">
                <g id="Time" transform="translate(67.000000, 77.000000)">
                    <g id="Group-8" transform="translate(0.500000, 0.933333)">
                        <path d="M24.2192247,8.04836307 C23.582906,7.71005581 22.9065316,7.44925248 22.2088984,7.27319495 C21.4906339,7.09192328 20.7474573,7 20,7 C18.785233,7 17.6065306,7.23803172 16.4966419,7.70746483 C15.4248777,8.16078884 14.4624335,8.80965902 13.6360398,9.6360512 C12.8096462,10.4624434 12.1607909,11.4248859 11.7074661,12.4966643 C11.2380321,13.6065187 11,14.7852352 11,16.0000161 C11,17.2147809 11.2380321,18.3934813 11.7074661,19.5033518 C12.1607909,20.5751302 12.8096462,21.5375727 13.6360398,22.3639649 C14.4624335,23.1903571 15.4248777,23.8392112 16.4966419,24.2925352 C17.6065306,24.7619683 18.785233,25 20,25 C21.2147992,25 22.3934855,24.7619683 23.5033742,24.2925352 C24.5751384,23.8392112 25.5375826,23.1903571 26.3639602,22.3639649 C27.1903538,21.5375727 27.8392252,20.5751302 28.2925339,19.5033518 C28.7619839,18.3934813 29,17.2147809 29,16.0000161 C29,14.785203 28.7619839,13.6064866 28.29255,12.4966482 C28.1886694,12.2510688 27.9053837,12.1362291 27.6598361,12.2400773 C27.4142563,12.3439416 27.2993842,12.6272108 27.4032647,12.8727901 C27.82207,13.862977 28.0344176,14.9151219 28.0344176,16.0000161 C28.0344176,20.4301966 24.4301884,24.0344194 20,24.0344194 C15.5698116,24.0344194 11.9655824,20.4301966 11.9655824,16.0000161 C11.9655824,11.5698195 15.5698116,7.96558063 20,7.96558063 C21.3127575,7.96558063 22.6149901,8.28903404 23.7659482,8.90093858 C24.0014216,9.02612611 24.2937194,8.93669725 24.418875,8.70128869 C24.5440466,8.46584795 24.4546659,8.17351841 24.2192247,8.04836307" id="Fill-1" fill="#FE635B"></path>
                        <path d="M10.5410047,13.5434714 C10.560433,13.2840596 10.4685472,13.0430179 10.3357883,13.0050753 C10.2030374,12.9670694 10.0796403,13.1466244 10.0602119,13.4060045 C9.89871941,15.5622155 10.0635566,17.7476983 10.5368906,19.7262055 C10.5781526,19.8987036 10.6657218,20 10.757146,20 C10.7915971,20 10.8265989,19.9856014 10.8598676,19.9552378 C10.9814182,19.8442264 11.0339047,19.5616978 10.9770855,19.3242161 C10.5441064,17.514378 10.393312,15.515428 10.5410047,13.5434714" id="Fill-3" fill="#FE635B"></path>
                        <g id="Group-7" transform="translate(11.000000, 0.000000)">
                            <mask id="mask-2" fill="white">
                                <use xlink:href="#path-1"></use>
                            </mask>
                            <g id="Clip-6"></g>
                            <path d="M18.1416413,7.20801112 L18.5827377,7.70364182 L17.5060266,8.64274788 C17.3655724,8.47166165 17.2200752,8.30504055 17.0696132,8.14299313 L18.1416413,7.20801112 Z M11.8887518,5.00829331 L11.2888614,4.86181187 L11.663646,3.35753983 L12.2635364,3.50400577 L11.8887518,5.00829331 Z M4.58845419,5.50317982 L4.08713861,4.20421126 L4.77431167,3.94433383 L5.27349726,5.23778297 C5.23341895,5.25181406 5.1933563,5.26600019 5.15338763,5.28049639 C4.96286296,5.34962857 4.77453093,5.42395457 4.58845419,5.50317982 L4.58845419,5.50317982 Z M10.4959248,1.030612 L14.3903336,1.98143906 L14.1358152,3.0030107 L11.5631919,2.37489864 L11.4324792,2.34299148 L11.4324636,2.34297598 L10.2414064,2.05218365 L10.4959248,1.030612 Z M19.8516022,13.8280794 C19.6265121,12.4324901 19.1363477,11.1089013 18.3947502,9.89408826 C18.2903962,9.72315706 18.181657,9.55571426 18.0688927,9.3915893 L19.5564886,8.09415564 C19.751195,7.92434073 19.7699734,7.6304321 19.5984307,7.43768683 L18.5361128,6.24408321 C18.4537478,6.15150905 18.3376006,6.09513664 18.213231,6.08735365 C18.0887987,6.07958616 17.9664652,6.12101275 17.8729804,6.2025481 L16.4032232,7.48443128 C16.1329334,7.23936013 15.8497698,7.00698673 15.5539045,6.78803976 C14.7035677,6.1587339 13.7758465,5.65984737 12.7844761,5.2977523 L13.1758935,3.72675121 L14.3669663,4.01755905 C14.404758,4.02679941 14.442581,4.03120254 14.4798403,4.03120254 C14.6909444,4.03120254 14.8828473,3.88934128 14.9356586,3.67735559 L15.4152044,1.75261607 C15.4450399,1.63284795 15.4256038,1.50624259 15.3611558,1.4006761 C15.2967079,1.29509411 15.1925262,1.21918671 15.0715395,1.18965166 L10.2647737,0.0160636563 C10.0128238,-0.0454560699 9.75821143,0.106870369 9.69608144,0.356267122 L9.21653563,2.28100664 C9.18670008,2.40077476 9.20613626,2.52738012 9.27058418,2.63294661 C9.33503211,2.7385286 9.43921378,2.814436 9.56020047,2.84397105 L10.751289,3.13477889 L10.3597619,4.70627611 C8.95752232,4.52518982 7.54054503,4.61252364 6.17402976,4.96466516 L5.48444479,3.1778644 C5.39183712,2.93789406 5.12027878,2.81767633 4.87785121,2.90936677 L3.31287079,3.50123056 C3.19645732,3.54524631 3.10248708,3.63324681 3.05161785,3.7458676 C3.00074863,3.85848839 2.9971621,3.9864736 3.04164135,4.10171456 L3.73885356,5.90829838 C3.26214252,6.16078042 2.80389663,6.44761924 2.36778074,6.76738849 C1.50881441,7.3972525 0.749080658,8.14407841 0.109722788,8.98712191 C-0.0460798747,9.19254942 -0.00413782302,9.48411696 0.203379796,9.63833488 C0.410897416,9.79259931 0.70543148,9.7510642 0.861218481,9.54563668 C1.83767894,8.25807905 3.08441347,7.25286409 4.48151605,6.57208506 C4.48635552,6.57044164 4.49121065,6.56879822 4.49603446,6.56698426 C4.52720125,6.55520124 4.55634769,6.54042597 4.58331715,6.52321657 C5.03583085,6.30893629 5.50363038,6.12836163 5.98278465,5.9830895 C6.00734221,5.97808172 6.03179013,5.97113594 6.05597181,5.9619886 C6.0583054,5.96110488 6.06056069,5.96009712 6.06287862,5.95918238 C7.75097572,5.46251292 9.57590916,5.40170638 11.3637557,5.83820496 L11.363787,5.83822046 C16.7718684,7.158631 20.0865121,12.5883515 18.7526829,17.9419785 C17.4188379,23.2955901 11.9338731,26.5767868 6.52577604,25.2564538 C5.38428818,24.9777546 4.31407674,24.5125271 3.34486766,23.8736708 C3.12886139,23.7312669 2.83717776,23.7892207 2.69337197,24.0030204 C2.54955051,24.2168356 2.60806265,24.5055969 2.82405325,24.6479543 C3.88386531,25.3465318 5.05360689,25.8551238 6.30076429,26.1596217 C7.1771621,26.3736074 8.06327016,26.4807708 8.95028661,26.4807708 C9.52784338,26.4807708 10.1058543,26.4352977 10.6815474,26.3443049 C12.0913359,26.1214819 13.4283915,25.6362544 14.6555489,24.9021262 C15.882722,24.1679981 16.9383681,23.2218377 17.7931997,22.0899089 C18.6783681,20.9177937 19.308141,19.5971816 19.6650399,18.164724 C20.0219389,16.7322818 20.0846954,15.2732193 19.8516022,13.8280794 L19.8516022,13.8280794 Z" id="Fill-5" fill="#FE635B" mask="url(#mask-2)"></path>
                        </g>
                        <path d="M17.7878123,13.5374127 C17.6084082,13.3352325 17.3166115,13.3341659 17.1360245,13.5350902 C16.9554682,13.7359973 16.9545464,14.0627853 17.1339505,14.2649827 L20.3128044,17.8476595 C20.3144175,17.8494659 20.3160767,17.8511175 20.3176897,17.8528895 C20.3193642,17.8547131 20.3209466,17.8566227 20.3226365,17.8584119 C20.3238655,17.8597194 20.3251559,17.8609237 20.3263849,17.862214 C20.3292424,17.8651903 20.3321305,17.8680805 20.3350341,17.8709536 C20.3378454,17.8737406 20.3406875,17.8764932 20.3435449,17.879177 C20.3466482,17.8821017 20.3497821,17.8849576 20.3529468,17.8877618 C20.3557428,17.8902908 20.3585695,17.8927509 20.3614116,17.8951767 C20.3646377,17.8979293 20.36791,17.9006303 20.3711822,17.9032625 C20.3740857,17.905585 20.3769739,17.9078559 20.3799235,17.9101096 C20.3832111,17.9126386 20.3865294,17.9151332 20.3898784,17.9175589 C20.3928895,17.9197438 20.3959313,17.9218771 20.3989885,17.9239588 C20.4023068,17.9262297 20.4056097,17.9284834 20.4089741,17.9306511 C20.4121695,17.9327156 20.4153803,17.9347284 20.4185911,17.9367069 C20.4218787,17.9387025 20.4251509,17.9406982 20.4284692,17.942625 C20.4318644,17.9445863 20.4353056,17.9464615 20.4387621,17.9483539 C20.4419422,17.9500571 20.4451223,17.9517947 20.448333,17.9534291 C20.451974,17.9553043 20.4556303,17.9570419 20.4593019,17.9587967 C20.4624051,17.9602762 20.465493,17.9617557 20.4685963,17.9631493 C20.4724523,17.9648868 20.4763544,17.9664868 20.4802411,17.9680868 C20.4832214,17.9693083 20.4861864,17.9705813 20.4891975,17.971734 C20.4932839,17.9733168 20.4974164,17.9747791 20.501549,17.9762242 C20.5043911,17.9772048 20.5072331,17.9782543 20.5100752,17.9792005 C20.5144074,17.9806112 20.5187858,17.9818843 20.5231488,17.9831574 C20.5258679,17.9839488 20.5285564,17.9847918 20.5312756,17.9855315 C20.5358229,17.986753 20.5404009,17.9878368 20.544979,17.9889035 C20.5475445,17.9894884 20.5501101,17.9901594 20.552691,17.9907099 C20.5574226,17.9917249 20.5622004,17.9925851 20.5669782,17.9934453 C20.5694208,17.9938754 20.5718635,17.9943743 20.5743061,17.99477 C20.579345,17.9955786 20.5843993,17.9961979 20.589469,17.9968173 C20.5916505,17.9970753 20.5938166,17.9974366 20.5960134,17.9976603 C20.6016208,17.9982452 20.6072281,17.9986409 20.6128662,17.9990194 C20.6145253,17.9991226 20.6161691,17.9993118 20.6178436,17.9993979 C20.6251101,17.9997936 20.632392,18 20.6396739,18 L20.6397199,18 L20.639766,18 C20.647263,18 20.6547599,17.9997763 20.6622415,17.9993635 C20.6640082,17.9992774 20.6657441,17.999071 20.6674801,17.9989506 C20.6732411,17.9985721 20.679002,17.998142 20.6847476,17.9975054 C20.6869906,17.9972646 20.6892181,17.9969033 20.6914611,17.9966108 C20.6966997,17.9959571 20.7019076,17.9952861 20.7071155,17.9944431 C20.709635,17.9940302 20.7121391,17.9934797 20.7146586,17.9930152 C20.7195746,17.9921378 20.7244752,17.991226 20.7293605,17.9901422 C20.7320336,17.98954 20.7347067,17.9888347 20.7373798,17.9881981 C20.7420654,17.9870627 20.7467356,17.9859272 20.7513905,17.9846369 C20.7542172,17.9838455 20.7570132,17.9829509 20.7598245,17.9821079 C20.7642797,17.9807488 20.7687348,17.9794241 20.7731592,17.9779102 C20.7761396,17.9769296 20.7790738,17.9757941 20.7820081,17.9747447 C20.7862328,17.9732135 20.7904421,17.9716996 20.7946207,17.9700136 C20.7977393,17.9687749 20.8007965,17.967433 20.8038844,17.9661255 C20.8078633,17.9644395 20.8118422,17.9627536 20.815775,17.9609127 C20.8189858,17.9594332 20.8221658,17.9578505 20.8253459,17.9562849 C20.829079,17.9544441 20.8328275,17.9526033 20.8365298,17.9506248 C20.8398482,17.9488872 20.8431204,17.9470292 20.846408,17.9451884 C20.8498953,17.9432271 20.8533979,17.9412487 20.8568699,17.939167 C20.860265,17.937137 20.8636294,17.9350037 20.8669938,17.9328876 C20.870266,17.9308059 20.8735229,17.9287071 20.8767644,17.9265222 C20.880221,17.9241996 20.8836315,17.9218083 20.8870266,17.9193825 C20.8901145,17.9171804 20.893187,17.9149611 20.8962442,17.9126558 C20.8996854,17.9100752 20.9030959,17.9074258 20.906491,17.9046904 C20.9094099,17.9023851 20.9123288,17.9000282 20.9152016,17.8976024 C20.9185967,17.8947638 20.9219457,17.8918563 20.9252794,17.8889144 C20.9281368,17.8863855 20.9309636,17.8838393 20.9337749,17.8812071 C20.9370011,17.8781964 20.9401965,17.8751685 20.9433612,17.8720374 C20.9462186,17.8692504 20.9490299,17.8663945 20.9518413,17.8634871 C20.9548216,17.8603904 20.957802,17.8572765 20.9607362,17.8540766 C20.9620113,17.852683 20.9633325,17.85141 20.9645922,17.8499992 C20.9662667,17.848124 20.9678337,17.8461628 20.9694775,17.8442875 C20.9710445,17.8424811 20.9726576,17.8408124 20.9741938,17.8389887 L26.8735747,10.871239 C27.0486927,10.6643965 27.0409346,10.337729 26.8562304,10.1416046 C26.6715108,9.94544574 26.379791,9.95416812 26.204673,10.1610278 L20.6319926,16.7428941 L17.7878123,13.5374127 Z" id="Fill-8" fill="#FE635B"></path>
                        <path d="M5,11.5 C5,11.2238667 4.79097742,11 4.53315386,11 L1.46684614,11 C1.20900702,11 1,11.2238667 1,11.5 C1,11.7761333 1.20900702,12 1.46684614,12 L4.53315386,12 C4.79097742,12 5,11.7761333 5,11.5" id="Fill-10" fill="#FE635B"></path>
                        <path d="M10,11.5 C10,11.2238667 9.84625774,11 9.65662092,11 L9.34337908,11 C9.15373081,11 9,11.2238667 9,11.5 C9,11.7761333 9.15373081,12 9.34337908,12 L9.65662092,12 C9.84625774,12 10,11.7761333 10,11.5" id="Fill-12" fill="#FE635B"></path>
                        <path d="M6.53315386,16 L3.46684614,16 C3.20900702,16 3,16.2238667 3,16.5 C3,16.7761333 3.20900702,17 3.46684614,17 L6.53315386,17 C6.79097742,17 7,16.7761333 7,16.5 C7,16.2238667 6.79097742,16 6.53315386,16" id="Fill-14" fill="#FE635B"></path>
                        <path d="M0.656620921,16 L0.343379079,16 C0.153730814,16 0,16.2238667 0,16.5 C0,16.7761333 0.153730814,17 0.343379079,17 L0.656620921,17 C0.84625774,17 1,16.7761333 1,16.5 C1,16.2238667 0.84625774,16 0.656620921,16" id="Fill-16" fill="#FE635B"></path>
                        <path d="M4.56085136,22 L3.43914864,22 C3.19662148,22 3,22.2238667 3,22.5 C3,22.7761333 3.19662148,23 3.43914864,23 L4.56085136,23 C4.80337852,23 5,22.7761333 5,22.5 C5,22.2238667 4.80337852,22 4.56085136,22" id="Fill-18" fill="#FE635B"></path>
                        <path d="M10.6465876,22 L8.35341239,22 C8.15823451,22 8,22.2238667 8,22.5 C8,22.7761333 8.15823451,23 8.35341239,23 L10.6465876,23 C10.8417655,23 11,22.7761333 11,22.5 C11,22.2238667 10.8417655,22 10.6465876,22" id="Fill-20" fill="#FE635B"></path>
                        <path d="M8.56774454,7 L10.4322555,7 C10.7458208,7 11,6.77613333 11,6.5 C11,6.22386667 10.7458208,6 10.4322555,6 L8.56774454,6 C8.25419816,6 8,6.22386667 8,6.5 C8,6.77613333 8.25419816,7 8.56774454,7" id="Fill-22" fill="#FE635B"></path>
                        <path d="M5.34337908,7 L5.65662092,7 C5.84626919,7 6,6.77613333 6,6.5 C6,6.22386667 5.84626919,6 5.65662092,6 L5.34337908,6 C5.15374226,6 5,6.22386667 5,6.5 C5,6.77613333 5.15374226,7 5.34337908,7" id="Fill-24" fill="#FE635B"></path>
                    </g>
                </g>
            </g>
        </g>
    </g>
</svg>