<?xml version="1.0" encoding="UTF-8"?>
<svg width="40px" height="21px" viewBox="0 0 40 21" version="1.1" xmlns="http://www.w3.org/2000/svg" xmlns:xlink="http://www.w3.org/1999/xlink">
    <!-- Generator: Sketch 63.1 (92452) - https://sketch.com -->
    <title>Status / Working from home</title>
    <desc>Created with Sketch.</desc>
    <g id="New" stroke="none" stroke-width="1" fill="none" fill-rule="evenodd">
        <g id="Homepage_WFHa" transform="translate(-161.000000, -143.000000)" fill="#FFFFFF">
            <g id="Group-3" transform="translate(147.000000, 121.000000)">
                <g id="Couch" transform="translate(13.481481, 21.666667)">
                    <g id="Group-7" transform="translate(0.518519, 0.333333)">
                        <g id="Status-/-Working-from-home" transform="translate(0.000025, 0.014177)">
                            <path d="M39.2403712,16.2949198 C39.2403712,17.0287531 38.638833,17.6257119 37.8993704,17.6257119 L1.99632696,17.6257119 C1.25686436,17.6257119 0.65507948,17.0287531 0.65507948,16.2949198 L0.65507948,3.5844465 C1.54060877,3.62264403 2.39924402,3.81534568 3.21223343,4.15936831 C4.08419233,4.52861111 4.86633996,5.05309259 5.53647023,5.71836626 C6.45407497,6.62996502 7.11408914,7.76413786 7.44569999,8.9989465 C7.61051848,9.61206584 7.6941614,10.2474671 7.6941614,10.8877654 L7.6941614,11.1201337 L5.80491711,11.1201337 C4.84314694,11.1201337 4.06050584,11.8968169 4.06050584,12.8512654 L4.06050584,13.2043477 C4.06050584,14.1587963 4.84314694,14.9354794 5.80491711,14.9354794 L18.9156359,14.9354794 C18.9494385,14.9354794 18.9827476,14.9342551 19.0160567,14.9322963 C19.0266663,14.9318066 19.0370291,14.9308272 19.0476387,14.9298477 C19.0703383,14.9281337 19.0927911,14.9261749 19.1154906,14.9237263 C19.1273339,14.9225021 19.1391771,14.9207881 19.1512671,14.9190741 C19.1724863,14.9163807 19.1934587,14.9129527 19.2144311,14.9095247 C19.2260276,14.907321 19.2376241,14.905607 19.2492206,14.9031584 C19.2721669,14.898751 19.2946197,14.8938539 19.3170725,14.8884671 C19.3262017,14.8865082 19.3353309,14.8845494 19.3442133,14.8823457 C19.3753018,14.8745103 19.4061436,14.8659403 19.4364919,14.8563909 C19.4419201,14.8549218 19.4473482,14.8527181 19.4527764,14.851249 C19.4776965,14.8431687 19.50237,14.8345988 19.5270434,14.8255391 C19.5374062,14.8216214 19.5472756,14.8174588 19.5573917,14.8135412 C19.5771305,14.8057058 19.5966225,14.7978704 19.6158677,14.7893004 C19.626724,14.7846481 19.6373336,14.7799959 19.6479432,14.7748539 C19.6669417,14.766284 19.6856935,14.7569794 19.7041986,14.7476749 C19.714068,14.7427778 19.7239373,14.7378807 19.73356,14.7327387 C19.7550259,14.7212305 19.776245,14.7094774 19.7972174,14.6972346 C19.8033858,14.6935617 19.8098009,14.6901337 19.8157225,14.6864609 C19.8426165,14.6705453 19.8690171,14.6536502 19.8949242,14.6362654 C19.901586,14.631858 19.9077544,14.6269609 19.9144162,14.6223086 C19.9336615,14.6090864 19.95266,14.5953745 19.9711651,14.5811728 C19.9800475,14.5748066 19.9886832,14.5677058 19.9973189,14.5608498 C20.0133566,14.5483621 20.0293944,14.5353848 20.0451854,14.5221626 C20.0538211,14.514572 20.0624568,14.5072263 20.0713392,14.4996358 C20.0871302,14.485679 20.1024277,14.4714774 20.1177252,14.4570309 C20.125374,14.44993 20.1330228,14.4430741 20.1401781,14.4357284 C20.1599168,14.4163848 20.1791621,14.3967963 20.1979139,14.3767181 C20.2003812,14.3740247 20.2028486,14.3715761 20.2053159,14.3688827 C20.2262883,14.3458663 20.2467673,14.3223601 20.266506,14.2983642 L20.2707005,14.2932222 C20.2751417,14.2878354 20.2793362,14.2819588 20.2837774,14.2763272 C20.2975945,14.2591872 20.3109182,14.2418025 20.3239951,14.2241728 C20.3267092,14.2205 20.32967,14.2168272 20.3323841,14.2131543 C20.3350981,14.217072 20.3383057,14.2205 20.3410198,14.2241728 C20.3540967,14.2418025 20.3674203,14.2591872 20.3809907,14.2760823 C20.3869123,14.283428 20.3925872,14.2910185 20.3985088,14.2983642 C20.4182476,14.3223601 20.4384798,14.3458663 20.4594522,14.3686379 C20.4621663,14.3715761 20.4648804,14.3740247 20.4673477,14.376963 C20.4860995,14.3970412 20.505098,14.4166296 20.52459,14.4357284 C20.5319921,14.4430741 20.5396408,14.44993 20.5472896,14.4570309 C20.5625871,14.4714774 20.5778846,14.485679 20.5936756,14.4996358 C20.6023113,14.5072263 20.6111938,14.514572 20.6198295,14.5219177 C20.6356205,14.5353848 20.6516582,14.5483621 20.6676959,14.5608498 C20.6763316,14.5679506 20.6849673,14.5748066 20.6938498,14.5811728 C20.7123548,14.5953745 20.7313534,14.6090864 20.7505986,14.6223086 C20.7570137,14.6269609 20.7634288,14.631858 20.7700906,14.6362654 C20.7959977,14.6536502 20.8223983,14.6705453 20.8490456,14.6867058 C20.855214,14.6901337 20.8613823,14.6933169 20.8673039,14.6969897 C20.8885231,14.7092325 20.9097422,14.7212305 20.9314549,14.7327387 C20.9410775,14.7378807 20.9509469,14.7427778 20.9605695,14.7476749 C20.9793213,14.7569794 20.9980731,14.766284 21.0170716,14.7748539 C21.0276812,14.7799959 21.0382908,14.7846481 21.0489004,14.7893004 C21.0683924,14.7978704 21.0878844,14.8057058 21.1078699,14.8135412 C21.1177392,14.8174588 21.1278553,14.8216214 21.1379714,14.8255391 C21.1623981,14.8345988 21.187565,14.8431687 21.2127319,14.851249 C21.2179133,14.852963 21.2230948,14.8549218 21.2285229,14.8563909 C21.2588712,14.8659403 21.289713,14.8745103 21.3210483,14.8823457 C21.329684,14.8845494 21.3388131,14.8865082 21.3476956,14.8884671 C21.3701484,14.8938539 21.3928479,14.898751 21.4157942,14.9031584 C21.4273907,14.905607 21.4389872,14.907321 21.450337,14.9095247 C21.4713094,14.9129527 21.4925286,14.9163807 21.5139945,14.9190741 C21.5258377,14.9207881 21.5376809,14.9225021 21.5495242,14.9237263 C21.5722237,14.9261749 21.5946766,14.9281337 21.6173761,14.9298477 C21.6279857,14.9308272 21.6383485,14.9318066 21.6489581,14.9322963 C21.6822672,14.9342551 21.7155764,14.9354794 21.7491322,14.9354794 L34.8591108,14.9354794 C35.820881,14.9354794 36.6032753,14.1587963 36.6032753,13.2043477 L36.6032753,12.8512654 C36.6032753,11.8968169 35.820881,11.1201337 34.8591108,11.1201337 L32.2017827,11.1201337 L32.2017827,10.8877654 C32.2017827,10.2474671 32.2854256,9.61206584 32.4504909,8.99870165 C33.0290827,6.8447037 34.6111428,5.03595267 36.6827238,4.16034774 L36.6898791,4.15740947 C37.5001544,3.81485597 38.356569,3.62239918 39.2403712,3.5844465 L39.2403712,16.2949198 Z M3.66893856,1.47036008 C3.66893856,1.01811111 4.03953343,0.650092593 4.49549835,0.650092593 L35.400199,0.650092593 C35.8559172,0.650092593 36.2267588,1.01811111 36.2267588,1.47036008 L36.2267588,3.64957819 C36.1685295,3.67602263 36.1110405,3.7034465 36.0537981,3.73136008 C36.0439287,3.73601235 36.0338126,3.74066461 36.0239433,3.74556173 C35.9711421,3.77151646 35.9185877,3.79845062 35.8662801,3.82562963 C35.8522162,3.83273045 35.8381524,3.83958642 35.8243352,3.8469321 C35.7744949,3.87337654 35.7249013,3.9003107 35.6758012,3.92773457 C35.6597635,3.93654938 35.6437258,3.94487449 35.627688,3.95393416 C35.5800683,3.98086831 35.5326953,4.00853704 35.4855691,4.03645062 C35.4685444,4.04648971 35.4517665,4.05603909 35.4349886,4.06607819 C35.3886025,4.09374691 35.34271,4.12239506 35.2970641,4.15128807 C35.2797927,4.16206173 35.2625213,4.17234568 35.2454967,4.1833642 C35.2003443,4.2122572 35.1556854,4.24163992 35.1110265,4.27151235 C35.0940018,4.28277572 35.0767304,4.29403909 35.0599525,4.30554733 C35.015787,4.33541975 34.9721151,4.36602675 34.9286899,4.3968786 C34.9119119,4.40887654 34.8946405,4.42062963 34.8776159,4.43287243 C34.8349308,4.46372428 34.7924925,4.4953107 34.7500542,4.52689712 C34.7330296,4.53962963 34.7162516,4.55211728 34.6994737,4.56484979 C34.6572822,4.59692593 34.6160775,4.62949177 34.5746262,4.66230247 C34.558095,4.67527984 34.5415638,4.6882572 34.5250326,4.70147942 C34.4840747,4.73477984 34.4436103,4.7683251 34.4031459,4.80211523 C34.3871081,4.81582716 34.3708237,4.82904938 34.3547859,4.84276132 C34.3145683,4.87704115 34.274844,4.9118107 34.2353666,4.9468251 C34.2198223,4.96078189 34.2040313,4.97449383 34.188487,4.98845062 C34.1492563,5.02395473 34.1102723,5.05994856 34.0717817,5.09618724 C34.056731,5.11014403 34.0416802,5.12410082 34.0266294,5.13854733 C33.9881388,5.17503086 33.9501417,5.21200412 33.9123914,5.24946708 C33.8978341,5.26391358 33.8832768,5.27811523 33.8687194,5.29256173 C33.8312158,5.3305144 33.793959,5.36871193 33.7571955,5.40715432 C33.7433784,5.42160082 33.7295613,5.43629218 33.7157442,5.45073868 C33.6787341,5.48991564 33.6424641,5.52933745 33.6064409,5.56924897 C33.5931173,5.58369547 33.5800403,5.59814198 33.5669634,5.61307819 C33.5309402,5.65323457 33.4954105,5.69412551 33.4601275,5.73501646 C33.447544,5.74970782 33.4352073,5.76415432 33.4228706,5.77884568 C33.3875876,5.82047119 33.3527981,5.86258642 33.318502,5.9049465 C33.3069055,5.919393 33.2950623,5.93383951 33.2834658,5.94828601 C33.2491697,5.99138066 33.2151204,6.03472016 33.1815645,6.07854938 C33.1704615,6.09275103 33.1598519,6.10695267 33.1492423,6.12139918 C33.1154397,6.16571811 33.0821306,6.21052675 33.0493149,6.2558251 C33.0391988,6.26978189 33.0293295,6.28373868 33.0194601,6.29769547 C32.9866444,6.3437284 32.9540755,6.39000617 32.9222468,6.43677366 C32.9128709,6.44999588 32.9039885,6.46370782 32.8948593,6.4771749 C32.8627838,6.52467695 32.8309551,6.57266872 32.7998666,6.62090535 C32.7917244,6.63363786 32.7838289,6.64661523 32.7756866,6.65934774 C32.7441046,6.70880864 32.7130161,6.7585144 32.6826678,6.80870988 C32.6757593,6.82046296 32.6688507,6.83221605 32.6616954,6.84396914 C32.6308536,6.89538889 32.6005053,6.94729835 32.5708972,6.99945267 C32.5647288,7.01022634 32.5590539,7.021 32.5528856,7.03128395 C32.522784,7.08515226 32.4931759,7.13902058 32.4640613,7.19362346 C32.45962,7.20243827 32.4551788,7.21125309 32.4504909,7.21982305 C32.420636,7.27638477 32.3912746,7.33343621 32.3629002,7.39073251 C32.3596927,7.39709877 32.3567318,7.40346502 32.353771,7.40958642 C32.3241629,7.46957613 32.2950483,7.53005556 32.2671673,7.59077984 C32.2659336,7.5932284 32.2649467,7.59592181 32.263713,7.59837037 C32.0813764,7.99454733 31.9308685,8.40663992 31.817124,8.83122016 C31.6372547,9.49869753 31.5462098,10.1906605 31.5462098,10.8877654 L31.5462098,11.1201337 L21.7496257,11.1201337 L21.7491322,11.1201337 C21.7481453,11.1201337 21.7474051,11.1203786 21.7464181,11.1203786 C21.7089145,11.1203786 21.6714109,11.1218477 21.6344008,11.1242963 C21.6208304,11.1250309 21.60726,11.1267449 21.5936896,11.1277243 C21.5692629,11.129928 21.545083,11.1323765 21.520903,11.1355597 C21.505112,11.1375185 21.4895678,11.1399671 21.4737768,11.1426605 C21.4520642,11.1458436 21.4305983,11.1495165 21.4091324,11.153679 C21.3928479,11.157107 21.3763167,11.160535 21.3600323,11.1642078 C21.3398001,11.1686152 21.3198146,11.1737572 21.2998291,11.1788992 C21.2830512,11.1835514 21.26652,11.187714 21.2499888,11.1926111 C21.2304968,11.1984877 21.2112515,11.2048539 21.1917595,11.2112202 C21.1757218,11.2168519 21.1594373,11.2219938 21.1433996,11.2278704 C21.1231674,11.235216 21.1031819,11.2435412 21.0834432,11.2516214 C21.0563024,11.2628848 21.0294084,11.2746379 21.0030078,11.2871255 C20.984256,11.2959403 20.9652574,11.3045103 20.9465056,11.3140597 C20.9292342,11.3231193 20.9122096,11.3329136 20.8949382,11.342463 C20.8803809,11.3507881 20.8653301,11.3588683 20.8510195,11.3676831 C20.8335013,11.3779671 20.8164767,11.3892305 20.7992053,11.400249 C20.7858816,11.4088189 20.7723113,11.4178786 20.7589876,11.4269383 C20.7417162,11.4386914 20.7249383,11.4509342 20.7081603,11.4634218 C20.6958236,11.4724815 20.6837336,11.481786 20.6713969,11.4913354 C20.654619,11.5048025 20.6375943,11.5180247 20.6213099,11.5319815 C20.6104536,11.541286 20.599844,11.5508354 20.5889877,11.5603848 C20.5722098,11.5755658 20.5551851,11.5905021 20.5389006,11.6061728 C20.5310051,11.6137634 20.5236031,11.6215988 20.5159543,11.6294342 C20.4567381,11.6886893 20.4014696,11.7523519 20.3508891,11.820177 C20.3449675,11.8280123 20.3387991,11.8356029 20.3328775,11.8436831 C20.2682331,11.753821 20.1954465,11.6715494 20.1167383,11.5966235 C20.113284,11.5934403 20.109583,11.5902572 20.1061287,11.5868292 C20.0819488,11.5645473 20.0572753,11.5427551 20.0321084,11.5219424 C20.0256934,11.5165556 20.0190315,11.5111687 20.0123697,11.5060267 C19.9894234,11.4874177 19.9659837,11.4695432 19.9422972,11.4521584 C19.9346484,11.4467716 19.9269997,11.4411399 19.9193509,11.4357531 C19.8951709,11.418858 19.8707442,11.4026975 19.8458241,11.3872716 C19.8386688,11.3826193 19.8315135,11.3777222 19.8241115,11.3733148 C19.795737,11.3561749 19.7668691,11.3397695 19.7377545,11.3243436 C19.73356,11.3221399 19.729859,11.3199362 19.726158,11.3179774 C19.658306,11.2824733 19.5882335,11.2518663 19.5161871,11.2254218 C19.5080449,11.2227284 19.4999026,11.220035 19.4917604,11.2173416 C19.4646196,11.208037 19.4372321,11.1989774 19.4093512,11.1908971 C19.3980014,11.1874691 19.3864049,11.1845309 19.3748084,11.1813477 C19.3498882,11.1747366 19.3247213,11.1683704 19.2993077,11.1627387 C19.2867242,11.1600453 19.273894,11.1573519 19.2610639,11.1546584 C19.2361437,11.1497613 19.2109768,11.1453539 19.1855632,11.1416811 C19.172733,11.1394774 19.1601495,11.1375185 19.1470726,11.1358045 C19.1201786,11.1321317 19.0930378,11.1294383 19.0656503,11.1272346 C19.0543005,11.1262551 19.0434442,11.1250309 19.0320945,11.1242963 C18.9936039,11.1218477 18.9551134,11.1201337 18.9161294,11.1201337 L18.9156359,11.1201337 L8.34973435,11.1201337 L8.34973435,10.8877654 C8.34973435,10.1906605 8.2586894,9.49869753 8.07906686,8.83146502 C7.71809462,7.48647119 6.9993577,6.25092798 6.00033065,5.2587716 C5.99317536,5.25142593 5.9855266,5.24481481 5.97812457,5.23746914 C5.91076611,5.17111317 5.84192725,5.10598148 5.77234819,5.04207407 C5.75705066,5.02811728 5.74199987,5.01391564 5.72670235,4.99995885 C5.65440921,4.9345823 5.58063566,4.87091975 5.50612191,4.80823663 C5.48761684,4.79256584 5.46911177,4.77689506 5.45035997,4.76146914 C5.37658642,4.70074486 5.30207268,4.64148971 5.22632526,4.58345885 C5.20609305,4.56803292 5.18586084,4.55236214 5.16538189,4.53718107 C5.08938774,4.48012963 5.01265338,4.42454733 4.93468535,4.3701893 C4.91420641,4.35598765 4.89348073,4.34178601 4.87250832,4.32758436 C4.79355335,4.27347119 4.71336471,4.2205823 4.63243587,4.16940741 C4.61294387,4.15716461 4.59320512,4.14492181 4.57346638,4.13292387 C4.48982347,4.0810144 4.40544035,4.03057407 4.31982356,3.98160288 C4.30353909,3.97229835 4.28676116,3.96348354 4.2704767,3.95417901 C4.18387297,3.90569753 4.09677578,3.85844033 4.00844491,3.81314198 C3.99536799,3.80677572 3.98253781,3.80016461 3.9694609,3.7935535 C3.88088329,3.74874486 3.79107202,3.70565021 3.70027381,3.66402469 C3.68991097,3.65912757 3.67954813,3.65349588 3.66893856,3.64884362 L3.66893856,1.47036008 Z M5.58581708,11.7925082 C5.65638308,11.7780617 5.7299099,11.7704712 5.80491711,11.7704712 L7.6941614,11.7704712 L7.69465487,11.7704712 L8.34924088,11.7704712 L18.9156359,11.7704712 C19.3289158,11.7704712 19.7022247,12.0001461 19.8899895,12.370858 C19.9662304,12.520465 20.0049677,12.68207 20.0049677,12.8512654 L20.0049677,13.2043477 C20.0049677,13.8003272 19.5164338,14.285142 18.9156359,14.285142 L5.80491711,14.285142 C5.20436591,14.285142 4.71583206,13.8003272 4.71583206,13.2043477 L4.71583206,12.8512654 C4.71583206,12.3299671 5.08988121,11.8933889 5.58581708,11.7925082 L5.58581708,11.7925082 Z M35.9481958,12.8512654 L35.9481958,13.2043477 C35.9481958,13.8003272 35.459662,14.285142 34.8591108,14.285142 L21.7491322,14.285142 C21.148581,14.285142 20.6600472,13.8003272 20.6600472,13.2043477 L20.6600472,12.8512654 C20.6600472,12.6842737 20.6980442,12.5248724 20.772558,12.3762449 L20.7757655,12.3703683 C20.9632836,12.0001461 21.3365925,11.7704712 21.7496257,11.7704712 L31.5462098,11.7704712 L32.2012893,11.7704712 L32.2017827,11.7704712 L34.8591108,11.7704712 C34.934118,11.7704712 35.0073981,11.7780617 35.0782108,11.7925082 C35.5741467,11.8933889 35.9481958,12.3299671 35.9481958,12.8512654 L35.9481958,12.8512654 Z M39.5680343,2.92725309 C38.6420406,2.92725309 37.7407203,3.08151235 36.8818383,3.3853786 L36.8818383,1.47036008 C36.8818383,0.659641975 36.2171362,7.08766379e-13 35.400199,7.08766379e-13 L4.49549835,7.08766379e-13 C3.67831446,7.08766379e-13 3.01361234,0.659641975 3.01361234,1.47036008 L3.01361234,3.38513374 C2.15399016,3.08151235 1.25266988,2.92725309 0.327663107,2.92725309 L-2.13162821e-14,2.92725309 L-2.13162821e-14,16.2949198 C-2.13162821e-14,17.3872222 0.895398657,18.2760494 1.99632696,18.2760494 L4.49451142,18.2760494 L4.49451142,20.4733868 C4.49451142,20.6528663 4.64107157,20.7985556 4.82192779,20.7985556 C5.00278401,20.7985556 5.1495909,20.6528663 5.1495909,20.4733868 L5.1495909,18.2760494 L34.7461065,18.2760494 L34.7461065,20.4733868 C34.7461065,20.6528663 34.8926666,20.7985556 35.0735229,20.7985556 C35.2543791,20.7985556 35.401186,20.6528663 35.401186,20.4733868 L35.401186,18.2760494 L37.8993704,18.2760494 C39.000052,18.2760494 39.8954507,17.3872222 39.8954507,16.2949198 L39.8954507,2.92725309 L39.5680343,2.92725309 Z" id="Fill-5"></path>
                        </g>
                    </g>
                </g>
            </g>
        </g>
    </g>
</svg>