<?xml version="1.0" encoding="UTF-8"?>
<svg width="40px" height="21px" viewBox="0 0 40 21" version="1.1" xmlns="http://www.w3.org/2000/svg" xmlns:xlink="http://www.w3.org/1999/xlink">
    <!-- Generator: Sketch 63.1 (92452) - https://sketch.com -->
    <title>Icon / Couch wfh blue</title>
    <desc>Created with Sketch.</desc>
    <g id="New" stroke="none" stroke-width="1" fill="none" fill-rule="evenodd">
        <g id="Homepage_WFHb" transform="translate(-160.000000, -144.000000)" fill="#007991">
            <g id="Home-Icon-Reverse" transform="translate(147.000000, 121.000000)">
                <g id="Icon-/-Couch-wfh-blue" transform="translate(13.000000, 23.000000)">
                    <g id="Group-7">
                        <path d="M39.2689136,16.2644756 C39.2689136,16.9963012 38.6669383,17.5916267 37.9269383,17.5916267 L1.99780247,17.5916267 C1.25780247,17.5916267 0.655580247,16.9963012 0.655580247,16.2644756 L0.655580247,3.58877791 C1.54175309,3.62687093 2.40101235,3.81904535 3.21459259,4.16212674 C4.08718519,4.5303593 4.86990123,5.05340581 5.54051852,5.7168593 C6.45879012,6.62596395 7.11928395,7.75703372 7.4511358,8.98846395 C7.61607407,9.59990581 7.69977778,10.2335686 7.69977778,10.8721151 L7.69977778,11.1038477 L5.80916049,11.1038477 C4.84669136,11.1038477 4.06348148,11.8784058 4.06348148,12.830243 L4.06348148,13.1823593 C4.06348148,14.1341965 4.84669136,14.9087547 5.80916049,14.9087547 L18.9294074,14.9087547 C18.9632346,14.9087547 18.9965679,14.9075337 19.0299012,14.9055802 C19.0405185,14.9050919 19.0508889,14.9041151 19.0615062,14.9031384 C19.0842222,14.9014291 19.1066914,14.8994756 19.1294074,14.8970337 C19.1412593,14.8958128 19.1531111,14.8941035 19.1652099,14.8923942 C19.1864444,14.8897081 19.2074321,14.8862895 19.2284198,14.8828709 C19.2400247,14.8806733 19.2516296,14.878964 19.2632346,14.8765221 C19.2861975,14.8721267 19.3086667,14.867243 19.3311358,14.8618709 C19.3402716,14.8599174 19.3494074,14.857964 19.3582963,14.8557663 C19.3894074,14.8479523 19.4202716,14.8394058 19.450642,14.8298826 C19.4560741,14.8284174 19.4615062,14.8262198 19.4669383,14.8247547 C19.4918765,14.8166965 19.5165679,14.80815 19.5412593,14.7991151 C19.5516296,14.7952081 19.5615062,14.791057 19.5716296,14.78715 C19.5913827,14.779336 19.6108889,14.7715221 19.6301481,14.7629756 C19.6410123,14.758336 19.6516296,14.7536965 19.6622469,14.7485686 C19.6812593,14.7400221 19.7000247,14.730743 19.7185432,14.721464 C19.7284198,14.7165802 19.7382963,14.7116965 19.7479259,14.7065686 C19.7694074,14.6950919 19.790642,14.6833709 19.8116296,14.6711616 C19.8178025,14.6674988 19.8242222,14.6640802 19.8301481,14.6604174 C19.8570617,14.6445453 19.8834815,14.6276965 19.9094074,14.6103593 C19.9160741,14.605964 19.9222469,14.6010802 19.9289136,14.5964407 C19.9481728,14.5832547 19.9671852,14.5695802 19.9857037,14.5554174 C19.9945926,14.5490686 20.0032346,14.5419872 20.0118765,14.53515 C20.0279259,14.5226965 20.0439753,14.5097547 20.0597778,14.4965686 C20.0684198,14.4889988 20.0770617,14.4816733 20.0859506,14.4741035 C20.1017531,14.4601849 20.1170617,14.4460221 20.1323704,14.4316151 C20.1400247,14.4245337 20.147679,14.4176965 20.1548395,14.4103709 C20.1745926,14.3910802 20.1938519,14.3715453 20.2126173,14.3515221 C20.2150864,14.348836 20.2175556,14.3463942 20.2200247,14.3437081 C20.2410123,14.3207547 20.2615062,14.2973128 20.2812593,14.2733826 L20.2854568,14.2682547 C20.2899012,14.2628826 20.2940988,14.2570221 20.2985432,14.2514058 C20.3123704,14.2343128 20.3257037,14.2169756 20.3387901,14.1993942 C20.3415062,14.1957314 20.3444691,14.1920686 20.3471852,14.1884058 C20.3499012,14.1923128 20.3531111,14.1957314 20.3558272,14.1993942 C20.3689136,14.2169756 20.3822469,14.2343128 20.3958272,14.2511616 C20.4017531,14.2584872 20.4074321,14.266057 20.413358,14.2733826 C20.4331111,14.2973128 20.453358,14.3207547 20.4743457,14.343464 C20.4770617,14.3463942 20.4797778,14.348836 20.4822469,14.3517663 C20.5010123,14.3717895 20.5200247,14.3913244 20.5395309,14.4103709 C20.5469383,14.4176965 20.5545926,14.4245337 20.5622469,14.4316151 C20.5775556,14.4460221 20.5928642,14.4601849 20.6086667,14.4741035 C20.6173086,14.4816733 20.6261975,14.4889988 20.6348395,14.4963244 C20.650642,14.5097547 20.6666914,14.5226965 20.6827407,14.53515 C20.6913827,14.5422314 20.7000247,14.5490686 20.7089136,14.5554174 C20.7274321,14.5695802 20.7464444,14.5832547 20.7657037,14.5964407 C20.7721235,14.6010802 20.7785432,14.605964 20.7852099,14.6103593 C20.8111358,14.6276965 20.8375556,14.6445453 20.8642222,14.6606616 C20.8703951,14.6640802 20.8765679,14.6672547 20.8824938,14.6709174 C20.9037284,14.6831267 20.924963,14.6950919 20.9466914,14.7065686 C20.956321,14.7116965 20.9661975,14.7165802 20.9758272,14.721464 C20.9945926,14.730743 21.013358,14.7400221 21.0323704,14.7485686 C21.0429877,14.7536965 21.0536049,14.758336 21.0642222,14.7629756 C21.0837284,14.7715221 21.1032346,14.779336 21.1232346,14.78715 C21.1331111,14.791057 21.1432346,14.7952081 21.153358,14.7991151 C21.1778025,14.80815 21.2029877,14.8166965 21.2281728,14.8247547 C21.233358,14.826464 21.2385432,14.8284174 21.2439753,14.8298826 C21.2743457,14.8394058 21.3052099,14.8479523 21.3365679,14.8557663 C21.3452099,14.857964 21.3543457,14.8599174 21.3632346,14.8618709 C21.3857037,14.867243 21.4084198,14.8721267 21.4313827,14.8765221 C21.4429877,14.878964 21.4545926,14.8806733 21.4659506,14.8828709 C21.4869383,14.8862895 21.5081728,14.8897081 21.5296543,14.8923942 C21.5415062,14.8941035 21.553358,14.8958128 21.5652099,14.8970337 C21.5879259,14.8994756 21.6103951,14.9014291 21.6331111,14.9031384 C21.6437284,14.9041151 21.6540988,14.9050919 21.664716,14.9055802 C21.6980494,14.9075337 21.7313827,14.9087547 21.764963,14.9087547 L34.8844691,14.9087547 C35.8469383,14.9087547 36.6299012,14.1341965 36.6299012,13.1823593 L36.6299012,12.830243 C36.6299012,11.8784058 35.8469383,11.1038477 34.8844691,11.1038477 L32.2252099,11.1038477 L32.2252099,10.8721151 C32.2252099,10.2335686 32.3089136,9.59990581 32.4740988,8.98821977 C33.0531111,6.84011512 34.636321,5.03631279 36.7094074,4.16310349 L36.7165679,4.16017326 C37.5274321,3.81855698 38.3844691,3.62662674 39.2689136,3.58877791 L39.2689136,16.2644756 Z M3.67162963,1.48047558 C3.67162963,1.02946395 4.04249383,0.662452326 4.49879012,0.662452326 L35.4259506,0.662452326 C35.882,0.662452326 36.2531111,1.02946395 36.2531111,1.48047558 L36.2531111,3.6537314 C36.1948395,3.68010349 36.1373086,3.70745233 36.0800247,3.73528953 C36.0701481,3.73992907 36.0600247,3.7445686 36.0501481,3.74945233 C35.9973086,3.77533605 35.944716,3.80219651 35.8923704,3.82930116 C35.8782963,3.83638256 35.8642222,3.84321977 35.8503951,3.85054535 C35.8005185,3.87691744 35.7508889,3.90377791 35.7017531,3.93112674 C35.6857037,3.93991744 35.6696543,3.94821977 35.6536049,3.95725465 C35.6059506,3.98411512 35.5585432,4.01170814 35.5113827,4.03954535 C35.4943457,4.04955698 35.4775556,4.05908023 35.4607654,4.06909186 C35.4143457,4.09668488 35.3684198,4.12525465 35.3227407,4.1540686 C35.3054568,4.16481279 35.2881728,4.1750686 35.2711358,4.18605698 C35.2259506,4.21487093 35.1812593,4.24417326 35.1365679,4.27396395 C35.1195309,4.28519651 35.1022469,4.29642907 35.0854568,4.30790581 C35.0412593,4.33769651 34.9975556,4.36821977 34.9540988,4.39898721 C34.9373086,4.41095233 34.9200247,4.42267326 34.9029877,4.43488256 C34.8602716,4.46565 34.8178025,4.49715 34.7753333,4.52865 C34.7582963,4.54134767 34.7415062,4.55380116 34.724716,4.56649884 C34.6824938,4.59848721 34.6412593,4.63096395 34.5997778,4.66368488 C34.5832346,4.67662674 34.5666914,4.6895686 34.5501481,4.70275465 C34.5091605,4.73596395 34.4686667,4.76941744 34.4281728,4.80311512 C34.4121235,4.81678953 34.3958272,4.82997558 34.3797778,4.84365 C34.3395309,4.87783605 34.2997778,4.91251047 34.2602716,4.94742907 C34.244716,4.96134767 34.2289136,4.97502209 34.213358,4.9889407 C34.1740988,5.02434767 34.1350864,5.06024302 34.0965679,5.09638256 C34.0815062,5.11030116 34.0664444,5.12421977 34.0513827,5.13862674 C34.0128642,5.17501047 33.9748395,5.21188256 33.9370617,5.24924302 C33.9224938,5.26365 33.9079259,5.27781279 33.893358,5.29221977 C33.8558272,5.3300686 33.8185432,5.36816163 33.7817531,5.40649884 C33.7679259,5.42090581 33.7540988,5.43555698 33.7402716,5.44996395 C33.7032346,5.48903372 33.6669383,5.52834767 33.6308889,5.56815 C33.6175556,5.58255698 33.6044691,5.59696395 33.5913827,5.6118593 C33.5553333,5.65190581 33.5197778,5.69268488 33.4844691,5.73346395 C33.4718765,5.74811512 33.4595309,5.76252209 33.4471852,5.77717326 C33.4118765,5.81868488 33.3770617,5.86068488 33.3427407,5.90292907 C33.3311358,5.91733605 33.319284,5.93174302 33.307679,5.94615 C33.273358,5.98912674 33.239284,6.03234767 33.2057037,6.07605698 C33.1945926,6.09021977 33.1839753,6.10438256 33.173358,6.11878953 C33.1395309,6.16298721 33.1061975,6.20767326 33.073358,6.25284767 C33.0632346,6.26676628 33.053358,6.28068488 33.0434815,6.29460349 C33.010642,6.34051047 32.9780494,6.38666163 32.9461975,6.43330116 C32.9368148,6.44648721 32.9279259,6.46016163 32.9187901,6.47359186 C32.8866914,6.52096395 32.8548395,6.56882442 32.8237284,6.61692907 C32.8155802,6.62962674 32.807679,6.6425686 32.7995309,6.65526628 C32.7679259,6.70459186 32.7368148,6.75416163 32.7064444,6.80421977 C32.6995309,6.8159407 32.6926173,6.82766163 32.6854568,6.83938256 C32.6545926,6.89066163 32.6242222,6.94242907 32.5945926,6.9944407 C32.5884198,7.00518488 32.5827407,7.01592907 32.5765679,7.02618488 C32.5464444,7.07990581 32.5168148,7.13362674 32.487679,7.18808023 C32.4832346,7.19687093 32.4787901,7.20566163 32.4740988,7.21420814 C32.4442222,7.27061512 32.4148395,7.32751047 32.3864444,7.38465 C32.3832346,7.39099884 32.3802716,7.39734767 32.3773086,7.40345233 C32.347679,7.46327791 32.3185432,7.52359186 32.290642,7.58415 C32.2894074,7.58659186 32.2884198,7.58927791 32.2871852,7.59171977 C32.104716,7.98681279 31.9540988,8.39777791 31.8402716,8.82119651 C31.6602716,9.48684767 31.5691605,10.1769174 31.5691605,10.8721151 L31.5691605,11.1038477 L21.7654568,11.1038477 L21.764963,11.1038477 C21.7639753,11.1038477 21.7632346,11.1040919 21.7622469,11.1040919 C21.724716,11.1040919 21.6871852,11.105557 21.6501481,11.1079988 C21.6365679,11.1087314 21.6229877,11.1104407 21.6094074,11.1114174 C21.584963,11.1136151 21.5607654,11.116057 21.5365679,11.1192314 C21.5207654,11.1211849 21.5052099,11.1236267 21.4894074,11.1263128 C21.467679,11.1294872 21.4461975,11.13315 21.424716,11.1373012 C21.4084198,11.1407198 21.3918765,11.1441384 21.3755802,11.1478012 C21.3553333,11.1521965 21.3353333,11.1573244 21.3153333,11.1624523 C21.2985432,11.1670919 21.282,11.171243 21.2654568,11.1761267 C21.2459506,11.1819872 21.2266914,11.188336 21.2071852,11.1946849 C21.1911358,11.2003012 21.1748395,11.2054291 21.1587901,11.2112895 C21.1385432,11.2186151 21.1185432,11.2269174 21.0987901,11.2349756 C21.0716296,11.2462081 21.044716,11.2579291 21.0182963,11.2703826 C20.9995309,11.2791733 20.9805185,11.2877198 20.9617531,11.297243 C20.9444691,11.3062779 20.9274321,11.3160453 20.9101481,11.3255686 C20.8955802,11.3338709 20.8805185,11.3419291 20.8661975,11.3507198 C20.8486667,11.3609756 20.8316296,11.3722081 20.8143457,11.3831965 C20.8010123,11.391743 20.7874321,11.4007779 20.7740988,11.4098128 C20.7568148,11.4215337 20.7400247,11.433743 20.7232346,11.4461965 C20.7108889,11.4552314 20.6987901,11.4645105 20.6864444,11.4740337 C20.6696543,11.487464 20.6526173,11.50065 20.636321,11.5145686 C20.6254568,11.5238477 20.6148395,11.5333709 20.6039753,11.5428942 C20.5871852,11.5580337 20.5701481,11.5729291 20.5538519,11.588557 C20.5459506,11.5961267 20.5385432,11.6039407 20.5308889,11.6117547 C20.4716296,11.6708477 20.416321,11.734336 20.3657037,11.8019756 C20.3597778,11.8097895 20.3536049,11.8173593 20.347679,11.8254174 C20.2829877,11.7358012 20.2101481,11.6537547 20.1313827,11.5790337 C20.1279259,11.5758593 20.1242222,11.5726849 20.1207654,11.5692663 C20.0965679,11.5470453 20.0718765,11.5253128 20.0466914,11.504557 C20.0402716,11.4991849 20.0336049,11.4938128 20.0269383,11.4886849 C20.0039753,11.4701267 19.9805185,11.4523012 19.9568148,11.434964 C19.9491605,11.4295919 19.9415062,11.4239756 19.9338519,11.4186035 C19.9096543,11.4017547 19.8852099,11.3856384 19.8602716,11.3702547 C19.8531111,11.3656151 19.8459506,11.3607314 19.8385432,11.356336 C19.8101481,11.339243 19.7812593,11.3228826 19.7521235,11.3074988 C19.7479259,11.3053012 19.7442222,11.3031035 19.7405185,11.30115 C19.6726173,11.265743 19.6024938,11.2352198 19.5303951,11.2088477 C19.5222469,11.2061616 19.5140988,11.2034756 19.5059506,11.2007895 C19.4787901,11.1915105 19.4513827,11.1824756 19.4234815,11.1744174 C19.4121235,11.1709988 19.4005185,11.1680686 19.3889136,11.1648942 C19.3639753,11.1583012 19.3387901,11.1519523 19.313358,11.146336 C19.3007654,11.14365 19.2879259,11.140964 19.2750864,11.1382779 C19.2501481,11.1333942 19.224963,11.1289988 19.1995309,11.125336 C19.1866914,11.1231384 19.1740988,11.1211849 19.1610123,11.1194756 C19.1340988,11.1158128 19.1069383,11.1131267 19.0795309,11.1109291 C19.0681728,11.1099523 19.0573086,11.1087314 19.0459506,11.1079988 C19.0074321,11.105557 18.9689136,11.1038477 18.9299012,11.1038477 L18.9294074,11.1038477 L8.35582716,11.1038477 L8.35582716,10.8721151 C8.35582716,10.1769174 8.26471605,9.48684767 8.08496296,8.8214407 C7.7237284,7.48012674 7.00446914,6.24796395 6.00471605,5.25852209 C5.99755556,5.25119651 5.98990123,5.24460349 5.98249383,5.23727791 C5.91508642,5.17110349 5.84619753,5.10615 5.7765679,5.04241744 C5.76125926,5.02849884 5.74619753,5.01433605 5.73088889,5.00041744 C5.65854321,4.93521977 5.58471605,4.8717314 5.51014815,4.80921977 C5.49162963,4.79359186 5.47311111,4.77796395 5.45434568,4.76258023 C5.38051852,4.70202209 5.30595062,4.64292907 5.23014815,4.58505698 C5.20990123,4.56967326 5.18965432,4.55404535 5.16916049,4.53890581 C5.09311111,4.48201047 5.01632099,4.42658023 4.9382963,4.37237093 C4.91780247,4.35820814 4.89706173,4.34404535 4.87607407,4.32988256 C4.79706173,4.27591744 4.71681481,4.22317326 4.63582716,4.17213837 C4.61632099,4.15992907 4.5965679,4.14771977 4.57681481,4.13575465 C4.49311111,4.08398721 4.40866667,4.03368488 4.32298765,3.98484767 C4.30669136,3.9755686 4.28990123,3.96677791 4.27360494,3.95749884 C4.18693827,3.90915 4.09977778,3.86202209 4.01138272,3.81684767 C3.9982963,3.81049884 3.98545679,3.80390581 3.97237037,3.79731279 C3.8837284,3.75262674 3.79385185,3.70965 3.70298765,3.66813837 C3.69261728,3.66325465 3.68224691,3.65763837 3.67162963,3.65299884 L3.67162963,1.48047558 Z M5.58990123,11.7743826 C5.66051852,11.7599756 5.73409877,11.7524058 5.80916049,11.7524058 L7.69977778,11.7524058 L7.7002716,11.7524058 L8.35533333,11.7524058 L18.9294074,11.7524058 C19.3429877,11.7524058 19.7165679,11.9814523 19.9044691,12.35115 C19.9807654,12.5003477 20.0195309,12.6615105 20.0195309,12.830243 L20.0195309,13.1823593 C20.0195309,13.7767081 19.530642,14.2601965 18.9294074,14.2601965 L5.80916049,14.2601965 C5.20817284,14.2601965 4.71928395,13.7767081 4.71928395,13.1823593 L4.71928395,12.830243 C4.71928395,12.3103709 5.09360494,11.8749872 5.58990123,11.7743826 L5.58990123,11.7743826 Z M35.9743457,12.830243 L35.9743457,13.1823593 C35.9743457,13.7767081 35.4854568,14.2601965 34.8844691,14.2601965 L21.764963,14.2601965 C21.1639753,14.2601965 20.6750864,13.7767081 20.6750864,13.1823593 L20.6750864,12.830243 C20.6750864,12.6637081 20.7131111,12.504743 20.787679,12.3565221 L20.7908889,12.3506616 C20.9785432,11.9814523 21.3521235,11.7524058 21.7654568,11.7524058 L31.5691605,11.7524058 L32.224716,11.7524058 L32.2252099,11.7524058 L34.8844691,11.7524058 C34.9595309,11.7524058 35.0328642,11.7599756 35.1037284,11.7743826 C35.6000247,11.8749872 35.9743457,12.3103709 35.9743457,12.830243 L35.9743457,12.830243 Z M39.5968148,2.93338256 C38.6701481,2.93338256 37.7681728,3.08721977 36.9086667,3.39025465 L36.9086667,1.48047558 C36.9086667,0.671975581 36.2434815,0.0141383721 35.4259506,0.0141383721 L4.49879012,0.0141383721 C3.68101235,0.0141383721 3.01582716,0.671975581 3.01582716,1.48047558 L3.01582716,3.39001047 C2.15558025,3.08721977 1.25360494,2.93338256 0.327925926,2.93338256 L2.4691358e-05,2.93338256 L2.4691358e-05,16.2644756 C2.4691358e-05,17.3537895 0.896074074,18.2401849 1.99780247,18.2401849 L4.49780247,18.2401849 L4.49780247,20.4315105 C4.49780247,20.6104988 4.64446914,20.7557895 4.82545679,20.7557895 C5.00644444,20.7557895 5.15335802,20.6104988 5.15335802,20.4315105 L5.15335802,18.2401849 L34.7713827,18.2401849 L34.7713827,20.4315105 C34.7713827,20.6104988 34.9180494,20.7557895 35.099037,20.7557895 C35.2800247,20.7557895 35.4269383,20.6104988 35.4269383,20.4315105 L35.4269383,18.2401849 L37.9269383,18.2401849 C39.0284198,18.2401849 39.9244691,17.3537895 39.9244691,16.2644756 L39.9244691,2.93338256 L39.5968148,2.93338256 Z" id="Fill-5"></path>
                    </g>
                </g>
            </g>
        </g>
    </g>
</svg>