<?xml version="1.0" encoding="UTF-8"?>
<svg width="42px" height="32px" viewBox="0 0 42 32" version="1.1" xmlns="http://www.w3.org/2000/svg" xmlns:xlink="http://www.w3.org/1999/xlink">
    <!-- Generator: Sketch 63.1 (92452) - https://sketch.com -->
    <title>day pass</title>
    <desc>Created with Sketch.</desc>
    <defs>
        <polygon id="path-1" points="3.00055769 0.115273077 38.7385962 0.115273077 38.7385962 27.7532769 3.00055769 27.7532769"></polygon>
    </defs>
    <g id="New" stroke="none" stroke-width="1" fill="none" fill-rule="evenodd">
        <g id="Homepage_WFBa" transform="translate(-33.000000, -235.000000)">
            <g id="day-pass" transform="translate(32.999442, 235.000000)">
                <rect id="Rectangle" stroke="#FFB1AD" transform="translate(21.354372, 15.978152) rotate(17.000000) translate(-21.354372, -15.978152) " x="3.02103851" y="4.97815238" width="36.6666667" height="22" rx="3"></rect>
                <path d="M24.0005577,0 C24.5528424,-1.01453063e-16 25.0005577,0.44771525 25.0005577,1 L25.0005577,5 L35.0005577,5 C36.6574119,5 38.0005577,6.34314575 38.0005577,8 L38.0005577,24 C38.0005577,25.6568542 36.6574119,27 35.0005577,27 L6.00055769,27 C4.34370344,27 3.00055769,25.6568542 3.00055769,24 L3.00055769,8 C3.00055769,6.34314575 4.34370344,5 6.00055769,5 L17.0005577,5 L17.0005577,1 C17.0005577,0.44771525 17.4482729,1.01453063e-16 18.0005577,0 L24.0005577,0 Z" id="Combined-Shape" fill="#FFFFFF"></path>
                <mask id="mask-2" fill="white">
                    <use xlink:href="#path-1"></use>
                </mask>
                <g id="Clip-2"></g>
                <path d="M38.0186154,24.5689654 C38.0186154,25.9275038 36.9155,27.03285 35.5580769,27.03285 L6.18107692,27.03285 C4.82476923,27.03285 3.72053846,25.9275038 3.72053846,24.5689654 L3.72053846,8.02000385 C3.72053846,6.66146538 4.82476923,5.55611923 6.18107692,5.55611923 L16.6511923,5.55611923 L16.6511923,7.19685 L14.9067308,7.19685 C14.1616538,7.19685 13.556,7.80138846 13.556,8.54423462 L13.556,8.60892692 C13.556,9.35177308 14.1616538,9.95631154 14.9067308,9.95631154 L26.8324231,9.95631154 C27.5775,9.95631154 28.1842692,9.35177308 28.1842692,8.60892692 L28.1842692,8.54423462 C28.1842692,7.80138846 27.5775,7.19685 26.8324231,7.19685 L25.0890769,7.19685 L25.0890769,5.55611923 L35.5580769,5.55611923 C36.9155,5.55611923 38.0186154,6.66146538 38.0186154,8.02000385 L38.0186154,24.5689654 Z M17.8558077,0.835811538 L23.8833462,0.835811538 C24.1510385,0.835811538 24.3685385,1.05331154 24.3685385,1.32100385 L24.3685385,7.34854231 C24.3685385,7.61623462 24.1510385,7.83373462 23.8833462,7.83373462 L17.8558077,7.83373462 C17.5881154,7.83373462 17.3706154,7.61623462 17.3706154,7.34854231 L17.3706154,1.32100385 C17.3706154,1.05331154 17.5881154,0.835811538 17.8558077,0.835811538 L17.8558077,0.835811538 Z M16.7995385,7.91738846 C17.0036538,8.29438846 17.3985,8.55427308 17.8558077,8.55427308 L23.8833462,8.55427308 C24.3417692,8.55427308 24.7355,8.29438846 24.9396154,7.91738846 L26.8324231,7.91738846 C27.1804231,7.91738846 27.4637308,8.19846538 27.4637308,8.54423462 L27.4637308,8.60892692 C27.4637308,8.95469615 27.1804231,9.23688846 26.8324231,9.23688846 L14.9067308,9.23688846 C14.5587308,9.23688846 14.2754231,8.95469615 14.2754231,8.60892692 L14.2754231,8.54423462 C14.2754231,8.19846538 14.5587308,7.91738846 14.9067308,7.91738846 L16.7995385,7.91738846 Z M35.5580769,4.83558077 L25.0890769,4.83558077 L25.0890769,1.32100385 C25.0890769,0.656234615 24.5481154,0.115273077 23.8833462,0.115273077 L17.8558077,0.115273077 C17.1910385,0.115273077 16.6511923,0.656234615 16.6511923,1.32100385 L16.6511923,4.83558077 L6.18107692,4.83558077 C4.42769231,4.83558077 3,6.26438846 3,8.02000385 L3,24.5689654 C3,26.3245808 4.42769231,27.7533885 6.18107692,27.7533885 L35.5580769,27.7533885 C37.3125769,27.7533885 38.7391538,26.3245808 38.7391538,24.5689654 L38.7391538,8.02000385 C38.7391538,6.26438846 37.3125769,4.83558077 35.5580769,4.83558077 L35.5580769,4.83558077 Z" id="Fill-1" stroke="#007991" stroke-width="0.25" fill="#007991" mask="url(#mask-2)"></path>
                <path d="M20.8695769,2.25681154 C21.2934231,2.25681154 21.6369615,2.60146538 21.6369615,3.02419615 C21.6369615,3.44804231 21.2934231,3.79269615 20.8695769,3.79269615 C20.4468462,3.79269615 20.1021923,3.44804231 20.1021923,3.02419615 C20.1021923,2.60146538 20.4468462,2.25681154 20.8695769,2.25681154 M20.8695769,4.51211923 C21.6905,4.51211923 22.3575,3.84511923 22.3575,3.02419615 C22.3575,2.20438846 21.6905,1.53627308 20.8695769,1.53627308 C20.0497692,1.53627308 19.3816538,2.20438846 19.3816538,3.02419615 C19.3816538,3.84511923 20.0497692,4.51211923 20.8695769,4.51211923" id="Fill-4" fill="#007991" mask="url(#mask-2)"></path>
                <path d="M13.0781692,19.6324962 C11.8702077,19.6324962 10.8886692,18.6509577 10.8886692,17.4429962 C10.8886692,16.2350346 11.8702077,15.2534962 13.0781692,15.2534962 C14.2861308,15.2534962 15.2676692,16.2350346 15.2676692,17.4429962 C15.2676692,18.6509577 14.2861308,19.6324962 13.0781692,19.6324962 M13.0781692,14.5329577 C11.4742462,14.5329577 10.1692462,15.8379577 10.1692462,17.4429962 C10.1692462,19.0469192 11.4742462,20.3530346 13.0781692,20.3530346 C14.6820923,20.3530346 15.9882077,19.0469192 15.9882077,17.4429962 C15.9882077,15.8379577 14.6820923,14.5329577 13.0781692,14.5329577" id="Fill-6" fill="#FE5D55" mask="url(#mask-2)"></path>
                <path d="M17.5370308,23.5766077 L17.5370308,23.5632231 C17.5370308,21.9838385 15.8405308,20.6989154 13.7558769,20.6989154 L12.4006846,20.6989154 C10.3160308,20.6989154 8.61953077,21.9838385 8.61953077,23.5632231 L8.61953077,23.5766077 C7.31118462,22.3708769 6.48468462,20.6487231 6.48468462,18.7324923 C6.48468462,15.0963385 9.44268462,12.1383385 13.0777231,12.1383385 C16.7138769,12.1383385 19.6729923,15.0963385 19.6729923,18.7324923 C19.6729923,20.6487231 18.8464923,22.3708769 17.5370308,23.5766077 L17.5370308,23.5766077 Z M12.0671846,22.2805308 L12.7185692,22.9319154 L12.7185692,25.3088 C11.4693385,25.2407615 10.3104538,24.8291846 9.34006923,24.1577231 L9.34006923,23.5632231 C9.34006923,22.4277615 10.6071462,21.4986462 12.2021462,21.4261462 L12.0660692,21.5622231 C11.8686462,21.7607615 11.8686462,22.0819923 12.0671846,22.2805308 L12.0671846,22.2805308 Z M12.7263769,21.9213769 L13.0777231,21.5689154 L13.4313,21.9213769 L13.0777231,22.2738385 L12.7263769,21.9213769 Z M16.8164923,24.1577231 C15.8461077,24.8291846 14.6883385,25.2407615 13.4379923,25.3088 L13.4379923,22.9319154 L14.0904923,22.2805308 C14.2879154,22.0831077 14.2879154,21.7596462 14.0904923,21.5622231 L13.9544154,21.4261462 C15.5494154,21.4986462 16.8164923,22.4277615 16.8164923,23.5632231 L16.8164923,24.1577231 Z M13.0777231,11.4178 C9.04560769,11.4178 5.76414615,14.6992615 5.76414615,18.7324923 C5.76414615,22.7657231 9.04560769,26.0460692 13.0777231,26.0460692 C17.1109538,26.0460692 20.3924154,22.7657231 20.3924154,18.7324923 C20.3924154,14.6992615 17.1109538,11.4178 13.0777231,11.4178 L13.0777231,11.4178 Z" id="Fill-8" fill="#FE5D55" mask="url(#mask-2)"></path>
                <path d="M35.3488308,14.7863731 L23.6763308,14.7863731 C23.4766769,14.7863731 23.3160615,14.9481038 23.3160615,15.1466423 C23.3160615,15.3451808 23.4766769,15.5069115 23.6763308,15.5069115 L35.3488308,15.5069115 C35.5473692,15.5069115 35.7091,15.3451808 35.7091,15.1466423 C35.7091,14.9481038 35.5473692,14.7863731 35.3488308,14.7863731" id="Fill-10" fill="#FE5D55" mask="url(#mask-2)"></path>
                <path d="M35.3488308,18.0393923 L23.6763308,18.0393923 C23.4766769,18.0393923 23.3160615,18.2011231 23.3160615,18.3996615 C23.3160615,18.5982 23.4766769,18.7599308 23.6763308,18.7599308 L35.3488308,18.7599308 C35.5473692,18.7599308 35.7091,18.5982 35.7091,18.3996615 C35.7091,18.2011231 35.5473692,18.0393923 35.3488308,18.0393923" id="Fill-12" fill="#FE5D55" mask="url(#mask-2)"></path>
                <path d="M35.3488308,21.2925231 L23.6763308,21.2925231 C23.4766769,21.2925231 23.3160615,21.4542538 23.3160615,21.6527923 C23.3160615,21.8513308 23.4766769,22.0130615 23.6763308,22.0130615 L35.3488308,22.0130615 C35.5473692,22.0130615 35.7091,21.8513308 35.7091,21.6527923 C35.7091,21.4542538 35.5473692,21.2925231 35.3488308,21.2925231" id="Fill-14" fill="#FE5D55" mask="url(#mask-2)"></path>
                <polygon id="Fill-16" fill="#FFFFFF" mask="url(#mask-2)" points="13.9545269 21.4264808 12.2022577 21.4264808 10.7310654 22.5797885 12.7186808 25.3080192 13.4381038 25.3080192 15.3041423 22.4593269"></polygon>
            </g>
        </g>
    </g>
</svg>