<?xml version="1.0" encoding="UTF-8"?>
<svg width="9px" height="21px" viewBox="0 0 9 21" version="1.1" xmlns="http://www.w3.org/2000/svg" xmlns:xlink="http://www.w3.org/1999/xlink">
    <!-- Generator: Sketch 63.1 (92452) - https://sketch.com -->
    <title>Group 5</title>
    <desc>Created with Sketch.</desc>
    <g id="New" stroke="none" stroke-width="1" fill="none" fill-rule="evenodd">
        <g id="Homepage_WFBb" transform="translate(-66.000000, -412.000000)" stroke="#FE635B">
            <g id="Group-6" transform="translate(37.000000, 254.000000)">
                <g id="icon-?-employee" transform="translate(30.000000, 158.000000)">
                    <g id="Group-5" transform="translate(0.087227, 0.000000)">
                        <path d="M3.50003051,4.5 C4.60456868,4.5 5.5,3.60455502 5.5,2.5 C5.5,1.39544498 4.60456868,0.5 3.50003051,0.5 C2.39543132,0.5 1.5,1.39544498 1.5,2.5 C1.5,3.60455502 2.39543132,4.5 3.50003051,4.5 Z" id="Stroke-1"></path>
                        <path d="M5.40211409,6 L1.60336688,6 C0.719419229,6 0.00277258567,6.67127983 0.00277258567,7.4992698 L0.00277258567,12.7845987 C0.00277258567,13.5754858 0.658751749,14.2163376 1.48768138,14.2728038 L1.48768138,18.7937048 C1.48768138,19.4599333 2.06424713,20 2.77550111,20 L4.23010826,20 C4.94129804,20 5.51786379,19.4599333 5.51786379,18.7937048 L5.51786379,14.2728038 C6.34679342,14.2163376 7.00277259,13.5754858 7.00277259,12.7845987 L7.00277259,7.49932993 C7.00277259,6.67127983 6.28612594,6 5.40211409,6 Z" id="Stroke-3"></path>
                    </g>
                </g>
            </g>
        </g>
    </g>
</svg>