<?xml version="1.0" encoding="UTF-8"?>
<svg width="244px" height="287px" viewBox="0 0 244 287" version="1.1" xmlns="http://www.w3.org/2000/svg" xmlns:xlink="http://www.w3.org/1999/xlink">
    <title>Group 2</title>
    <defs>
        <polygon id="path-1" points="0.429978929 0.558205851 122.563948 0.558205851 122.563948 16.035461 0.429978929 16.035461"></polygon>
    </defs>
    <g id="Visual-Designs" stroke="none" stroke-width="1" fill="none" fill-rule="evenodd">
        <g id="Error-screen_Over-Booked-space" transform="translate(-54.000000, -64.000000)">
            <g id="Group-2" transform="translate(54.209571, 64.000000)">
                <g id="Group" transform="translate(11.790429, 0.000000)">
                    <path d="M89.5405291,42.4719101 C88.2211728,42.4743984 86.8602489,42.5042583 85.4669022,42.5598308 L85.4669022,42.5598308 C39.4457261,44.4152888 52.5436835,101.149837 30.4679512,119.376788 L30.4679512,119.376788 C-14.2297119,156.283565 -2.99897198,201.470645 25.8165344,223.729506 L25.8165344,223.729506 C54.6328722,245.989196 207.723096,274.287212 226.928999,223.729506 L226.928999,223.729506 C243.608423,179.824741 204.5598,163.017791 173.938596,120.557082 L173.938596,120.557082 C137.382367,69.8674948 131.831427,42.5540247 89.9163004,42.4719101 L89.9163004,42.4719101 L89.5405291,42.4719101 Z" id="Fill-1" fill="#D6EEF3"></path>
                    <ellipse id="Oval" fill="#D6EEF3" cx="66.2209821" cy="5.19101124" rx="5.18571429" ry="5.19101124"></ellipse>
                    <ellipse id="Oval-Copy" fill="#D6EEF3" cx="199.163839" cy="109.011236" rx="3.3" ry="3.30337079"></ellipse>
                    <ellipse id="Oval-Copy-3" fill-opacity="0.600360577" fill="#FFFFFF" cx="70.9352679" cy="19.3483146" rx="3.3" ry="3.30337079"></ellipse>
                    <ellipse id="Oval-Copy-4" fill="#E7F7FA" cx="38.878125" cy="176.966292" rx="3.3" ry="3.30337079"></ellipse>
                </g>
                <g id="Group-188" transform="translate(0.790429, 20.000000)">
                    <path d="M141.552161,250.907801 C170.119094,250.907801 194.08902,253.348297 200.640549,256.639514 C204.578963,256.217806 209.482129,255.962256 214.80926,255.948415 L215.265801,255.947823 C228.53473,255.947823 239.291339,257.447368 239.291339,259.298158 C239.291339,261.148949 228.53473,262.649014 215.265801,262.649014 C208.072293,262.649014 201.617173,262.208134 197.214055,261.509507 C187.755807,264.154805 166.391822,266 141.552161,266 C123.758495,266 107.748253,265.053116 96.6200996,263.543555 C89.7464945,264.343053 78.8738493,264.864899 66.5983237,264.882295 L65.9645331,264.882744 C44.7970958,264.882744 27.6377953,263.382916 27.6377953,261.532449 C27.6377953,259.681981 44.7970958,258.181553 65.9645331,258.181553 C71.1841597,258.181553 76.1600914,258.272792 80.695117,258.43802 L80.6936757,258.453901 C80.6936757,254.286318 107.941256,250.907801 141.552161,250.907801 Z" id="Combined-Shape" fill="#ADCCD2" opacity="0.281296503"></path>
                    <g id="Group-5" transform="translate(79.606299, 249.964539)">
                        <mask id="mask-2" fill="white">
                            <use xlink:href="#path-1"></use>
                        </mask>
                        <g id="Clip-4"></g>
                    </g>
                    <path d="M38.1990184,176.190856 C38.1990184,176.190856 44.2056884,171.576656 40.7270648,166.548397 C39.2280994,164.381321 38.1438383,165.148159 38.1438383,165.148159 C38.1438383,165.148159 37.1062243,159.211034 30.1961931,158.535827 C19.9992466,157.539339 20.1710445,167.866167 20.1710445,167.866167 C20.1710445,167.866167 16.3004713,166.779766 15.3868704,170.553823 C15.1576169,171.502205 15.1974376,173.068525 16.6008333,174.405194 C16.6008333,174.405194 10.3376042,173.597122 7.64970614,177.300165 C3.08511485,183.587206 3.97027238,191.20748 13.1074191,195.706569 C25.0354289,201.580124 31.517103,187.52849 31.517103,187.52849 L38.1990184,176.190856 Z" id="Fill-8" fill="#C43B72"></path>
                    <path d="M39.996206,174.503546 C40.6022489,173.767011 41.1024662,172.919058 41.4466724,171.984903 C41.7739682,171.045469 41.8988862,170.004586 41.7466936,168.98716 C41.6108658,167.962697 41.1504696,167.027954 40.5995215,166.203458 C40.3104101,165.795901 39.9765683,165.407109 39.5423557,165.110384 C39.1097797,164.835356 38.5255565,164.610174 37.9216955,164.976682 L38.3880922,165.186031 C38.1829868,164.186784 37.8349621,163.282535 37.3522007,162.436341 C36.8694392,161.598944 36.2628508,160.833088 35.5275261,160.243743 C34.7971107,159.657917 33.9935993,159.161812 33.1213557,158.89558 C32.6975075,158.722588 32.2431117,158.677435 31.8067172,158.575985 C31.3643223,158.50327 30.9142904,158.499165 30.4724409,158.468085 C30.909381,158.567189 31.3490485,158.628762 31.7761696,158.740767 C32.1961993,158.88737 32.6304119,158.976505 33.0237125,159.1882 C33.8463161,159.506622 34.5843684,160.026771 35.2378692,160.62198 C35.8875516,161.227744 36.4439546,161.945514 36.8694392,162.74714 C37.3003788,163.536452 37.6325842,164.425454 37.7989596,165.292172 L37.8851475,165.739019 L38.2653562,165.501522 C38.3460892,165.45109 38.5506492,165.402418 38.7142971,165.43467 C38.8894004,165.4593 39.0672312,165.541984 39.2379705,165.648125 C39.5794493,165.873894 39.880016,166.212254 40.1500351,166.577003 C40.6862549,167.317642 41.1057391,168.163836 41.2922978,169.079227 C41.4832204,169.995204 41.4253981,170.966303 41.1668344,171.884626 C40.9295448,172.813504 40.4931503,173.680222 39.996206,174.503546" id="Fill-10" fill="#DD5794"></path>
                    <path d="M41.7503233,190.565091 C41.7664778,190.735382 46.5366672,196.679457 47.4540113,201.259479 C50.2181595,215.059377 46.3006963,250.92116 45.3498893,258.233892 C45.2218073,259.220544 44.8035215,258.452508 44.6367841,257.174751 C43.6403983,249.526615 34.0227088,207.745494 34.0227088,207.745494 L4.75481584,259.368398 L4.01574803,259.397163 C4.01574803,259.397163 10.6102407,236.827856 14.4128916,224.78955 C16.941069,216.785299 20.1102333,203.044658 28.7349988,192.759888 C30.9839343,192.269151 38.2592231,190.290094 41.7503233,190.565091" id="Fill-12" fill="#FF97A6"></path>
                    <path d="M49.3697967,260.790907 C49.3946063,260.468783 47.7769071,259.761811 46.7027638,259.408326 C47.020214,259.615633 47.330898,259.906927 46.8166625,260.029716 C46.0633525,260.209914 44.43494,259.930847 43.9686322,259.397163 C43.7729746,259.77829 43.7086951,260.312505 43.7007874,260.680343 C43.6906518,261.155555 49.298751,261.704654 49.3697967,260.790907" id="Fill-14" fill="#3B2B5B"></path>
                    <path d="M47.1485482,260.277349 C47.7717527,260.135573 47.3949631,259.799238 47.0106651,259.559876 C46.2045266,259.307625 45.526715,259.125342 45.3765452,259.059057 C44.9861039,258.884139 44.8864458,258.545963 44.8864458,258.545963 L44.4768919,258.453901 C44.4768919,258.453901 43.769729,259.419941 43.7007874,259.546987 C44.2652891,260.162578 46.2372909,260.485409 47.1485482,260.277349" id="Fill-16" fill="#FF97A6"></path>
                    <path d="M0.236590442,261.622789 C0.207703307,261.132586 1.87692662,260.649999 2.96727439,260.340426 C2.64045326,260.535745 2.31533138,260.817571 2.82340512,260.965557 C3.56710727,261.18264 5.20744344,260.973174 5.69909116,260.452503 C5.87581246,260.848039 5.91376223,261.393737 5.90413319,261.768599 C5.89167207,262.250642 0.291532642,262.553142 0.236590442,261.622789" id="Fill-18" fill="#3B2B5B"></path>
                    <path d="M1.49902066,260.290037 C0.887426506,260.202171 1.2781104,260.034838 1.67152157,259.918868 C2.4856168,259.804513 3.16880224,259.724399 3.32016668,259.693065 C3.71698696,259.61069 3.83289667,259.435928 3.83289667,259.435928 L4.24471703,259.397163 C4.24471703,259.397163 4.89858414,259.917576 4.96062992,259.985413 C4.3688086,260.29456 2.39357086,260.418929 1.49902066,260.290037" id="Fill-20" fill="#FF97A6"></path>
                    <path d="M40.5145106,190.266482 C40.5145106,190.266482 44.7146221,195.422909 46.4279382,198.841894 C49.3326294,204.638311 48.3744987,212.221794 47.8119684,222.974427 C47.8119684,222.974427 38.283255,230.411318 20.224548,225.841264 C20.224548,225.841264 15.0680208,224.049063 14.4094488,223.152393 C14.4094488,223.152393 19.4990898,199.585697 28.0313701,192.506448 C36.5630787,185.427769 40.5145106,190.266482 40.5145106,190.266482" id="Fill-22" fill="#006A7F"></path>
                    <path d="M33.3744943,227.269852 C33.3744943,227.269852 32.890672,227.293973 32.6439621,227.303162 C29.0963079,227.427791 24.9259513,227.063094 20.1520869,225.831167 C20.1520869,225.831167 15.0598144,224.026636 14.4094488,223.123797 C14.4094488,223.123797 19.4356686,199.39497 27.8610649,192.267018 C29.2797878,191.067252 30.5697925,190.206913 31.735031,189.606743 C32.0466645,189.446506 38.0314961,191.090225 38.0314961,191.090225 C38.0314961,191.090225 30.7081082,196.000133 30.9932077,211.078471 C31.1174094,217.667131 33.3744943,227.269852 33.3744943,227.269852" id="Fill-24" fill="#007991"></path>
                    <path d="M40.8374947,173.801542 C39.0386948,172.627092 33.9989186,171.663793 25.3876795,174.303166 C24.5321315,174.565105 23.7178217,174.950311 22.9133858,175.495306 C23.7834544,178.384635 23.0005088,182.41189 23.0005088,182.41189 C25.4219479,186.442569 27.2236519,192.19897 27.2956736,193.170829 C30.3229081,193.941241 40.123086,192.278293 41.4398052,191.347522 C41.4223806,191.300156 42.657785,188.039318 42.7536203,182.26865 C42.8326119,177.490387 40.8374947,173.801542 40.8374947,173.801542" id="Fill-26" fill="#F28F20"></path>
                    <path d="M27.0674954,173.561515 C26.193352,173.825215 23.9786182,174.336529 22.9133858,175.222996 C23.8029587,178.131737 23.0024025,182.18605 23.0024025,182.18605 C25.4770649,186.243809 26.9292229,192.23824 27.00281,193.216629 C29.4905281,193.815843 37.0866142,192.451957 37.0866142,192.451957 C37.0866142,192.451957 31.1153784,189.037648 28.8490149,183.998052 C26.5096578,178.794721 27.3784602,173.467296 27.0674954,173.561515" id="Fill-28" fill="#FCB360"></path>
                    <path d="M39.9215669,176.640201 C39.9215669,176.640201 39.7986858,177.791656 44.469276,181.97074 C45.3200341,182.732005 46.7530938,184.499668 49.0153245,185.697227 C50.6255102,186.550135 51.2598425,182.775297 51.2598425,182.775297 C51.2598425,182.775297 44.5124504,176.722287 42.8723747,174.990607 C42.1378555,174.215848 41.1990879,173.560284 41.1990879,173.560284 L39.9215669,176.640201 Z" id="Fill-30" fill="#F28F20"></path>
                    <path d="M32.7212812,168.843972 C32.7212812,168.843972 32.2937099,172.495472 32.3717127,172.931986 C32.4497156,173.368499 32.7931851,173.995491 33.0644297,173.119157 C33.3356743,172.242162 33.3061423,168.966989 33.3061423,168.966989 L32.7212812,168.843972 Z" id="Fill-32" fill="#FF97A6"></path>
                    <path d="M32.3622047,170.468929 C32.5881318,170.68378 32.9136498,170.82417 33.2324814,170.656245 C33.2813971,170.261834 33.3004003,169.813129 33.3070866,169.477278 L32.686667,168.843972 C32.6236748,169.152287 32.4223816,170.108258 32.3622047,170.468929" id="Fill-34" fill="#C95D77"></path>
                    <path d="M37.0804557,167.983369 C37.1382226,167.599166 36.7789675,166.319692 36.4483208,165.259676 C36.1743407,164.380038 35.2984845,163.913463 34.5128548,164.223711 C33.2947985,164.704115 31.9738622,165.315593 31.6806264,165.705207 C31.2206919,166.317287 31.4682643,167.247431 31.638264,167.944287 C31.8077136,168.638137 32.3375185,169.819005 32.8733753,170.275359 C33.3630185,170.692631 34.4908483,170.839939 35.0536629,170.646334 C36.7443074,170.063717 37.0925593,169.421575 37.0804557,167.983369" id="Fill-36" fill="#FF97A6"></path>
                    <path d="M12.4594538,211.327848 C12.330471,211.184327 10.1258675,211.464599 9.39204323,212.046806 C8.82351725,212.497677 7.6614201,214.236851 7.80793451,214.565866 C7.95382278,214.896234 8.24872998,214.550972 8.24872998,214.550972 C8.24872998,214.550972 8.08906684,214.990335 8.38397404,215.062095 C8.56743011,215.105422 9.17915905,214.326213 9.76271215,213.928823 C10.1202323,213.685109 10.6280237,213.620118 10.8177411,213.401452 C10.8177411,213.401452 10.4013647,214.230758 10.6518167,214.332306 C10.9016425,214.434531 11.9003197,213.178047 12.0706271,212.683848 C12.1852089,212.351449 12.691748,211.587133 12.4594538,211.327848" id="Fill-38" fill="#FF97A6"></path>
                    <path d="M20.2963292,192.816444 C20.2963292,192.816444 22.8849416,183.561279 23.9212848,181.689606 C25.9226735,178.075262 26.6929134,178.648487 26.6929134,178.648487 L26.5755809,174.503546 C26.5755809,174.503546 23.3407979,174.587679 21.9603169,176.441404 C19.3986516,179.880752 15.7220473,195.656206 15.3543307,196.198582 L20.2963292,192.816444 Z" id="Fill-40" fill="#FCB360"></path>
                    <path d="M13.7430454,198.537222 C12.3518899,200.777233 9.01947056,207.947234 9.01947056,207.947234 C7.54359728,212.269567 12.3151045,213.114625 14.0245091,211.413534 C17.2148032,208.23951 20.1871718,198.852602 20.075701,192.374013 C20.0322274,189.839993 17.3134548,189.823242 15.9668877,192.996688 C14.8833916,195.550347 14.4408525,197.414328 13.7430454,198.537222" id="Fill-42" fill="#FCB360"></path>
                    <path d="M49.1399201,167.854332 C49.0149057,167.723902 46.8801993,167.97663 46.1700111,168.504718 C45.6197968,168.91368 44.4957487,170.492021 44.637881,170.790905 C44.7794079,171.091018 45.0647321,170.777736 45.0647321,170.777736 C45.0647321,170.777736 44.9104483,171.176576 45.1960882,171.241977 C45.3737782,171.281468 45.9655813,170.574391 46.5303881,170.214006 C46.8764231,169.992986 47.3681145,169.93438 47.5516696,169.735971 C47.5516696,169.735971 47.1490821,170.488697 47.3916945,170.58111 C47.633701,170.674138 48.5998601,169.533978 48.7644102,169.085352 C48.8751185,168.783604 49.365068,168.089966 49.1399201,167.854332" id="Fill-38" fill="#FF97A6" transform="translate(46.911979, 169.532023) rotate(156.000000) translate(-46.911979, -169.532023) "></path>
                    <path d="M44.0126205,171.622079 C43.7647104,171.805221 43.6451731,172.144832 43.7257308,172.473182 C44.3052271,174.841571 45.1326333,181.168537 45.3769053,182.423262 C45.6045459,183.591454 48.9365192,187.343181 49.9395934,185.144894 C50.323672,184.303867 50.3626516,182.039791 50.2774163,180.644006 C49.9692178,175.609698 48.7255098,168.146545 44.0126205,171.622079" id="Fill-44" fill="#F28F20"></path>
                    <path d="M68.5536997,135.829787 C68.5279071,135.829787 68.5021145,135.826951 68.4763219,135.820144 C68.3240226,135.781006 68.2355908,135.635228 68.2785785,135.494556 L81.879885,90.7459971 C81.9228727,90.6053247 82.0819271,90.5242112 82.2323841,90.5627827 C82.3840692,90.6024886 82.4731152,90.7476987 82.4301275,90.8883711 L68.8282069,135.637497 C68.7932026,135.753779 68.678364,135.829787 68.5536997,135.829787" id="Fill-64" fill="#295A6E"></path>
                    <polygon id="Fill-66" fill="#004450" points="142.913386 211.29078 146.692913 211.29078 146.692913 206.574468 142.913386 206.574468"></polygon>
                    <path d="M156.545461,205.631206 L131.171075,205.631206 C126.697271,205.631206 123.070866,201.76712 123.070866,197.000095 L123.070866,196.198582 L164.645669,196.198582 L164.645669,197.000095 C164.645669,201.76712 161.019265,205.631206 156.545461,205.631206" id="Fill-68" fill="#00313A"></path>
                    <path d="M87.4776535,187.181588 L79.6477739,89.9619871 C79.1156741,83.3546349 83.7598731,77.4440309 90.3353117,76.3699491 C100.136209,74.7682883 115.387237,73.4120665 133.057792,75.8475313 C142.179008,77.1045453 151.966645,80.2809144 153.167473,89.3627263 C153.515673,91.9989004 153.037186,99.237627 152.898252,102.344608 C152.269302,116.396557 156.104687,126.523205 158.578403,134.042351 C161.052119,141.560924 166.494756,165.348997 163.856164,177.981071 C163.856164,177.981071 196.015628,176.997022 203.767681,177.48962 C211.518582,177.981071 208.87999,188.973063 207.396106,190.285129 C205.911069,191.597768 179.029366,197.01176 152.806591,198.160391 C132.665779,199.042365 108.925943,199.924339 96.1572786,197.163725 C91.3712633,196.129785 87.8690899,192.037608 87.4776535,187.181588" id="Fill-69" fill="#FF5E4D"></path>
                    <path d="M119.941184,185.9727 C119.941184,185.9727 130.074489,184.415722 139.454483,183.190977 C148.835055,181.96681 204.355353,177.012263 206.51419,178.580238 C208.673027,180.148214 209.983234,179.817718 210,185.133437 C210.015585,190.448578 209.705364,189.777746 208.33681,191.130985 C207.403837,192.053596 193.471625,195.258424 173.577627,197.476394 C164.277355,198.513029 154.568653,198.926872 143.287473,199.50799 C107.013002,201.376942 108.914766,196.991936 108.914766,196.991936 L119.941184,185.9727 Z" id="Fill-70" fill="#E23229"></path>
                    <path d="M136.299213,205.631206 L144.443987,209.404255 C144.443987,209.404255 151.798631,205.631206 152.080418,205.631206 L152.362205,205.631206 L136.299213,205.631206 Z" id="Fill-71" fill="#004450"></path>
                    <path d="M148.582677,217.893617 L141.023622,217.893617 L141.023622,212.929228 C141.023622,212.024309 141.733424,211.29078 142.609073,211.29078 L146.997226,211.29078 C147.872875,211.29078 148.582677,212.024309 148.582677,212.929228 L148.582677,217.893617 Z" id="Fill-72" fill="#004450"></path>
                    <path d="M149.527559,236.758865 L138.188976,236.758865 L138.293906,217.190365 C138.293906,216.53701 138.80851,216.007092 139.44423,216.007092 L148.377794,216.007092 C149.012955,216.007092 149.527559,216.53701 149.527559,217.190365 L149.527559,236.758865 Z" id="Fill-73" fill="#00313A"></path>
                    <path d="M116.273116,211.29078 C116.067461,211.29078 115.86295,211.204188 115.712707,211.033391 C115.428219,210.709714 115.448213,210.207477 115.757837,209.909478 L119.989179,205.841417 C120.129709,205.706452 120.313656,205.631206 120.504457,205.631206 L141.207582,205.631206 C141.628031,205.631206 141.968504,205.987728 141.968504,206.426663 C141.968504,206.866196 141.628031,207.222718 141.207582,207.222718 L120.800943,207.222718 L116.787824,211.080569 C116.64158,211.221506 116.457063,211.29078 116.273116,211.29078" id="Fill-74" fill="#004450"></path>
                    <path d="M117.241441,210.598616 C117.801285,211.241662 116.846257,212.91688 115.108544,214.341375 C113.370283,215.765337 111.50743,216.3988 110.947586,215.755755 C110.387742,215.113242 111.342221,213.437491 113.080482,212.013529 C114.818194,210.589035 116.681048,209.956103 117.241441,210.598616" id="Fill-75" fill="#004450"></path>
                    <path d="M96.9616246,181.380193 C96.9616246,181.380193 112.034461,181.745541 136.735627,179.791138 C161.436792,177.837323 164.246786,178.182079 164.246786,178.182079 C164.246786,178.182079 200.318962,176.649502 203.385827,177.703185 C203.385827,177.703185 197.078925,181.245468 178.242497,182.760395 C159.406646,184.274734 139.909858,187.484027 130.4674,184.70715 C125.009615,183.10221 92.9423169,194.349736 96.9616246,181.380193" id="Fill-76" fill="#FF5E4D"></path>
                    <path d="M125.000851,184.330664 C115.274736,183.910851 102.857821,181.934617 97.3000411,182.758673 C93.3113212,183.350332 91.6793382,185.097053 91.1771015,184.378527 C89.8545832,182.48764 96.2446578,178.771028 96.5741433,172.356774 C96.7943724,168.060613 93.4909366,85.4336228 91.1999825,79.3296147 C91.1948343,79.3163514 91.1896861,79.3030881 91.1845379,79.2898248 C90.5432995,77.6146105 88.5818309,76.8908948 86.9658645,77.6463271 C82.2489587,79.8491907 79.213802,84.8356203 79.6473958,90.2960693 L87.4269155,188.187982 C87.8090272,193.001988 91.2417402,197.036342 95.9203204,198.074341 C102.776022,199.595009 112.863657,200.028662 123.856804,199.965805 C127.467417,199.945045 133.920414,199.792229 136.85661,196.1304 C140.631966,191.421347 136.292595,184.817946 125.000851,184.330664" id="Fill-77" fill="#F2483B"></path>
                    <path d="M148.582677,254.208926 C148.582677,257.074563 146.256221,259.397163 143.385827,259.397163 C140.516021,259.397163 138.188976,257.074563 138.188976,254.208926 C138.188976,251.343877 140.516021,249.021277 143.385827,249.021277 C146.256221,249.021277 148.582677,251.343877 148.582677,254.208926" id="Fill-78" fill="#007991"></path>
                    <path d="M145.711038,253.367826 C145.915462,254.389487 145.252113,255.383504 144.228812,255.587013 C143.205511,255.791698 142.210487,255.128824 142.005473,254.107162 C141.801049,253.086089 142.464987,252.092072 143.488288,251.887975 C144.51159,251.683878 145.506613,252.346752 145.711038,253.367826" id="Fill-79" fill="#D5EAF5"></path>
                    <path d="M149.527559,253.737589 L138.188976,253.737589 C138.188976,253.737589 138.226956,252.979894 138.299564,252.618051 C138.820108,250.028842 141.111171,248.078014 143.858547,248.078014 C146.693053,248.078014 149.042202,250.154846 149.461095,252.867271 C149.50466,253.151058 149.527559,253.737589 149.527559,253.737589" id="Fill-80" fill="#00313A"></path>
                    <path d="M177.441885,250.907801 C178.724032,250.907801 179.76378,249.853065 179.76378,248.551856 L179.76378,243.111543 C179.76378,242.232113 179.280693,241.425005 178.510151,241.020005 C177.879914,240.689061 162.854047,232.910738 145.08936,234.041268 C143.809494,234.122847 142.837618,235.241805 142.918038,236.5407 C142.997887,237.839015 144.098662,238.824902 145.381379,238.743902 C159.061791,237.871994 171.27127,242.838457 175.119421,244.601366 L175.119421,248.551856 C175.119421,249.853065 176.159168,250.907801 177.441885,250.907801" id="Fill-81" fill="#004450"></path>
                    <path d="M173.149606,254.208926 C173.149606,257.074563 175.476651,259.397163 178.346457,259.397163 C181.216263,259.397163 183.543307,257.074563 183.543307,254.208926 C183.543307,251.343877 181.216263,249.021277 178.346457,249.021277 C175.476651,249.021277 173.149606,251.343877 173.149606,254.208926" id="Fill-82" fill="#007991"></path>
                    <path d="M176.021224,253.36813 C175.81679,254.389729 176.480761,255.383685 177.503524,255.587181 C178.526877,255.791266 179.522539,255.12902 179.726974,254.107422 C179.93082,253.086412 179.267438,252.092456 178.244085,251.887783 C177.221322,251.684287 176.225659,252.34712 176.021224,253.36813" id="Fill-83" fill="#D5EAF5"></path>
                    <path d="M173.149606,254.680851 L184.488189,254.680851 C184.488189,254.680851 184.450209,253.923156 184.377601,253.561314 C183.857058,250.972104 181.566553,249.021277 178.819177,249.021277 C175.984112,249.021277 173.635522,251.098108 173.216071,253.810533 C173.172506,254.09432 173.149606,254.680851 173.149606,254.680851" id="Fill-84" fill="#00313A"></path>
                    <path d="M112.164948,250.907801 C110.882251,250.907801 109.84252,249.853614 109.84252,248.552368 L109.84252,243.111902 C109.84252,242.232448 110.326169,241.425318 111.096129,241.020306 C111.726926,240.689353 126.751991,232.910233 144.516403,234.041374 C145.796819,234.122954 146.76868,235.241944 146.688262,236.540296 C146.608414,237.839227 145.507085,238.824563 144.224959,238.744139 C130.544759,237.872207 118.335468,242.838809 114.487377,244.601767 L114.487377,248.552368 C114.487377,249.853614 113.447645,250.907801 112.164948,250.907801" id="Fill-85" fill="#004450"></path>
                    <path d="M144.330999,251.851064 C143.026173,251.851064 141.968504,250.821812 141.968504,249.552043 L141.968504,232.455049 C141.968504,231.185281 143.026173,230.156028 144.330999,230.156028 C145.635825,230.156028 146.692913,231.185281 146.692913,232.455049 L146.692913,249.552043 C146.692913,250.821812 145.635825,251.851064 144.330999,251.851064" id="Fill-86" fill="#00313A"></path>
                    <path d="M116.456693,254.20922 C116.456693,257.074695 114.129648,259.397163 111.259843,259.397163 C108.389448,259.397163 106.062992,257.074695 106.062992,254.20922 C106.062992,251.344333 108.389448,249.021277 111.259843,249.021277 C114.129648,249.021277 116.456693,251.344333 116.456693,254.20922" id="Fill-87" fill="#007991"></path>
                    <path d="M113.585076,253.36814 C113.789502,254.389745 113.12556,255.383118 112.102842,255.587204 C111.079534,255.79129 110.084504,255.128452 109.879489,254.107436 C109.675064,253.085831 110.339006,252.092457 111.362313,251.887783 C112.385621,251.684286 113.380651,252.347123 113.585076,253.36814" id="Fill-88" fill="#D5EAF5"></path>
                    <path d="M116.456693,254.680851 L105.11811,254.680851 C105.11811,254.680851 105.156646,253.923639 105.229251,253.561761 C105.749769,250.972296 108.040719,249.021277 110.787402,249.021277 C113.622326,249.021277 115.970802,251.098313 116.390232,253.811005 C116.433795,254.09482 116.456693,254.680851 116.456693,254.680851" id="Fill-89" fill="#00313A"></path>
                    <path d="M122.80193,117.907801 C122.704587,117.907801 122.610141,117.854675 122.562049,117.76286 C122.381269,117.414653 104.454531,82.9098696 101.772966,79.5583096 C99.1539788,76.2864386 95.0192232,76.00002 94.9780843,75.9977102 C94.8297522,75.9884708 94.7161855,75.8614303 94.7248769,75.7136014 C94.7341476,75.5657724 94.8604616,75.4549006 95.0099525,75.4609929 C95.1889939,75.4722244 99.4216718,75.7597979 102.194206,79.223962 C104.908798,82.615944 122.301889,116.092277 123.040652,117.515708 C123.109023,117.647368 123.057455,117.809634 122.925347,117.877774 C122.885946,117.897985 122.843648,117.907801 122.80193,117.907801" id="Fill-90" fill="#295A6E"></path>
                    <path d="M72.2265538,147.539438 C71.4870328,147.783741 70.6851926,147.395525 70.4353224,146.672481 L65.5753656,132.860739 C65.3254953,132.137695 65.7219641,131.353721 66.4614851,131.109998 L123.348218,112.321301 C124.087739,112.076999 124.890173,112.465214 125.13945,113.188258 L130,127 C130.24987,127.723044 129.852808,128.507019 129.113287,128.751321 L72.2265538,147.539438 Z" id="Fill-91" fill="#FFE5B0"></path>
                    <path d="M72.303712,132.057036 C72.303712,132.577519 71.868276,133 71.3318335,133 C70.7947752,133 70.359955,132.577519 70.359955,132.057036 C70.359955,131.535956 70.7947752,131.113475 71.3318335,131.113475 C71.868276,131.113475 72.303712,131.535956 72.303712,132.057036" id="Fill-92" fill="#295A6E"></path>
                    <path d="M122.943757,114.943262 C122.943757,115.464508 122.508321,115.886525 121.971879,115.886525 C121.43482,115.886525 121,115.464508 121,114.943262 C121,114.422017 121.43482,114 121.971879,114 C122.508321,114 122.943757,114.422017 122.943757,114.943262" id="Fill-93" fill="#295A6E"></path>
                    <path d="M107.487313,50.5595863 C111.366503,51.7253047 114.930838,50.0941918 115.448784,46.9156702 C115.96613,43.7377066 113.241805,40.2159983 109.362615,39.05028 C105.484027,37.8845616 101.919692,39.5162325 101.401745,42.6941961 C100.883799,45.8727178 103.608124,49.393868 107.487313,50.5595863" id="Fill-120" fill="#D5EAF5"></path>
                    <path d="M189.918368,15.5684867 C189.912015,15.7258808 190.035036,15.8051565 190.15748,15.8051565 L190.147662,16.035461 C184.358718,15.810943 178.550137,15.9029491 172.754262,15.9122076 C169.84102,15.9156795 166.930665,15.9156795 164.016844,15.9278312 C162.563688,15.9341964 161.106489,15.9405616 159.649868,15.9498201 C158.501089,15.9596572 157.30264,15.893112 156.147508,16.0163654 L156.141732,15.9561853 C156.204109,15.9561853 156.273995,15.9156795 156.273995,15.8398757 C156.286124,14.1120132 157.075656,12.3910945 158.677247,11.5966017 C160.250537,10.8183113 162.151306,11.1330994 163.45083,12.271313 C163.488371,12.3060322 163.529379,12.3436448 163.56692,12.3783641 C163.724018,12.5264996 163.944649,12.4101901 163.963708,12.2146048 C164.495069,7.25900703 166.861357,1.80865958 172.062338,0.317466732 C174.472521,-0.372868178 177.322809,0.0402911896 179.210872,1.77683357 C180.938372,3.36234711 181.705957,5.86560681 180.979379,8.11657311 C180.91989,8.30232123 181.16189,8.51642343 181.331695,8.38738346 C181.379055,8.35266418 181.426415,8.31794491 181.473198,8.28669756 C183.182216,7.15195593 185.419129,8.5638731 185.006747,10.6603386 C184.978446,10.8084742 185.072589,10.9757054 185.242394,10.9693402 C185.318055,10.9658682 185.397182,10.962975 185.472843,10.962975 C188.002582,10.9658682 189.990564,12.9963672 189.918368,15.5684867" id="Fill-131" fill="#68C2D4"></path>
                    <path d="M203.430581,10.3758865 C206.082699,10.3924835 208.183949,12.7904416 208.108254,15.7840473 C208.102176,15.9512466 207.985041,16.035461 207.867353,16.035461 C207.750218,16.035461 207.63253,15.9512466 207.638608,15.7840473 C207.707673,13.0516905 205.805884,10.8946962 203.385827,10.8916227 L203.388589,10.7072117 C203.406823,10.5965651 203.421741,10.4865331 203.430581,10.3758865" id="Fill-132" fill="#D5EAF5"></path>
                    <path d="M203.631969,10.6036844 C203.78126,10.5989681 203.93622,10.5933085 204.084567,10.5933085 C204.070394,10.7630957 204.044882,10.932883 204.012756,11.101727 C203.885197,10.9375993 203.755748,10.7678121 203.631969,10.6036844" id="Fill-133" fill="#D5EAF5"></path>
                    <path d="M198.842902,7.83723888 C201.059414,6.84567779 203.600864,8.52384472 203.37134,10.8021831 C203.266586,10.8021831 203.157162,10.8052265 203.05174,10.80827 C203.138479,10.9147913 203.229889,11.0237474 203.320631,11.1302687 L203.317295,11.3122679 C203.229889,11.3122679 203.138479,11.3159201 203.05174,11.3189635 C202.855577,11.3256592 202.74682,11.1497468 202.778846,10.9945301 C203.255243,8.78862623 200.671091,7.30341502 198.69678,8.49706223 L198.661417,8.45080155 C198.733477,8.24506327 198.795529,8.03993369 198.842902,7.83723888" id="Fill-134" fill="#D5EAF5"></path>
                    <path d="M200.495906,8.4893617 C200.428819,8.80097518 200.340945,9.11633176 200.238898,9.43262411 C200.047087,9.28477147 199.857165,9.14159771 199.661575,8.99468085 C199.934646,8.79068164 200.212441,8.62224192 200.495906,8.4893617" id="Fill-135" fill="#D5EAF5"></path>
                    <path d="M182.450551,11.8935957 C182.234173,11.9813191 182.017795,12.0690426 181.801417,12.160539 C181.822205,11.9143475 181.847717,11.6672128 181.879843,11.4210213 C182.075433,11.5700567 182.265354,11.7294681 182.450551,11.8935957" id="Fill-136" fill="#D5EAF5"></path>
                    <path d="M193.959291,0.150925947 C197.553688,0.832835431 200.264931,4.2006557 199.465673,7.72110949 C199.295618,7.79907338 199.128964,7.89790084 198.965144,8.01759188 C199.082482,8.10379138 199.196419,8.18779473 199.310923,8.27454327 L199.341533,8.31681947 C199.295618,8.3464677 199.249136,8.37941019 199.202654,8.41235268 C199.036001,8.53478892 198.79849,8.33164359 198.857443,8.15485224 C199.569973,6.01908099 198.81663,3.64447671 197.121181,2.14010313 C195.268715,0.491880689 192.470743,0.100414133 190.105278,0.755420586 C185.000793,2.16975137 182.678975,7.34172185 182.156906,12.0431638 C182.1382,12.2287398 181.92223,12.3396462 181.76748,12.1985425 C181.730635,12.1661491 181.690389,12.1299124 181.653543,12.0969699 L181.702859,12.0431638 C181.832101,11.9893577 181.962477,11.9388459 182.091718,11.8877851 C181.980616,11.7922519 181.866679,11.6994639 181.749341,11.6127153 C182.015194,9.26501405 182.681242,6.93762734 183.978762,4.92154713 C186.078942,1.65529953 189.908014,-0.620477294 193.959291,0.150925947" id="Fill-137" fill="#D5EAF5"></path>
                    <path d="M181.653543,11.4687182 C181.634458,11.6330983 181.618265,11.7981081 181.60612,11.9624882 L181.555804,12.0242095 C180.254545,10.7860056 178.351236,10.4427598 176.775844,11.2904823 C175.172114,12.1545799 174.381527,14.0282607 174.369382,15.9082396 C174.369382,15.9907446 174.299981,16.035461 174.236942,16.035461 C174.186049,16.035461 174.142095,16.0077494 174.132842,15.9428791 C173.871433,13.8871836 174.970853,11.7672475 176.681575,10.8647317 C178.298029,10.0107111 180.2424,10.3155385 181.653543,11.4687182" id="Fill-138" fill="#19C2DC"></path>
                    <path d="M190.923496,16.1861441 C196.601392,16.1710519 202.291736,16.0220164 207.962843,16.387059 C207.991133,16.387059 208.015463,16.3917753 208.043188,16.3917753 C208.132586,16.3974348 208.132586,16.6181582 208.043188,16.6228746 C202.344357,16.9926334 196.629117,16.843598 190.923496,16.8285058 C188.069554,16.8237894 185.218441,16.8237894 182.363933,16.8030377 C180.939791,16.7926618 179.51282,16.7822859 178.085848,16.7671937 C176.775434,16.7568178 175.403912,16.8954774 174.105946,16.5360944 C174.090669,16.5304348 174.090669,16.484215 174.105946,16.4794987 C174.288136,16.4276192 174.469761,16.387059 174.654781,16.3559313 C175.786399,16.1550164 176.960454,16.2634916 178.085848,16.2474561 C179.51282,16.2323639 180.939791,16.2229313 182.363933,16.2116121 C185.218441,16.1918036 188.069554,16.1918036 190.923496,16.1861441" id="Fill-139" fill="#D5EAF5"></path>
                    <path d="M76.1061186,51.5702972 C78.1330547,53.0709954 78.7865699,55.6400368 78.6422423,58.0597085 C70.8116068,58.4033754 62.9751983,58.5375747 55.139367,58.4617229 C55.1815107,56.0473025 53.5067338,54.0722389 51.2598425,53.6766427 C52.762581,49.4884577 55.398002,45.1234796 60.0903792,44.4174746 C65.4120246,43.619864 69.510927,48.6272483 68.6224466,53.7437424 C68.5502828,54.1725966 69.4266397,54.03548 69.5045766,53.6702245 C70.1852253,50.5352122 73.7212502,49.810536 76.1061186,51.5702972" id="Fill-140" fill="#E8FAFE"></path>
                    <path d="M75.6185068,50.3528077 C79.2081544,51.1557526 80.7352962,54.8061836 80.5335982,58.1707131 C80.5278354,58.281961 80.4436985,58.372458 80.3324765,58.4324051 C80.3687822,58.6157048 80.1849489,58.8560695 79.8841307,58.8716327 C71.9326204,59.2203633 63.9724658,59.3558206 56.0146164,59.2803103 C50.4592779,59.4970421 44.8883799,59.4094271 39.3267024,59.4007809 C36.5432704,59.3973224 33.7627198,59.3973224 30.9787115,59.3852177 C29.5893006,59.3794536 28.1975846,59.3736894 26.8058686,59.3644668 C25.528256,59.3587027 24.1907103,59.4399771 22.9246233,59.2290095 C22.90964,59.2261274 22.90964,59.1990359 22.9246233,59.1961539 C23.1021175,59.1661803 23.2796117,59.1419709 23.4599873,59.1241021 L23.4536483,59.0670371 C23.405817,59.0670371 23.3637486,59.0428277 23.3545281,58.9857627 C23.1049989,57.1844684 24.1544046,55.3261091 25.7864294,54.5352689 C27.3291307,53.7865069 29.1835995,54.0539631 30.5303657,55.0644171 C30.7891154,52.7040011 31.4385828,50.3649124 32.7012122,48.3376637 C34.745277,45.0544086 38.4732318,42.7660444 42.4172916,43.5418978 C45.9164633,44.2278307 48.5564016,47.6136875 47.7772712,51.1522941 C49.5873664,50.2623107 51.6585165,51.7390838 51.5230907,53.768638 C53.209862,49.2432104 56.213433,44.7448742 61.3838164,44.1315695 C66.3052469,43.5447799 70.3968344,47.3306682 70.6463636,51.9823305 C71.818517,50.602395 73.7484784,49.9377895 75.6185068,50.3528077 M79.6530425,58.2456469 C79.7971125,55.8552573 79.1447636,53.3178822 77.1214448,51.8353449 C74.7408324,50.0968798 71.2116942,50.8127862 70.5316839,53.9098595 C70.4538861,54.2706948 69.5790932,54.4061521 69.6511282,53.9819113 C70.538023,48.9273354 66.4464355,43.9811254 61.1342872,44.7685072 C56.4508603,45.4665448 53.8201424,49.7781227 52.3200858,53.9162001 C54.562391,54.3070089 56.234179,56.2581708 56.1921106,58.6427963 C64.0145343,58.7183065 71.8369579,58.5857313 79.6530425,58.2456469" id="Fill-141" fill="#68C2D4"></path>
                    <path d="M136.299213,128.568478 C136.299213,128.568478 138.303002,124.114101 139.053299,122.686856 C139.379768,122.066021 139.794601,121.318657 140.980366,120.185521 C141.679867,119.516887 142.067185,119.371238 143.858268,118.851064 C143.483648,120.390779 139.373419,128.553295 138.463327,129.797776 C137.510905,131.100179 136.299213,128.568478 136.299213,128.568478" id="Fill-142" fill="#F0B414"></path>
                    <path d="M131.991734,120.456071 C132.101204,120.451729 132.749664,119.506234 132.795277,119.065748 C132.831007,118.725147 132.564933,117.787718 132.371839,117.74367 C132.177986,117.699621 132.205353,117.909317 132.205353,117.909317 C132.205353,117.909317 132.08524,117.721335 131.9408,117.807571 C131.851095,117.861546 131.934718,118.315681 131.87086,118.646356 C131.83209,118.848607 131.660282,119.05334 131.677007,119.187347 C131.677007,119.187347 131.496076,118.790289 131.356198,118.851709 C131.216319,118.913129 131.345555,119.648927 131.484673,119.856762 C131.520403,119.911978 131.621511,120.606829 131.669404,120.703612 C131.743145,120.853129 131.871621,120.461035 131.991734,120.456071" id="Fill-143" fill="#FF97A6"></path>
                    <path d="M157.114353,184.636828 C156.858499,183.994417 158.433744,184.120055 159.323416,183.942266 C159.060585,184.04623 158.802987,184.192525 159.229797,184.254159 C159.853731,184.344916 161.202777,184.204378 161.588884,183.93617 C161.751118,184.127166 161.804033,184.395713 161.811024,184.580613 C161.819733,184.81902 157.293451,185.085196 157.114353,184.636828" id="Fill-144" fill="#30193B"></path>
                    <path d="M158.197403,183.904519 C157.886021,183.833707 158.073785,183.665625 158.266221,183.546178 C158.669361,183.419727 159.008355,183.329072 159.08312,183.295611 C159.278106,183.208457 159.328233,183.038819 159.328233,183.038819 L159.532988,182.992908 C159.532988,182.992908 159.886851,183.475366 159.92126,183.539174 C159.63919,183.847325 158.653218,184.008793 158.197403,183.904519" id="Fill-145" fill="#FF97A6"></path>
                    <path d="M139.161597,184.636828 C138.905744,183.994417 140.480988,184.120055 141.37066,183.942266 C141.107829,184.04623 140.850231,184.192525 141.277041,184.254159 C141.900394,184.344577 143.250021,184.204039 143.636128,183.93617 C143.798362,184.127166 143.851277,184.395713 143.858268,184.580613 C143.866977,184.81902 139.340113,185.085196 139.161597,184.636828" id="Fill-146" fill="#30193B"></path>
                    <path d="M142.134448,183.904704 C141.822996,183.833877 142.010802,183.665761 142.203282,183.54629 C142.606087,183.419814 142.945582,183.328751 143.01994,183.295672 C143.215394,183.208501 143.265532,183.038828 143.265532,183.038828 L143.470334,182.992908 C143.470334,182.992908 143.824276,183.475463 143.858268,183.539285 C143.576559,183.847108 142.590366,184.008609 142.134448,183.904704" id="Fill-147" fill="#FF97A6"></path>
                    <path d="M154.526342,133.005316 C154.547469,133.136641 157.414202,135.922201 158.92826,139.242683 C161.287374,144.416432 162.144166,177.448041 161.696991,183.153315 C161.637133,183.922585 159.701721,183.267659 159.59961,182.319515 C158.957015,176.368573 150.101537,145.945348 150.101537,145.945348 L144.118074,183.824657 L142.17386,183.93617 C142.17386,183.93617 141.574692,135.334635 142.423269,133.865721 C144.236617,133.385706 151.665477,132.946447 154.526342,133.005316" id="Fill-148" fill="#006A7F"></path>
                    <path d="M141.384556,133.35368 C142.111297,133.151414 143.14451,133.092562 145.36755,133 L144.588415,133 L148.582677,145.589057 C148.582677,145.589057 145.856551,166.652715 142.838602,183.824181 L140.972172,183.93617 C140.972172,183.93617 136.573414,149.884066 141.384556,133.35368" id="Fill-149" fill="#007991"></path>
                    <path d="M141.023622,120.215174 C142.021596,118.925482 147.757834,117.655056 151.424513,117.951195 C152.323534,118.024404 154.51437,119.180338 154.992842,119.725278 C156.565224,121.515875 156.046326,125.293026 156.10425,126.811152 C156.179068,128.767983 155.580525,131.350119 155.903328,133.35594 C156.38904,136.379532 143.271175,134.168396 142.948975,133.12145 C142.31061,131.043522 142.041507,129.48191 141.768181,126.378503 C141.448394,122.756027 141.023622,120.215174 141.023622,120.215174" id="Fill-150" fill="#AACBE8"></path>
                    <path d="M146.188414,115.078014 C146.188414,115.078014 146.858007,117.975716 146.65437,118.328526 C146.449731,118.682002 145.647223,119.201232 145.115561,118.513585 C144.583899,117.825939 144.891862,115.205159 144.891862,115.205159 L146.188414,115.078014 Z" id="Fill-151" fill="#FF97A6"></path>
                    <path d="M146.692913,116.693131 C146.188545,116.907381 145.483588,117.053825 144.834438,116.902202 C144.78337,116.523144 144.803376,116.090876 144.833912,115.767382 L146.200654,115.078014 C146.292788,115.373727 146.614468,116.347035 146.692913,116.693131" id="Fill-152" fill="#C95D77"></path>
                    <path d="M142.99428,114.691325 C142.967522,114.366223 143.363684,113.457719 143.609736,113.032972 C143.71155,112.85706 144.071164,112.341573 144.292415,112.288132 C145.481555,112.000884 147.213706,113.34694 147.4826,113.689299 C147.809581,114.10514 147.546561,114.664048 147.361859,115.083229 C147.177157,115.501853 145.856833,117.461928 144.3133,116.845681 C142.632709,116.175437 142.885287,115.583685 142.99428,114.691325" id="Fill-153" fill="#FF97A6"></path>
                    <path d="M154.189793,120.650579 C154.460398,121.705487 153.804384,122.77452 153.05934,124.048658 C151.542309,126.641006 147.927205,129.622659 146.850639,130.537439 C144.815826,132.26586 142.913386,129.553726 142.913386,129.553726 C142.913386,129.553726 146.725294,126.077673 148.768308,123.046298 C149.256218,122.321932 151.06787,119.476451 151.778356,119.015388 C152.76062,118.379167 153.95433,119.732409 154.189793,120.650579" id="Fill-154" fill="#FFC425"></path>
                    <path d="M141.023622,120.593471 C141.477118,119.99018 142.859568,119.435955 144.664647,118.953099 C144.782176,118.921875 145.128234,118.851064 145.128234,118.851064 C145.128234,118.851064 143.977874,122.958127 144.745968,126.802016 C145.644056,131.292687 146.692913,134.882882 146.692913,134.882882 C146.692913,134.882882 146.557577,134.896264 146.427583,134.871731 C144.42306,134.500389 143.021615,134.01363 142.917739,133.666821 C142.28973,131.561994 142.024993,129.980167 141.756101,126.836585 C141.441503,123.167215 141.023622,120.593471 141.023622,120.593471" id="Fill-155" fill="#D5EAF5"></path>
                    <path d="M134.50401,121.402348 C135.331435,122.846322 138.188976,129.307913 138.188976,129.307913 C138.188976,129.307913 136.701678,132.096723 135.327418,130.742445 C133.810855,129.248313 134.105216,129.078954 132.372903,126.443569 C131.484082,125.091061 130.295161,123.320762 130.718054,121.790043 C131.090452,120.442256 132.413643,119.794326 132.413643,119.794326 C132.413643,119.794326 133.676585,119.958374 134.50401,121.402348" id="Fill-156" fill="#F0B414"></path>
                    <path d="M147.801944,117.986327 C147.801944,117.986327 147.00814,131.891521 148.911783,135.727557 C148.911783,135.727557 152.082427,143.765664 153.721469,144.236531 C155.361082,144.707397 159.906737,143.011927 159.906737,143.011927 C159.906737,143.011927 160.406794,139.565936 155.538245,133.488015 C155.538245,133.488015 156.904685,123.458097 155.299932,120.495856 C154.640429,119.278867 152.834511,118.143283 151.345201,117.983985 C149.73359,117.811216 147.801944,117.986327 147.801944,117.986327" id="Fill-157" fill="#FFC425"></path>
                    <path d="M143.858268,118.851064 C143.858268,118.851064 142.390372,122.957081 142.799977,128.604042 C143.209006,134.251563 143.478043,134.32875 143.478043,134.32875 C143.478043,134.32875 141.41043,141.500436 140.662656,142.273425 C139.914882,143.047533 137.244094,140.747023 137.244094,140.747023 C137.244094,140.747023 140.346955,133.773339 140.486946,133.834865 L141.003129,127.047436 L140.07158,120.624689 C140.07158,120.624689 140.602166,119.541273 143.858268,118.851064" id="Fill-158" fill="#F0B414"></path>
                    <path d="M128.805278,127.388549 C128.796132,127.376696 128.508943,127.217526 128.588819,127.010945 C128.622355,126.924587 128.983323,127.013485 129.036981,127.038884 C128.891862,126.92882 128.80162,126.751871 128.877838,126.665513 C128.969299,126.561376 129.983913,127.001632 130.021107,127.035497 C129.930255,126.871248 129.658919,126.443692 129.718064,126.280289 C129.725381,126.25489 129.746722,126.228644 129.768673,126.22695 C129.865622,126.23711 130.174153,126.64604 130.254639,126.79251 C130.388783,127.038037 130.545487,127.300498 130.654021,127.579044 C130.72719,127.645929 130.896089,128.248741 130.933284,128.29446 C131.105231,128.292767 131.468639,128.521361 131.544857,128.760115 C131.600343,128.926905 131.572905,128.786361 131.510101,128.957384 C131.497906,128.98871 131.476565,129.002256 131.460102,129.028502 C131.485711,129.020036 131.508272,129.018342 131.529613,129.016649 C131.555832,129.008183 131.562539,129.056442 131.545466,129.076761 C131.1095,129.272336 130.415611,129.322288 129.858306,128.946378 C129.718674,128.871873 129.578433,128.785515 129.446729,128.69323 C129.405266,128.659365 129.360755,128.632272 129.319902,128.605179 C129.30161,128.595019 129.279049,128.578086 129.251611,128.556074 C129.219904,128.534061 129.183929,128.512895 129.151613,128.484955 C129.051615,128.412991 128.862594,128.129364 128.80101,128.023533 C128.755889,127.87283 128.860765,127.854204 128.89552,127.851664 C128.890642,127.839811 128.641867,127.62815 128.646135,127.520626 C128.654062,127.31997 128.780279,127.420721 128.805278,127.388549" id="Fill-159" fill="#FF97A6"></path>
                    <path d="M131.813547,130.125961 C133.552052,131.88879 147.999367,131.180294 146.597253,128.882821 C145.86209,127.678314 146.601917,126.582855 146.601917,126.582855 L132.616921,126.397163 C132.616921,126.397163 128.742888,127.011567 131.813547,130.125961" id="Fill-160" fill="#FFC425"></path>
                    <path d="M143.139257,116.023875 C143.389126,115.319938 143.837168,114.431428 143.80755,114.63405 C143.693386,115.414844 143.534525,116.490838 144.568468,116.966534 C145.50117,117.395651 146.25401,117.302491 146.827525,116.480358 C147.130707,115.834063 147.237871,115.45793 147.399425,114.756904 C147.427966,114.527498 147.30357,113.938846 146.873837,113.84918 C145.903439,113.645975 145.140367,113.433455 144.351986,112.76387 C143.880788,112.366195 143.663768,111.549301 143.653536,110.926296 C143.542602,110.206638 143.819397,109.265725 144.418761,108.589736 C144.594855,108.391189 144.895883,108.461059 144.796258,108.719577 C144.196356,110.222358 146.475338,109.977232 147.032698,109.814785 C147.35419,109.722208 147.644448,109.531813 147.990711,109.574317 C148.41075,109.619732 148.756475,109.925994 149.016038,110.264862 C149.606785,111.038088 149.74249,112.144941 149.121048,112.927482 C149.388149,113.074208 149.510392,113.379888 149.368763,113.953402 C149.126971,114.941477 148.409135,115.896363 147.617522,116.461143 C147.58952,116.793025 147.57121,117.254165 147.477509,117.625057 C147.436582,117.913852 147.357421,118.167712 147.222793,118.301046 C146.794137,118.727252 145.562022,118.86408 145.01651,118.850106 C144.490922,118.831474 143.444593,118.63351 143.143565,118.072805 C142.842537,117.516176 142.832305,116.826795 143.139257,116.023875" id="Fill-161" fill="#3B2B5B"></path>
                    <path d="M202.259061,207.382233 C202.971144,206.807883 201.400822,204.758393 200.84113,204.234014 C200.969277,204.481926 201.106429,204.942055 200.733071,204.956333 C200.186541,204.976451 199.410731,204.315137 199.30475,203.744681 C199.042221,204.05165 198.808093,204.523461 198.669555,204.855092 C198.491535,205.283421 201.283065,208.170099 202.259061,207.382233" id="Fill-162" fill="#30193B"></path>
                    <path d="M201.422536,206.574293 C201.604787,206.56433 201.398529,205.871656 201.335976,205.690422 C201.15102,205.287153 201.086437,205.223579 201.058035,205.168545 C200.983647,205.023843 201.009682,204.818413 201.009682,204.818413 L200.849748,204.687943 C200.849748,204.687943 200.837575,204.920416 200.665468,205.096431 C200.626584,205.135809 200.588037,205.191318 200.551181,205.25679 C200.602577,205.674292 201.155415,206.589 201.422536,206.574293" id="Fill-163" fill="#FF97A6"></path>
                    <path d="M211.787218,206.412236 C212.271963,205.927773 210.911984,203.798431 210.339362,203.283967 C210.471178,203.526518 210.611499,203.979067 210.229515,203.99311 C209.669648,204.012897 208.875914,203.363115 208.768193,202.801418 C208.49889,203.103331 208.259353,203.568007 208.118323,203.894174 C207.935481,204.315447 210.904897,207.293718 211.787218,206.412236" id="Fill-164" fill="#30193B"></path>
                    <path d="M208.981371,203.744506 C209.163985,203.734542 208.957699,203.041869 208.894799,202.860635 C208.709818,202.457366 208.645565,202.393792 208.617158,202.338758 C208.54276,202.194055 208.568799,201.988625 208.568799,201.988625 L208.408505,201.858156 C208.408505,201.858156 208.396669,202.091103 208.224201,202.266644 C208.185311,202.306022 208.147097,202.36153 208.110236,202.427002 C208.1613,202.844504 208.714552,203.759213 208.981371,203.744506" id="Fill-165" fill="#30193B"></path>
                    <path d="M186.76539,166.270906 C184.397566,167.402004 184.568077,173.07237 184.489073,176.72255 C184.360054,182.668109 198.389098,185.021274 198.389098,185.021274 C198.389098,185.021274 198.88301,201.637602 199.648034,204.317452 C199.861741,205.064079 202.456912,204.45133 202.456912,204.45133 C202.456912,204.45133 207.184603,186.74052 205.195881,181.387113 C204.006285,178.184338 196.529395,175.026189 196.529395,175.026189 L208.219602,182.658955 L208.843671,202.821336 L211.442821,202.440298 C211.442821,202.440298 217.125371,186.48535 215.312275,178.655772 C214.331839,174.421449 199.985645,169.25284 199.985645,169.25284 C199.985645,169.25284 196.557245,166.8848 196.184396,166.452843 C194.366753,166.337845 189.467983,165.649002 186.76539,166.270906" id="Fill-166" fill="#007991"></path>
                    <path d="M172.979755,178.695217 C172.979755,178.695217 172.156706,179.308193 171.590552,179.208998 C171.024398,179.110121 168.409863,179.267498 168.425265,179.132376 C168.441282,178.997254 168.985258,178.761347 169.911188,178.617005 C170.030086,178.598247 171.068754,178.538158 171.338586,178.55628 C171.608418,178.574402 172.410521,178.254879 172.956345,178.27777 C173.158411,178.286037 173.254515,178.486335 172.979755,178.695217" id="Fill-167" fill="#D45B1F"></path>
                    <path d="M171.941382,178.459366 C171.893769,178.41846 170.166842,178.807925 169.479094,179.042986 C169.210797,179.134015 169.522173,179.219858 169.522173,179.219858 C169.522173,179.219858 172.567157,179.117883 173.056894,178.553851 C173.545876,177.990971 171.941382,178.459366 171.941382,178.459366" id="Fill-168" fill="#D45B1F"></path>
                    <path d="M170.447171,177.174941 C170.274952,176.936841 170.268938,176.61298 170.441157,176.369802 C171.68332,174.617342 178.33097,166.492042 179.029687,165.616376 C180.059173,164.325446 181.049842,163.015333 181.632106,165.668849 C181.884147,166.818724 179.840482,171.330209 179.345695,172.586722 C177.755267,176.624828 174.167646,182.315528 170.447171,177.174941" id="Fill-169" fill="#FFE5B0"></path>
                    <path d="M192.798501,171.215829 C192.711707,173.860521 192.047244,175.368996 192.047244,175.368996 C192.047244,175.368996 193.798643,175.222037 194.787865,175.518815 C195.563837,175.752691 196.538114,176.234168 196.885865,176.424014 C199.974236,178.11147 208.135745,183.592987 208.135745,183.592987 L208.766295,203.744681 L211.395405,203.363845 C211.395405,203.363845 217.142202,187.417354 215.308032,179.591926 C214.317086,175.359847 199.808121,170.193978 199.808121,170.193978 C199.808121,170.193978 196.34096,167.827193 195.964469,167.395465 C195.071813,167.339998 192.940475,166.957447 192.940475,166.957447 C192.940475,166.957447 192.874948,168.907371 192.798501,171.215829" id="Fill-170" fill="#006A7F"></path>
                    <path d="M196.149051,157.436401 C196.830196,160.716633 197.077469,162.055993 196.244067,166.365665 C196.000229,167.625398 184.258774,169.380659 184.06645,168.686918 C183.996619,168.434284 183.493487,166.12678 183.377864,165.05151 C182.840389,160.030339 182.266281,157.966875 182.831231,156.030588 C183.225608,154.682061 182.336112,154.14414 189.110932,152.941121 C191.236219,152.563602 194.120497,153.095795 194.931575,153.255625 C196.236626,153.512842 195.864572,156.066679 196.149051,157.436401" id="Fill-171" fill="#FFE5B0"></path>
                    <path d="M185.902999,150.458863 C185.913393,150.45792 185.911503,150.440941 185.90111,150.441884" id="Stroke-172" stroke-linecap="round" stroke-linejoin="round"></path>
                    <path d="M184.695135,154.695035 C184.695135,154.695035 182.238426,154.825538 181.150043,159.044916 C179.959255,163.662069 178.818898,166.526847 178.818898,166.526847 L181.070795,168.843972 C181.070795,168.843972 182.944974,162.928636 185.717134,157.693735 C185.914226,157.321604 186.384572,155.905457 186.377953,155.625077 C186.356783,154.783367 184.695135,154.695035 184.695135,154.695035" id="Fill-173" fill="#FFE5B0"></path>
                    <path d="M209.069281,173.415231 C209.069281,173.415231 209.309139,174.967952 209.900502,175.040452 C210.491864,175.112953 212.720517,176.624053 212.816828,176.358889 C212.913753,176.093053 212.616231,175.3902 211.899725,174.686005 C211.807708,174.595379 210.920664,173.999264 210.662403,173.909309 C210.404755,173.819355 209.942829,172.837912 209.432442,172.627795 C209.2435,172.551266 208.9926,172.889602 209.069281,173.415231" id="Fill-174" fill="#D45B1F"></path>
                    <path d="M210.666963,174.048773 C210.708351,174.027994 211.545986,174.893593 211.852633,175.306435 C211.971624,175.467197 211.766565,175.445871 211.766565,175.445871 C211.766565,175.445871 210.086591,174.422243 210.006167,173.787398 C209.925272,173.153099 210.666963,174.048773 210.666963,174.048773" id="Fill-175" fill="#BF4D15"></path>
                    <path d="M210.78903,172.846842 C211.017277,172.64312 210.97551,172.275161 210.788442,172.030237 C209.436612,170.26312 203.0816,166.015287 202.322151,165.133445 C201.203862,163.832714 200.247933,163.441293 199.644375,166.137177 C199.382598,167.305145 200.517358,169.166111 201.616235,170.185294 C204.906982,173.234829 206.611182,176.592237 210.78903,172.846842" id="Fill-176" fill="#F9CB9D"></path>
                    <path d="M194.446145,152.808511 C194.446145,152.808511 198.027304,152.808511 199.282308,156.397875 C200.926147,161.101528 202.440945,166.178788 202.440945,166.178788 L199.908097,167.900709 C199.908097,167.900709 197.472887,157.359513 194.060737,155.873399 C193.662196,155.699365 193.035836,154.160982 192.998151,153.871718 C192.883385,153.002145 194.446145,152.808511 194.446145,152.808511" id="Fill-177" fill="#F9CB9D"></path>
                    <path d="M197.114951,157.456438 C197.773101,160.750692 198.012026,162.095779 197.20676,166.423875 C197.122141,166.8801 195.591803,167.401336 193.661598,167.84778 C193.584722,167.86619 193.429863,167.900709 193.429863,167.900709 C193.429863,167.900709 193.614035,164.683547 192.871265,160.354876 C192.337002,157.244722 190.99526,152.849314 191.109192,152.840684 C191.209851,152.83263 191.311615,152.826302 191.413379,152.821124 C193.258965,152.733676 195.288169,153.12489 195.938577,153.257788 C197.19957,153.516104 196.840077,156.080859 197.114951,157.456438" id="Fill-178" fill="#F9CB9D"></path>
                    <path d="M191.101279,151.100362 C191.101279,151.100362 191.121874,154.077766 190.983487,154.374166 C190.8451,154.669894 190.393807,154.989094 190.205196,154.19579 C190.016585,153.403156 190.448005,150.921986 190.448005,150.921986 L191.101279,151.100362 Z" id="Fill-179" fill="#D45B1F"></path>
                    <path d="M191.085518,152.779056 C190.786733,152.894663 190.230873,152.657498 190.15748,152.2856 C190.193976,151.947278 190.193575,152.143216 190.263759,151.865248 L191.102362,151.995306 C191.100758,152.266049 191.102362,152.466236 191.085518,152.779056" id="Fill-180" fill="#B24711"></path>
                    <path d="M190.506093,155.980693 C190.506093,155.980693 190.15748,161.827218 190.15748,163.774541 C190.15748,165.721295 190.627052,166.175671 190.627052,166.175671 L192.525811,166.957447 L193.937008,165.498093 C193.937008,165.498093 191.570539,156.751081 190.815626,155.980693 C190.060712,155.210304 190.506093,155.980693 190.506093,155.980693" id="Fill-181" fill="#FE5D55"></path>
                    <path d="M190.201642,154.059169 C190.208434,154.08168 190.5854,154.708223 190.832344,154.694824 C191.079289,154.681424 191.080744,154.334655 191.101606,154.05113 C191.122468,153.768141 190.707659,153.657732 190.368051,153.843176 C190.028442,154.028083 190.201642,154.059169 190.201642,154.059169" id="Fill-182" fill="#FE635B"></path>
                    <path d="M191.029643,152.808511 C191.029643,152.808511 191.036305,153.021326 191.000432,153.196734 C190.963535,153.382758 191.002995,153.472737 190.629921,153.931731 L191.34532,154.695035 C191.34532,154.695035 192.032021,153.952962 191.029643,152.808511" id="Fill-183" fill="#FFE5B0"></path>
                    <path d="M189.913566,152.808511 C189.913566,152.808511 189.900542,152.943438 189.984388,153.135279 C190.053174,153.291795 190.174059,153.513566 190.629921,153.752018 L190.22168,154.695035 C190.22168,154.695035 189.257857,154.074371 189.913566,152.808511" id="Fill-184" fill="#F9CB9D"></path>
                    <path d="M189.862626,150.920437 C189.862626,150.920437 188.780829,151.024488 187.808055,149.526715 C186.540245,147.575615 188.157602,146.7972 188.157602,146.7972 C188.157602,146.7972 186.891478,144.83429 189.862626,143.951262 C192.833774,143.068795 190.583075,140.430396 192.589878,141.95348 C193.256378,142.459675 195.00355,145.438349 193.01473,147.069421 C193.01473,147.069421 193.554223,150.049782 192.63596,150.485672 C191.717697,150.921 189.862626,150.920437 189.862626,150.920437" id="Fill-185" fill="#3B2B5B"></path>
                    <path d="M190.183089,150.921373 C189.677415,150.93337 189.169973,150.768267 188.727951,150.500903 C188.285339,150.228398 187.926417,149.823352 187.691851,149.364606 C187.46141,148.909858 187.279886,148.404837 187.33175,147.847829 C187.373595,147.287964 187.723087,146.749808 188.294769,146.492156 L188.167467,146.87035 C187.982407,146.557854 187.867481,146.249357 187.827404,145.89687 C187.788506,145.552382 187.846264,145.172474 188.037218,144.855407 C188.224635,144.534913 188.518727,144.310396 188.819302,144.145293 C189.134612,143.987617 189.423989,143.884213 189.727511,143.777953 L190.632183,143.49345 C190.928044,143.399758 191.215063,143.314065 191.408375,143.130109 C191.599328,142.942726 191.72722,142.662793 191.825644,142.377148 C191.895778,142.084075 191.965323,141.788147 192.047244,141.489362 C192.000095,142.0995 192.052548,142.74106 191.624081,143.318635 C191.384211,143.593426 191.054757,143.725394 190.765379,143.844223 L189.892533,144.191567 C189.60787,144.308111 189.310831,144.431509 189.070371,144.566905 C188.834037,144.716012 188.624813,144.890827 188.501046,145.107918 C188.24821,145.535815 188.362546,146.137955 188.622455,146.595559 C188.697304,146.727527 188.647798,146.893202 188.511655,146.965756 L188.495153,146.973754 C188.156858,147.129145 187.863355,147.493628 187.819153,147.903244 C187.761985,148.31743 187.875143,148.779604 188.051952,149.202359 C188.228171,149.627971 188.502225,150.01245 188.869398,150.314662 C189.233625,150.61916 189.69097,150.828824 190.183089,150.921373" id="Fill-186" fill="#7F65C1"></path>
                    <path d="M190.445355,150.895662 C190.203305,150.541686 190.15748,148.989067 190.15748,148.989067 C190.382492,147.868141 192.902863,148.038322 193.311762,148.237434 C193.760611,148.455833 193.838161,149.033314 193.906899,149.461603 C193.974461,149.888758 193.936274,150.677263 193.710674,151.068112 C193.503874,151.425492 192.821788,151.799891 192.414064,151.838465 C191.187953,151.956457 190.802554,151.692109 190.445355,150.895662" id="Fill-187" fill="#D45B1F"></path>
                </g>
                <text id="Booked" transform="translate(99.790429, 147.663366) rotate(-18.000000) translate(-99.790429, -147.663366) " font-family="Futura-Medium, Futura" font-size="11" font-weight="400" fill="#000000">
                    <tspan x="80.8465814" y="153">Booked</tspan>
                </text>
            </g>
        </g>
    </g>
</svg>