<?xml version="1.0" encoding="UTF-8"?>
<svg width="202px" height="175px" viewBox="0 0 202 175" version="1.1" xmlns="http://www.w3.org/2000/svg" xmlns:xlink="http://www.w3.org/1999/xlink">
    <title>Group 83</title>
    <defs>
        <polygon id="path-1" points="0.506001168 0.913472562 185.506001 0.913472562 185.506001 133.913473 0.506001168 133.913473"></polygon>
    </defs>
    <g id="Visual-Designs" stroke="none" stroke-width="1" fill="none" fill-rule="evenodd">
        <g id="Facility_Area-selection-Drawer---CHECK-BOX-SELECTED" transform="translate(-158.000000, -8.000000)">
            <g id="Group-83" transform="translate(158.000000, 8.000000)">
                <g id="Group-3" transform="translate(15.000000, 3.086527)">
                    <mask id="mask-2" fill="white">
                        <use xlink:href="#path-1"></use>
                    </mask>
                    <g id="Clip-2"></g>
                    <path d="M21.9258412,105.723178 C3.22358413,95.3229105 -10.5284349,64.3906062 12.8064972,52.2754418 C26.9246421,44.9455471 51.6599621,54.5555296 62.7016655,49.355396 C74.2662926,43.9087836 75.6190699,30.1347975 81.8793943,20.1126441 C88.9862361,8.73533216 103.298633,1.27206014 118.670207,0.928161938 C134.041782,0.584105335 151.866892,6.29113631 161.55439,17.2925521 C171.241888,28.2939679 172.492619,44.2496721 167.705368,56.6133746 C165.885689,61.3127886 162.970172,65.8780332 163.445167,70.9573035 C164.241852,79.4758725 173.418805,85.1339562 179.328557,92.3082967 C187.088299,101.728351 187.731678,114.117398 180.154125,122.6705 C168.84247,135.438611 140.407167,134.121945 130.761408,133.61283 C116.532172,132.861989 56.1709126,116.830408 50.1097594,115.358188 C42.4368269,113.494548 28.7503519,109.518413 21.9258412,105.723178" id="Fill-1" fill="#DFF2F6" mask="url(#mask-2)"></path>
                </g>
                <path d="M158.808013,0.0865274383 C159.490849,0.136996435 160.169543,0.237934428 160.84256,0.363633772 C161.516959,0.486178804 162.184454,0.64200183 162.849494,0.811861546 C164.177273,1.15804732 165.485416,1.58892638 166.769933,2.09077746 C169.335439,3.10047282 171.809512,4.3972106 174.099183,5.99849722 C174.382535,6.20273894 174.671716,6.39814859 174.948932,6.61201096 L175.782418,7.25012833 C176.055184,7.4699839 176.320433,7.70009098 176.589518,7.92467802 C176.860136,8.14705703 177.122317,8.38094929 177.377748,8.62272732 C177.898888,9.09303528 178.394254,9.59457093 178.881797,10.1016266 C179.1225,10.3583877 179.354306,10.624927 179.588719,10.8873658 L179.93497,11.2863863 L180.265419,11.7000744 C182.035638,13.892006 183.445032,16.4048889 184.264712,19.0865274 C184.057606,18.8040588 183.865074,18.5163855 183.665945,18.2340745 L183.375383,17.807927 L183.066719,17.3950275 C182.858692,17.121864 182.6657,16.841288 182.457367,16.5719097 L181.820861,15.7757613 C180.960067,14.7294759 180.076722,13.7172571 179.120046,12.7812149 L178.76904,12.423989 L178.403152,12.0817462 C178.158767,11.854478 177.92282,11.619324 177.675367,11.3961564 C177.424538,11.176774 177.172943,10.9584956 176.92641,10.735328 L176.740628,10.568938 L176.548097,10.4099607 L176.163186,10.0923214 C175.139929,9.24333826 174.084303,8.43346859 172.988635,7.6800611 C170.810034,6.15368939 168.512231,4.79433851 166.140945,3.54680801 C163.767357,2.29754263 161.329183,1.15741646 158.808013,0.0865274383" id="Fill-4" fill="#DFF2F6"></path>
                <path d="M82.7390468,37.5325733 C82.422213,40.2781039 79.7683969,42.265176 76.8113921,41.9711554 C73.8545536,41.6769804 71.7142612,39.2129555 72.0310951,36.4674248 C72.3477625,33.7220487 75.0015786,31.7348222 77.9585835,32.0288427 C80.9155883,32.3230177 83.0558807,34.7870426 82.7390468,37.5325733" id="Fill-8" fill="#D6EEF3"></path>
                <path d="M113.410766,30.7215645 C111.941898,30.5629432 110.844932,29.4829841 110.960752,28.3091586 C111.076572,27.1353332 112.361322,26.3122637 113.83019,26.4707429 C115.299058,26.6292221 116.396025,27.7093233 116.280204,28.8831487 C116.164384,30.0569742 114.879634,30.8800437 113.410766,30.7215645" id="Fill-15" fill="#FFFFFF"></path>
                <path d="M103.357344,35.8487957 C102.353975,36.7810048 101.091881,36.9440908 100.538395,36.2130105 C99.9849089,35.4820862 100.349489,34.1338988 101.352858,33.2016896 C102.356227,32.2696364 103.618321,32.1065504 104.171807,32.8374747 C104.725293,33.568555 104.360713,34.9165865 103.357344,35.8487957" id="Fill-17" fill="#FFFFFF"></path>
                <path d="M33.7915175,90.8292859 C34.7356588,89.5372672 34.7649626,87.8539253 33.8571022,87.06961 C32.9491023,86.2851429 31.4479093,86.6967985 30.5036284,87.9886655 C29.5596267,89.280836 29.5301833,90.9641778 30.4381832,91.7486449 C31.3460436,92.5329602 32.8473762,92.1214564 33.7915175,90.8292859" id="Fill-19" fill="#FFFFFF"></path>
                <path d="M29.3812435,83.7303143 C29.99818,82.9260514 29.8789047,81.7640533 29.1144049,81.1351095 C28.350051,80.5061657 27.230204,80.6484142 26.6131217,81.452677 C25.9961851,82.2569398 26.1156063,83.418787 26.8799602,84.0477308 C27.6443141,84.6766746 28.7641611,84.5345771 29.3812435,83.7303143" id="Fill-21" fill="#FFFFFF"></path>
                <g id="Group-2" transform="translate(0.000000, 81.000000)">
                    <path d="M24.514175,62.4194686 C27.6761947,63.269364 29.7383361,66.1472261 30.5026002,67.3916467 C30.9184279,65.6923023 31.3995594,64.0817706 31.9157284,62.5707628 C26.7851993,61.8837653 27.2454575,55.7968898 27.2454575,55.7968898 C30.5838573,57.6789179 31.7846734,60.4115852 32.1933445,61.7765056 C32.8757551,59.8699312 33.6073673,58.1332467 34.3255608,56.5997754 C34.4338042,56.3684455 34.5424949,56.1402398 34.6514838,55.9147118 C32.1674018,56.2516649 30.8200248,49.1570541 30.8200248,49.1570541 C33.6203386,51.1020099 34.7240934,53.7591045 35.1065236,54.9950455 C36.0057193,53.2113512 36.9120715,51.625217 37.7489452,50.2710077 C34.2009169,47.4660405 36.4221433,42.6436689 36.4221433,42.6436689 C38.5565961,45.009035 38.6360641,47.6409883 38.4312067,49.1927578 C39.8939837,46.93361 41.0457473,45.4886539 41.4011913,45.0560448 C41.6562939,41.1766956 45.4497335,38.5850577 45.4497335,38.5850577 C45.7789366,42.8885364 43.5912567,44.72653 42.2993432,45.4300405 C42.2818991,45.4655953 42.2616221,45.5002576 42.2346358,45.5316471 C42.1888634,45.5850577 40.770815,47.2678853 38.9144256,50.2153695 C40.0642509,49.2659502 42.5371508,47.7402147 45.9345925,48.4975782 C45.9345925,48.4975782 42.7166619,52.9264659 38.4276284,51.0015934 C37.6661971,52.2524109 36.8491532,53.695433 36.0331529,55.3105764 C37.179549,54.7744268 39.4565372,54.0822225 42.7485683,54.8037335 C42.7485683,54.8037335 36.4908764,58.3528241 35.3428402,56.7217628 C34.5991513,58.2910865 33.8711174,59.9989106 33.2019763,61.8282758 C35.8297865,59.7354475 40.3233791,59.9045935 40.3233791,59.9045935 C37.0956082,63.9356832 33.9821936,63.4005749 32.7919634,62.9837349 C32.2802672,64.48061 31.813598,66.0533553 31.4120835,67.6909622 C34.3723768,65.2885536 38.4179372,65.6682023 38.4179372,65.6682023 C34.8511229,69.5203275 32.1195421,68.5863798 31.2984726,68.1613577 C30.8941253,69.8779589 30.5637294,71.6646286 30.3327803,73.5125895 C32.5449119,71.3473125 37.8583813,71.2357386 37.8583813,71.2357386 C34.2061352,76.2213056 31.3309755,75.4390983 30.190394,74.8056563 C29.8640237,78.1420126 29.8689439,81.6619452 30.3521628,85.3126424 C30.3861566,85.5708987 30.2042599,85.8083279 29.9449826,85.8422464 C29.8514997,85.8544451 29.7602532,85.8385272 29.6806361,85.8008896 C29.5407844,85.7346891 29.4358211,85.6009493 29.4142023,85.4359687 C28.9126446,81.6482588 28.9199503,78.0093141 29.260932,74.5929221 C26.6729303,76.1018472 22.6610656,70.7074735 22.6610656,70.7074735 C25.7123073,70.5118473 28.3609909,72.7803673 29.3505384,73.7549279 C29.5706036,71.8731973 29.8905627,70.0633203 30.2802987,68.3371981 C27.2948081,69.7546326 24.514175,62.4194686 24.514175,62.4194686" id="Fill-23" fill="#FE635B"></path>
                    <path d="M26.9383271,66.0870953 C24.1077547,67.5329641 22.4737674,70.4338877 21.8843802,71.6588537 C21.346941,70.3230659 20.7577022,69.0769133 20.1453095,67.9227665 C24.8008894,66.1598406 23.8227828,61.1368574 23.8227828,61.1368574 C20.9242327,63.493154 20.0690202,66.0730203 19.8174434,67.3175432 C19.0162568,65.8682667 18.1849403,64.5738147 17.3847927,63.4473734 C17.2641249,63.2774367 17.1433087,63.1101669 17.0224925,62.9454158 C19.3377407,62.6559161 19.9300964,56.3666309 19.9300964,56.3666309 C17.5321766,58.6516638 16.7591903,61.1454506 16.5202295,62.2751514 C15.5306943,60.9796623 14.5525876,59.8524802 13.6593789,58.9044205 C16.6665745,55.7219977 14.1843505,52.170811 14.1843505,52.170811 C12.4371166,54.6567454 12.6037955,56.8928863 12.9337395,58.1531139 C11.3825721,56.5870893 10.1916271,55.6353256 9.82531947,55.3527893 C9.23711967,52.1426611 5.5121511,50.8342823 5.5121511,50.8342823 C5.60165008,54.5365897 7.78123981,55.5805073 9.0334835,55.8751925 C9.05263005,55.9012683 9.07459664,55.9255661 9.10220329,55.9460118 C9.14910491,55.9802362 10.6067658,57.0711198 12.582571,59.1265085 C11.438676,58.59166 9.02532025,57.8768001 5.9698872,59.299112 C5.9698872,59.299112 9.33300084,62.2886337 13.1019026,59.6766173 C13.9162988,60.5548948 14.799118,61.582367 15.6967795,62.7551816 C14.5937008,62.5677624 12.4363745,62.509981 9.47474467,63.8777709 C9.47474467,63.8777709 15.5532546,65.4242387 16.4602667,63.7850243 C17.2874273,64.9357635 18.1126584,66.2069547 18.8946985,67.594005 C16.2872056,66.4367469 12.1702523,67.6163768 12.1702523,67.6163768 C15.5060561,70.2685439 18.3204504,69.0988406 19.3770728,68.4730234 C19.9841223,69.6162065 20.5565893,70.8337647 21.0751787,72.1212532 C18.1338829,70.7799835 14.4479495,72.033544 14.4479495,72.033544 C18.0792633,74.4563633 20.5062739,73.0389407 21.2225627,72.4913506 C21.750948,73.8444729 22.2177379,75.2738963 22.5984426,76.777843 C20.3667564,75.4635379 15.4699894,76.5959056 15.4699894,76.5959056 C19.283418,79.9541912 21.8561798,78.6314412 22.8474961,77.8345021 C23.4515772,80.5705264 23.7680147,83.5376763 23.6564007,86.7258772 C23.6486828,86.9512247 23.8376251,87.1093088 24.0792575,87.0781957 C24.1662333,87.0667876 24.2487564,87.0322669 24.3185151,86.9821896 C24.4411124,86.8940359 24.5254166,86.7572866 24.5303146,86.6131293 C24.6462328,83.3056617 24.3078287,80.240876 23.68282,77.4406995 C26.2002202,78.1149642 29.3981392,72.6433602 29.3981392,72.6433602 C26.5742458,73.1829498 24.3450828,75.7057754 23.5240076,76.755323 C23.1501304,75.2204115 22.69091,73.7690608 22.1749922,72.4045304 C25.0496462,72.9098955 26.9383271,66.0870953 26.9383271,66.0870953" id="Fill-25" fill="#FFD5D3"></path>
                    <path d="M34.2222098,60.040523 C30.3106001,61.1722779 27.6596887,64.6280444 26.6695518,66.1168339 C26.2332529,64.1473174 25.7132721,62.2844632 25.1458322,60.5394751 C31.4623346,59.513038 31.1610207,52.4131282 31.1610207,52.4131282 C26.989051,54.7596972 25.3996869,58.008264 24.8399351,59.6226879 C24.086059,57.4222193 23.2643209,55.4226761 22.4505665,53.6602098 C22.3280006,53.3944506 22.2045477,53.1322766 22.0806512,52.8732398 C25.1102009,53.1593156 27.0672625,44.802166 27.0672625,44.802166 C23.5520327,47.1989289 22.0846431,50.3548759 21.5627403,51.8170746 C20.5380071,49.769877 19.4958278,47.9543783 18.5286074,46.4064316 C22.9973077,42.9714299 20.4837469,37.4273844 20.4837469,37.4273844 C17.7660083,40.2869479 17.5550295,43.3689484 17.7391,45.1750356 C16.0441726,42.5963195 14.6952091,40.9562011 14.2782783,40.4656146 C14.1332396,35.9391924 9.59638138,33.0729066 9.59638138,33.0729066 C9.00735567,38.1208383 11.6088859,40.1755053 13.1615837,40.9421587 C13.1813953,40.9830907 13.2047553,41.0225288 13.2365425,41.0583817 C13.2902113,41.1185846 14.9554213,43.025508 17.1029108,46.3920905 C15.734875,45.3317425 12.7703784,43.6545761 8.57445726,44.6881838 C8.57445726,44.6881838 12.3265392,49.728945 17.6654718,47.2906525 C18.5445749,48.720733 19.4834086,50.3729517 20.4136671,52.226544 C19.032177,51.6494625 16.2715626,50.9388292 12.2064868,51.9258283 C12.2064868,51.9258283 19.7215914,55.8049571 21.1985911,53.8473916 C22.0423586,55.6504911 22.8608442,57.6164223 23.6017096,59.7271093 C20.4720669,57.3933877 14.9583782,57.7867233 14.9583782,57.7867233 C18.7394384,62.3615468 22.5777156,61.5999725 24.0542718,61.0608353 C24.6166849,62.7892414 25.1205502,64.6086241 25.5420644,66.5065842 C22.0182594,63.8253887 17.044511,64.4453442 17.044511,64.4453442 C21.2490072,68.7960874 24.6364965,67.5848587 25.660934,67.0518463 C26.0824481,69.0421276 26.4102267,71.1177087 26.6133697,73.2693278 C23.9961676,70.8325292 17.4899764,70.933216 17.4899764,70.933216 C21.7502113,76.6060329 25.3071342,75.5660015 26.7320915,74.7754462 C26.988016,78.6635383 26.8301146,82.7809392 26.0805261,87.0722264 C26.0275966,87.3757805 26.2404975,87.6454238 26.5565961,87.6739567 C26.6705868,87.6842644 26.7830989,87.6615576 26.882157,87.6140526 C27.0566174,87.5305453 27.1908632,87.3695063 27.2245725,87.1757515 C28.0025478,82.7234252 28.1506913,78.4673933 27.8802776,74.4860839 C30.9862646,76.138452 36.1352127,69.6541656 36.1352127,69.6541656 C32.4048644,69.5584086 29.061286,72.3269954 27.8065016,73.5099901 C27.6182913,71.3183353 27.3042625,69.215267 26.9009337,67.2133335 C30.4982189,68.7412624 34.2222098,60.040523 34.2222098,60.040523" id="Fill-27" fill="#FFAFAB"></path>
                    <path d="M32.6436385,81.457344 L36.1352127,81.457344 L36.1352127,84.4423083 C36.1352127,89.2759921 32.9464117,93.2309324 29.0489382,93.2309324 L24.2353392,93.2309324 C23.1440346,93.2309324 22.1085712,92.9205342 21.1829888,92.3680877 C18.8022335,90.9470016 17.1489145,87.9226617 17.1489145,84.4423083 L17.1489145,81.457344 L32.6436385,81.457344 Z" id="Fill-29" fill="#36A0B5"></path>
                    <polygon id="Fill-31" fill="#CB7D60" points="68.7398394 93.2036889 66.7582744 93.2036889 69.3671457 53.8965885 72.8828867 53.8965885"></polygon>
                    <polygon id="Fill-33" fill="#CB7D60" points="104.586689 93.2036889 106.568255 93.2036889 103.959238 53.8965885 100.443642 53.8965885"></polygon>
                    <path d="M106.487844,56.4862855 L67.4511465,56.4862855 C66.059558,56.4862855 64.9208907,55.2911865 64.9208907,53.8306317 L64.9208907,50.42763 C64.9208907,48.9670752 66.059558,47.7719762 67.4511465,47.7719762 L106.487844,47.7719762 C107.879432,47.7719762 109.018099,48.9670752 109.018099,50.42763 L109.018099,53.8306317 C109.018099,55.2911865 107.879432,56.4862855 106.487844,56.4862855" id="Fill-35" fill="#FFA685"></path>
                    <path d="M97.7120725,47.8827684 L75.6144564,47.8827684 C73.1015842,47.8827684 71.045503,45.834151 71.045503,43.3300708 L71.045503,14.3519287 C71.045503,11.847997 73.1015842,9.79937973 75.6144564,9.79937973 L97.7120725,9.79937973 C100.225094,9.79937973 102.281026,11.847997 102.281026,14.3519287 L102.281026,43.3300708 C102.281026,45.834151 100.225094,47.8827684 97.7120725,47.8827684" id="Fill-37" fill="#F18B65"></path>
                    <path d="M134.935156,32.5803187 C134.795084,32.5803187 134.653233,32.5436892 134.523981,32.4665587 C134.14097,32.2379965 134.014682,31.7408178 134.242207,31.3559101 L147.606707,8.74909517 L135.87223,5.2624416 C135.444899,5.13557839 135.20107,4.68470775 135.327357,4.25542767 C135.453941,3.8264454 135.901875,3.58135521 136.329947,3.70821842 L150.053002,7.78556018 L135.629587,32.1836478 C135.478694,32.4387143 135.210408,32.5803187 134.935156,32.5803187" id="Fill-39" fill="#007991"></path>
                    <path d="M149.440541,8.03494959 C149.440541,8.7518015 148.892096,9.33282562 148.215618,9.33282562 C147.539141,9.33282562 146.990696,8.7518015 146.990696,8.03494959 C146.990696,7.31809767 147.539141,6.73707356 148.215618,6.73707356 C148.892096,6.73707356 149.440541,7.31809767 149.440541,8.03494959" id="Fill-41" fill="#0A6374"></path>
                    <path d="M134.863978,5.04680763 L130.944344,5.04680763 C130.673735,5.04680763 130.454243,4.73968677 130.454243,4.36078751 C130.454243,3.98188825 130.673735,3.6747674 130.944344,3.6747674 L134.863978,3.6747674 C135.134587,3.6747674 135.353932,3.98188825 135.353932,4.36078751 C135.353932,4.73968677 135.134587,5.04680763 134.863978,5.04680763" id="Fill-43" fill="#0A6374"></path>
                    <path d="M139.641161,33.2194186 L127.391936,33.2194186 C127.391936,32.128481 128.208581,31.2355229 129.20662,31.2355229 L137.826328,31.2355229 C138.824516,31.2355229 139.641161,32.128481 139.641161,33.2194186" id="Fill-45" fill="#FE635B"></path>
                    <path d="M125.146414,6.82585413 L125.146414,6.82585413 C124.118003,5.88510474 124.051589,4.2798759 124.99917,3.25856047 L127.269804,0.810967234 C128.217231,-0.210195896 129.834008,-0.275988956 130.862419,0.664760432 C131.890831,1.60550982 131.957091,3.21073866 131.009817,4.23190179 L128.739029,6.67949503 C127.791602,7.70081046 126.174979,7.76660352 125.146414,6.82585413" id="Fill-47" fill="#FE635B"></path>
                    <path d="M134.12901,5.71001701 L134.12901,3.62220283 C134.12901,3.19184869 134.518998,2.92281769 134.831068,3.13807431 L136.344802,4.18206095 C136.656872,4.39715847 136.656872,4.93506137 136.344802,5.15031799 L134.831068,6.19414553 C134.518998,6.40940215 134.12901,6.14037115 134.12901,5.71001701" id="Fill-49" fill="#0A6374"></path>
                    <path d="M121.756685,8.57445726 L124.32963,10.80275 L124.16522,11.0516735 C123.629852,11.8615448 122.61286,12.0228549 121.905345,11.4100348 C121.19783,10.7972148 121.057045,9.63325212 121.592275,8.8233808 L121.756685,8.57445726 Z" id="Fill-51" fill="#FFBB2A"></path>
                    <path d="M127.883877,14.2240392 L117.592557,6.4702222 L118.250473,5.60404783 C120.39178,2.78568883 124.459198,2.22450122 127.289378,4.35671484 C130.119559,6.48907811 130.683101,10.5396555 128.541943,13.3578648 L127.883877,14.2240392 Z" id="Fill-53" fill="#FE635B"></path>
                    <path d="M52.9148416,30.6416292 C53.2652698,30.7402294 54.1830375,30.6474784 54.4702058,30.3526804 L54.4702058,28.0865469 C54.1217768,27.8828288 53.4746128,27.5925431 53.0046621,27.7350956 C52.9591093,27.7489665 52.8831403,27.8484023 52.8190237,28.0830374 C52.5865473,28.9341744 52.7610474,30.3404808 52.9148416,30.6416292 L52.9148416,30.6416292 Z M53.3193905,31.3796136 C53.0425037,31.3796136 52.8011738,31.3433017 52.6538055,31.284644 C51.9947892,31.0227382 52.0606194,28.8832933 52.0613334,28.8616048 C52.0981755,27.7908143 52.3679224,27.150016 52.8413003,27.008876 C53.7766322,26.7300466 54.9148811,27.5022908 54.9628615,27.5353165 L55.121511,27.6444165 L55.121511,30.557913 L55.0673902,30.652061 C54.7565173,31.1926319 53.9468483,31.3796136 53.3193905,31.3796136 L53.3193905,31.3796136 Z" id="Fill-55" fill="#F84E46"></path>
                    <path d="M58.0072073,24.6749489 C58.3493708,24.2615169 58.7598156,23.9007845 59.0558022,23.4542483 C59.3517887,23.0078605 59.5227191,22.4343999 59.3213574,21.9399145 C59.0839625,21.3573985 58.4255249,21.0682187 57.8161407,20.8776095 C57.2067566,20.6871488 56.5386294,20.5082671 56.1499861,20.0100704 C55.7135005,19.450861 55.7699727,18.6765481 55.7798137,17.9723035 C55.789806,17.2679104 55.6671722,16.4518833 55.0521863,16.087885 C54.6041943,15.8227541 53.6909508,15.8978696 53.2538597,16.1800722 C52.8170713,16.4624232 52.5247183,16.9192024 52.3339546,17.3970615 C51.9117006,18.4541707 51.9263864,19.8959127 52.730622,20.7126821 C53.3583255,21.3502729 54.2335677,21.6200057 54.2979126,22.4250476 C54.3552931,23.1419104 53.4022315,24.3937854 53.6723287,25.0622537 C54.0476487,25.9911025 55.4140318,26.259054 55.7331825,27.207795 C55.8229626,27.4742619 55.8144842,27.7615118 55.8455212,28.0405969 C55.8764067,28.3196821 55.9601308,28.614206 56.1813259,28.7923454 C56.484731,29.0368418 56.908499,28.9226841 56.9230334,28.5426533 C56.9404444,28.0891399 56.8549035,27.6524014 56.9159176,27.1922078 C57.0373403,26.2770164 57.4134173,25.392554 58.0072073,24.6749489" id="Fill-57" fill="#C0E9F1"></path>
                    <path d="M58.7962784,26.9573971 L58.7388394,31.519404 C58.7279259,32.3868196 58.0769985,33.1102042 57.2314965,33.1812653 C56.9783342,33.2024075 56.6852517,33.2151809 56.3465052,33.2151809 C56.0114923,33.2151809 55.718697,33.200352 55.4639551,33.1764203 C54.6196018,33.0971372 53.9682436,32.3830022 53.9567558,31.5160271 L53.9478528,30.8333117 L53.9152562,28.3795006 L53.9062095,27.6847459 L53.8965885,26.9482942 C55.065472,26.9892572 57.6645866,26.9892572 58.7962784,26.9573971" id="Fill-59" fill="#FE635B"></path>
                    <path d="M58.1157829,32.8403446 L54.5770839,32.8403446 C54.539448,32.8403446 54.5090497,32.7385209 54.5090497,32.6129969 C54.5090497,32.4879118 54.539448,32.3860881 54.5770839,32.3860881 L58.1157829,32.3860881 C58.1534189,32.3860881 58.1838171,32.4879118 58.1838171,32.6129969 C58.1838171,32.7385209 58.1534189,32.8403446 58.1157829,32.8403446" id="Fill-61" fill="#F14036"></path>
                    <path d="M53.9001486,28.3209393 C53.8613988,28.3209393 53.8299061,28.2864199 53.8293584,28.2435735 L53.8222312,27.6400895 C53.8216906,27.5969403 53.8529095,27.5612097 53.89207,27.5607555 L53.8930285,27.5607555 C53.9316413,27.5607555 53.9632709,27.5951235 53.9638186,27.6379699 L53.9709387,28.2416053 C53.9714864,28.2847545 53.9401306,28.3203337 53.901107,28.3209393 L53.9001486,28.3209393 Z" id="Fill-63" fill="#F14036"></path>
                    <path d="M53.8965885,31.3832455 C53.8554547,31.3832455 53.8222312,31.3427303 53.8222312,31.2927848 L53.8222312,30.7135223 C53.8222312,30.6637515 53.8554547,30.6230616 53.8965885,30.6230616 C53.9377223,30.6230616 53.9709458,30.6637515 53.9709458,30.7135223 L53.9709458,31.2927848 C53.9709458,31.3427303 53.9377223,31.3832455 53.8965885,31.3832455" id="Fill-65" fill="#F14036"></path>
                    <path d="M101.177523,15.9239921 L121.026477,15.9239921 C121.624715,15.9239921 122.036807,16.5398652 121.822253,17.1129082 L115.798598,33.2042833 L94.3190299,33.2042833 L99.886793,16.863977 C100.078708,16.300958 100.59645,15.9239921 101.177523,15.9239921" id="Fill-67" fill="#FFBBA2"></path>
                    <path d="M95.819103,33.2206292 L84.8569607,33.2206292 C84.6705522,33.2206292 84.5196501,33.0504185 84.5196501,32.8405373 C84.5196501,32.630656 84.6705522,32.4604453 84.8569607,32.4604453 L95.819103,32.4604453 C96.005361,32.4604453 96.1564136,32.630656 96.1564136,32.8405373 C96.1564136,33.0504185 96.005361,33.2206292 95.819103,33.2206292" id="Fill-69" fill="#FFE5DC"></path>
                    <polygon id="Fill-71" fill="#FFE5DC" points="116.367634 32.4604453 116.082188 33.2206292 94.3190299 33.2206292 94.5785398 32.4604453"></polygon>
                    <path d="M113.162119,20.3583384 L107.936274,20.3583384 C107.405357,20.3583384 107.040323,19.8734362 107.232759,19.4237643 C107.345688,19.1599531 107.624957,18.9862982 107.936274,18.9862982 L113.162119,18.9862982 C113.706923,18.9862982 114.072263,19.4946411 113.853273,19.9480579 C113.732867,20.1974441 113.461685,20.3583384 113.162119,20.3583384" id="Fill-73" fill="#68C2D4"></path>
                    <polygon id="Fill-75" fill="#64B6C7" points="140.712932 93.1855257 142.703467 93.1855257 138.722396 35.5227515 134.741471 35.5227515"></polygon>
                    <polygon id="Fill-77" fill="#64B6C7" points="49.1500505 93.1855257 47.1595149 93.1855257 51.1405861 35.5227515 55.121511 35.5227515"></polygon>
                    <path d="M144.389727,36.2805141 L44.8606456,36.2805141 C44.1039239,36.2805141 43.4847475,35.5588154 43.4847475,34.6767968 C43.4847475,33.7946053 44.1039239,33.0729066 44.8606456,33.0729066 L144.389727,33.0729066 C145.146597,33.0729066 145.765773,33.7946053 145.765773,34.6767968 C145.765773,35.5588154 145.146597,36.2805141 144.389727,36.2805141" id="Fill-79" fill="#005364"></path>
                    <path d="M170.431306,93.8542913 L0.445377977,93.8542913 C0.199380875,93.8542913 -1.17434755e-13,93.6841368 -1.17434755e-13,93.4741993 C-1.17434755e-13,93.2642619 0.199380875,93.0941074 0.445377977,93.0941074 L170.431306,93.0941074 C170.677303,93.0941074 170.876684,93.2642619 170.876684,93.4741993 C170.876684,93.6841368 170.677303,93.8542913 170.431306,93.8542913" id="Fill-81" fill="#007991"></path>
                </g>
            </g>
        </g>
    </g>
</svg>