<svg width="18" height="18" viewBox="0 0 18 18" fill="none" xmlns="http://www.w3.org/2000/svg">
<path d="M9 0C9.82617 0 10.623 0.108398 11.3906 0.325195C12.1582 0.536133 12.873 0.837891 13.5352 1.23047C14.2031 1.62305 14.8096 2.09473 15.3545 2.64551C15.9053 3.19043 16.377 3.79688 16.7695 4.46484C17.1621 5.12695 17.4639 5.8418 17.6748 6.60938C17.8916 7.37695 18 8.17383 18 9C18 9.82617 17.8916 10.623 17.6748 11.3906C17.4639 12.1582 17.1621 12.876 16.7695 13.5439C16.377 14.2061 15.9053 14.8125 15.3545 15.3633C14.8096 15.9082 14.2031 16.377 13.5352 16.7695C12.873 17.1621 12.1582 17.4668 11.3906 17.6836C10.623 17.8945 9.82617 18 9 18C8.17383 18 7.37695 17.8945 6.60938 17.6836C5.8418 17.4668 5.12402 17.1621 4.45605 16.7695C3.79395 16.377 3.1875 15.9082 2.63672 15.3633C2.0918 14.8125 1.62305 14.2061 1.23047 13.5439C0.837891 12.876 0.533203 12.1582 0.316406 11.3906C0.105469 10.623 0 9.82617 0 9C0 8.17383 0.105469 7.37695 0.316406 6.60938C0.533203 5.8418 0.837891 5.12695 1.23047 4.46484C1.62305 3.79688 2.0918 3.19043 2.63672 2.64551C3.1875 2.09473 3.79395 1.62305 4.45605 1.23047C5.12402 0.837891 5.8418 0.536133 6.60938 0.325195C7.37695 0.108398 8.17383 0 9 0ZM11.8213 12.7705C11.9502 12.7705 12.0703 12.7471 12.1816 12.7002C12.2988 12.6475 12.4014 12.5771 12.4893 12.4893C12.5771 12.4014 12.6445 12.3018 12.6914 12.1904C12.7441 12.0732 12.7705 11.9502 12.7705 11.8213C12.7705 11.5576 12.6768 11.332 12.4893 11.1445L9.94922 8.60449V3.99902C9.94922 3.87012 9.92285 3.74707 9.87012 3.62988C9.82324 3.5127 9.75586 3.41309 9.66797 3.33105C9.58594 3.24316 9.48633 3.17578 9.36914 3.12891C9.25195 3.07617 9.12891 3.0498 9 3.0498C8.86523 3.0498 8.73926 3.07617 8.62207 3.12891C8.51074 3.17578 8.41113 3.24316 8.32324 3.33105C8.24121 3.41309 8.17383 3.5127 8.12109 3.62988C8.07422 3.74707 8.05078 3.87012 8.05078 3.99902V9C8.05078 9.12305 8.07422 9.24609 8.12109 9.36914C8.16797 9.48633 8.23535 9.58887 8.32324 9.67676L11.1445 12.4893C11.332 12.6768 11.5576 12.7705 11.8213 12.7705Z" fill="#007991"/>
</svg>
