<?xml version="1.0" encoding="UTF-8"?>
<svg width="12px" height="12px" viewBox="0 0 12 12" version="1.1" xmlns="http://www.w3.org/2000/svg" xmlns:xlink="http://www.w3.org/1999/xlink">
    <title>Pinned</title>
    <g id="Visual-Designs" stroke="none" stroke-width="1" fill="none" fill-rule="evenodd">
        <g id="Facility_Saved-and-Recent_B-(Option2)" transform="translate(-40.000000, -346.000000)" stroke="#FE635B" stroke-width="0.75">
            <g id="Group" transform="translate(41.000000, 345.000000)">
                <g id="Pinned" transform="translate(4.285714, 7.500000) rotate(230.000000) translate(-4.285714, -7.500000) ">
                    <g id="Group-3" transform="translate(4.285714, 8.571429) rotate(135.000000) translate(-4.285714, -8.571429) translate(-1.071429, 3.214286)">
                        <path d="M8.32955699,0.694049251 L10.0202489,2.38472956 C10.2016732,2.56615263 10.2163335,2.85545295 10.0541787,3.05428688 L6.82564603,7.01195788 L6.87576158,7.06271786 C7.50775413,7.69469513 7.28114165,8.96399981 6.39032299,10.0048392 L6.25856576,10.1518829 C6.23298202,10.1791637 6.19739212,10.1949174 6.16002512,10.1955432 C6.12259409,10.1961181 6.08647586,10.1815812 6.0600436,10.1551329 L6.0600436,10.1551329 L0.559154434,4.65425973 C0.532674138,4.62781145 0.518073153,4.59174126 0.518663249,4.55431022 C0.519289901,4.51687919 0.535123645,4.4813053 0.562388424,4.45570554 C1.62798818,3.45665874 2.98948202,3.17642229 3.65155345,3.83850973 L3.65155345,3.83850973 L3.70064603,3.88795788 L7.66000301,0.660121136 C7.85883595,0.497967918 8.14813392,0.51262743 8.32955699,0.694049251 Z" id="Combined-Shape"></path>
                    </g>
                    <line x1="4.02311293" y1="1.08766772" x2="4.47897278" y2="4.26947514" id="Path-8" stroke-linecap="round" stroke-linejoin="round" transform="translate(4.251043, 2.678571) rotate(8.000000) translate(-4.251043, -2.678571) "></line>
                </g>
            </g>
        </g>
    </g>
</svg>