<svg width="24" height="18" viewBox="0 0 24 18" fill="none" xmlns="http://www.w3.org/2000/svg">
<path d="M21 7.5H13.5V6H21V7.5ZM18 12H13.5V10.5H18V12ZM24 0V18H0V0H24ZM22.5 1.5H1.5V16.5H22.5V1.5ZM7.5 10.5C7.08594 10.5 6.69531 10.5781 6.32812 10.7344C5.96875 10.8906 5.65234 11.1055 5.37891 11.3789C5.10547 11.6523 4.89062 11.9727 4.73438 12.3398C4.57812 12.6992 4.5 13.0859 4.5 13.5H3C3 13.0938 3.05469 12.6992 3.16406 12.3164C3.27344 11.9258 3.42578 11.5625 3.62109 11.2266C3.82422 10.8828 4.06641 10.5703 4.34766 10.2891C4.63672 10.0078 4.96094 9.76562 5.32031 9.5625C5.0625 9.28906 4.85938 8.97266 4.71094 8.61328C4.57031 8.25391 4.5 7.88281 4.5 7.5C4.5 7.08594 4.57812 6.69922 4.73438 6.33984C4.89062 5.97266 5.10547 5.65234 5.37891 5.37891C5.65234 5.10547 5.96875 4.89062 6.32812 4.73438C6.69531 4.57813 7.08594 4.5 7.5 4.5C7.91406 4.5 8.30078 4.57813 8.66016 4.73438C9.02734 4.89062 9.34766 5.10547 9.62109 5.37891C9.89453 5.65234 10.1094 5.97266 10.2656 6.33984C10.4219 6.69922 10.5 7.08594 10.5 7.5C10.5 7.88281 10.4258 8.25391 10.2773 8.61328C10.1367 8.97266 9.9375 9.28906 9.67969 9.5625C10.0391 9.76562 10.3594 10.0078 10.6406 10.2891C10.9297 10.5703 11.1719 10.8828 11.3672 11.2266C11.5703 11.5625 11.7266 11.9258 11.8359 12.3164C11.9453 12.6992 12 13.0938 12 13.5H10.5C10.5 13.0859 10.4219 12.6992 10.2656 12.3398C10.1094 11.9727 9.89453 11.6523 9.62109 11.3789C9.34766 11.1055 9.02734 10.8906 8.66016 10.7344C8.30078 10.5781 7.91406 10.5 7.5 10.5ZM6 7.5C6 7.71094 6.03906 7.90625 6.11719 8.08594C6.19531 8.26562 6.30078 8.42578 6.43359 8.56641C6.57422 8.69922 6.73438 8.80469 6.91406 8.88281C7.09375 8.96094 7.28906 9 7.5 9C7.71094 9 7.90625 8.96094 8.08594 8.88281C8.26562 8.80469 8.42188 8.69922 8.55469 8.56641C8.69531 8.42578 8.80469 8.26562 8.88281 8.08594C8.96094 7.90625 9 7.71094 9 7.5C9 7.28906 8.96094 7.09375 8.88281 6.91406C8.80469 6.73438 8.69531 6.57812 8.55469 6.44531C8.42188 6.30469 8.26562 6.19531 8.08594 6.11719C7.90625 6.03906 7.71094 6 7.5 6C7.28906 6 7.09375 6.03906 6.91406 6.11719C6.73438 6.19531 6.57422 6.30469 6.43359 6.44531C6.30078 6.57812 6.19531 6.73438 6.11719 6.91406C6.03906 7.09375 6 7.28906 6 7.5Z" fill="#979797"/>
</svg>
